<svg xmlns="http://www.w3.org/2000/svg" xmlns:xlink="http://www.w3.org/1999/xlink" width="500" zoomAndPan="magnify" viewBox="0 0 375 374.999991" height="500" preserveAspectRatio="xMidYMid meet" version="1.0"><defs><clipPath id="201cb57251"><path d="M 7 81 L 371 81 L 371 312.515625 L 7 312.515625 Z M 7 81 " clip-rule="nonzero"/></clipPath><clipPath id="6aaa2549ca"><path d="M 116 51.515625 L 129 51.515625 L 129 88 L 116 88 Z M 116 51.515625 " clip-rule="nonzero"/></clipPath></defs><g clip-path="url(#201cb57251)"><path fill="#000000" d="M 370.722656 227.203125 C 367.382812 186.183594 333.121094 154.621094 292.023438 154.707031 C 285.871094 154.695312 279.730469 155.410156 273.746094 156.832031 C 271.605469 113.339844 234.664062 79.820312 191.230469 81.960938 C 172.710938 82.875 155.105469 90.304688 141.515625 102.949219 C 106.363281 92.246094 69.203125 112.113281 58.519531 147.3125 C 55.019531 158.839844 54.707031 171.097656 57.613281 182.78125 C 52.007812 189.460938 47.914062 197.277344 45.617188 205.691406 C 16.832031 214.585938 0.691406 245.167969 9.574219 273.996094 C 16.632812 296.898438 37.769531 312.519531 61.707031 312.519531 L 292.023438 312.519531 C 294.273438 312.519531 296.457031 312.453125 298.585938 312.257812 C 341.960938 308.71875 374.253906 270.636719 370.722656 227.203125 Z M 122.316406 112.21875 C 125.625 112.214844 128.925781 112.511719 132.183594 113.105469 C 131.429688 114.09375 130.757812 115.132812 130.0625 116.140625 C 129.667969 116.746094 129.242188 117.269531 128.847656 117.851562 C 127.566406 119.828125 126.363281 121.851562 125.269531 123.917969 C 125.148438 124.144531 125.054688 124.382812 124.9375 124.613281 C 123.980469 126.472656 123.105469 128.359375 122.300781 130.289062 C 122 131.003906 121.746094 131.742188 121.464844 132.472656 C 120.910156 133.949219 120.375 135.429688 119.90625 136.941406 C 119.636719 137.777344 119.402344 138.621094 119.167969 139.464844 C 118.765625 140.929688 118.402344 142.40625 118.085938 143.890625 C 117.894531 144.746094 117.710938 145.601562 117.558594 146.460938 C 117.265625 148.054688 117.046875 149.664062 116.855469 151.277344 C 116.769531 152.042969 116.648438 152.792969 116.582031 153.5625 C 116.386719 155.964844 116.253906 158.347656 116.253906 160.777344 L 116.253906 161.988281 C 112.265625 161.175781 108.203125 160.769531 104.132812 160.777344 C 102.230469 160.777344 100.339844 160.890625 98.453125 161.074219 C 97.84375 161.128906 97.300781 161.214844 96.71875 161.285156 C 95.386719 161.453125 94.0625 161.65625 92.75 161.890625 C 92.144531 162.007812 91.539062 162.128906 90.929688 162.261719 C 89.523438 162.578125 88.140625 162.957031 86.769531 163.367188 C 86.332031 163.496094 85.890625 163.605469 85.460938 163.746094 C 83.695312 164.324219 81.960938 164.960938 80.265625 165.703125 C 79.8125 165.902344 79.378906 166.128906 78.929688 166.3125 C 77.675781 166.917969 76.433594 167.527344 75.21875 168.132812 C 74.617188 168.453125 74.0625 168.78125 73.492188 169.125 C 72.390625 169.765625 71.316406 170.449219 70.261719 171.167969 C 69.742188 171.519531 69.214844 171.863281 68.710938 172.222656 C 68.503906 172.367188 68.292969 172.5 68.105469 172.644531 C 67.890625 170.714844 67.777344 168.78125 67.765625 166.84375 C 67.800781 136.6875 92.203125 112.253906 122.316406 112.21875 Z M 297.535156 300.164062 C 295.71875 300.332031 293.898438 300.382812 292.023438 300.382812 L 61.707031 300.382812 C 38.273438 300.382812 19.277344 281.355469 19.28125 257.890625 C 19.28125 238.152344 32.855469 221.015625 52.042969 216.523438 C 54.351562 215.988281 56.132812 214.15625 56.613281 211.835938 C 61.238281 189.226562 81.082031 172.972656 104.132812 172.917969 C 109.804688 172.878906 115.4375 173.890625 120.742188 175.90625 C 123.863281 177.113281 127.371094 175.558594 128.574219 172.433594 C 128.945312 171.476562 129.066406 170.4375 128.925781 169.421875 C 128.546875 166.554688 128.359375 163.667969 128.375 160.777344 C 128.375 123.902344 158.226562 94.007812 195.050781 94.007812 C 231.871094 94.007812 261.71875 123.902344 261.71875 160.777344 C 261.71875 162.082031 261.664062 163.386719 261.605469 164.695312 C 261.457031 168.046875 264.050781 170.878906 267.394531 171.027344 C 268.183594 171.0625 268.964844 170.941406 269.707031 170.675781 C 276.867188 168.117188 284.417969 166.820312 292.023438 166.84375 C 328.84375 166.777344 358.75 196.617188 358.816406 233.492188 C 358.878906 268.320312 332.199219 297.347656 297.535156 300.164062 Z M 297.535156 300.164062 " fill-opacity="1" fill-rule="nonzero"/></g><g clip-path="url(#6aaa2549ca)"><path fill="#000000" d="M 122.316406 51.523438 C 118.96875 51.523438 116.253906 54.238281 116.253906 57.589844 L 116.253906 81.871094 C 116.253906 85.21875 118.96875 87.9375 122.316406 87.9375 C 125.664062 87.9375 128.375 85.21875 128.375 81.871094 L 128.375 57.589844 C 128.375 54.238281 125.664062 51.523438 122.316406 51.523438 Z M 122.316406 51.523438 " fill-opacity="1" fill-rule="nonzero"/></g><path fill="#000000" d="M 94.511719 87.40625 L 85.234375 64.976562 C 83.863281 61.917969 80.277344 60.550781 77.222656 61.925781 C 74.292969 63.238281 72.898438 66.613281 74.039062 69.621094 L 83.3125 92.054688 C 84.59375 95.152344 88.140625 96.621094 91.234375 95.335938 C 94.328125 94.050781 95.796875 90.503906 94.511719 87.40625 Z M 94.511719 87.40625 " fill-opacity="1" fill-rule="nonzero"/><path fill="#000000" d="M 65.34375 105.507812 L 48.199219 88.332031 C 45.875 85.921875 42.039062 85.855469 39.632812 88.183594 C 37.222656 90.515625 37.15625 94.355469 39.484375 96.765625 C 39.53125 96.820312 39.578125 96.867188 39.632812 96.914062 L 56.777344 114.085938 C 59.21875 116.378906 63.054688 116.257812 65.347656 113.8125 C 67.53125 111.476562 67.527344 107.839844 65.34375 105.507812 Z M 65.34375 105.507812 " fill-opacity="1" fill-rule="nonzero"/><path fill="#000000" d="M 45.339844 133.394531 L 22.914062 124.105469 C 19.820312 122.820312 16.273438 124.289062 14.992188 127.386719 C 13.710938 130.484375 15.179688 134.035156 18.273438 135.320312 L 40.695312 144.613281 C 43.789062 145.894531 47.335938 144.429688 48.617188 141.328125 C 49.902344 138.230469 48.433594 134.675781 45.339844 133.394531 Z M 45.339844 133.394531 " fill-opacity="1" fill-rule="nonzero"/><path fill="#000000" d="M 37.460938 166.84375 L 13.21875 166.84375 C 9.871094 166.84375 7.15625 169.566406 7.15625 172.917969 C 7.15625 176.265625 9.871094 178.984375 13.21875 178.984375 L 37.460938 178.984375 C 40.808594 178.984375 43.523438 176.265625 43.523438 172.917969 C 43.523438 169.566406 40.808594 166.84375 37.460938 166.84375 Z M 37.460938 166.84375 " fill-opacity="1" fill-rule="nonzero"/></svg>