<svg xmlns="http://www.w3.org/2000/svg" xmlns:xlink="http://www.w3.org/1999/xlink" width="500" zoomAndPan="magnify" viewBox="0 0 375 374.999991" height="500" preserveAspectRatio="xMidYMid meet" version="1.0"><defs><clipPath id="4b93632aec"><path d="M 54.660156 0 L 314.160156 0 L 314.160156 375 L 54.660156 375 Z M 54.660156 0 " clip-rule="nonzero"/></clipPath></defs><g clip-path="url(#4b93632aec)"><path fill="#000000" d="M 294.886719 96.285156 C 304.03125 100.515625 310.910156 106.933594 314.160156 115.085938 C 311.441406 100.210938 297.003906 89.339844 278.632812 84.882812 C 267.671875 82.089844 255.351562 81.261719 242.652344 81.941406 C 238.269531 82.167969 233.808594 82.621094 229.273438 83.222656 C 236.679688 79.976562 245.980469 79.371094 255.351562 81.261719 C 249.003906 78.390625 242.046875 76.503906 235.394531 76.050781 C 235.546875 75.976562 235.625 75.976562 235.773438 75.898438 C 236.378906 75.597656 236.984375 75.296875 237.589844 75.070312 C 237.890625 74.917969 238.269531 74.765625 238.570312 74.691406 C 238.949219 74.617188 239.25 74.539062 239.628906 74.464844 C 245.601562 73.332031 259.507812 76.203125 259.585938 75.898438 C 259.660156 75.75 259.585938 75.523438 259.433594 75.371094 C 256.109375 72.046875 251.421875 69.480469 246.734375 67.972656 C 253.234375 67.59375 260.039062 68.878906 266.917969 70.914062 C 262.53125 68.726562 257.847656 66.761719 253.007812 65.402344 C 260.113281 65.328125 266.386719 65.480469 274.097656 66.839844 C 269.789062 62.230469 263.214844 59.589844 257.167969 58.382812 C 259.886719 57.097656 263.742188 57.398438 268.429688 58.910156 C 269.789062 59.363281 271.378906 59.816406 272.8125 60.269531 C 273.796875 60.648438 278.027344 61.554688 277.574219 61.25 C 276.667969 60.648438 274.402344 59.0625 273.570312 58.53125 C 272.207031 57.703125 270.695312 56.796875 269.335938 56.039062 L 268.503906 55.585938 C 275.15625 54.679688 282.414062 54.984375 289.972656 56.644531 C 286.042969 54.304688 281.734375 52.339844 277.273438 50.605469 C 284.304688 49.546875 292.011719 50.527344 299.570312 53.246094 C 296.246094 51.058594 292.695312 49.019531 288.839844 47.433594 C 288.914062 47.433594 288.988281 47.433594 289.066406 47.433594 C 290.351562 47.355469 291.710938 47.355469 292.996094 47.28125 C 294.355469 47.28125 295.71875 47.28125 297.078125 47.28125 C 298.4375 47.28125 299.875 47.355469 301.3125 47.355469 C 300.027344 46.601562 298.664062 45.847656 297.230469 45.167969 C 295.867188 44.5625 294.433594 43.882812 292.996094 43.355469 C 291.558594 42.828125 290.125 42.296875 288.613281 41.84375 C 259.660156 33.085938 232.902344 43.882812 218.917969 62.15625 C 211.207031 30.066406 192.839844 7.566406 171.070312 0.390625 C 176.8125 4.46875 182.105469 9.375 186.714844 15.492188 C 185.886719 14.8125 184.902344 14.210938 183.996094 13.605469 C 182.558594 12.699219 181.046875 12.019531 179.535156 11.492188 C 177.039062 10.660156 174.546875 10.207031 171.976562 10.207031 C 171.824219 10.207031 171.675781 10.433594 171.675781 10.660156 C 171.675781 10.886719 176.210938 13.90625 178.175781 15.644531 C 179.15625 16.550781 180.140625 17.457031 181.046875 18.511719 L 181.726562 19.269531 L 182.40625 20.023438 C 182.863281 20.550781 183.316406 21.082031 183.691406 21.609375 C 184.296875 22.363281 184.902344 23.269531 185.429688 24.175781 C 181.804688 23.121094 177.949219 22.96875 174.015625 24.78125 C 179.914062 28.480469 185.507812 31.574219 191.25 35.503906 C 186.714844 35.199219 181.953125 36.863281 177.496094 39.578125 C 183.089844 38.898438 188.53125 40.335938 192.839844 44.414062 C 189.738281 44.414062 184.828125 45.46875 184.828125 45.847656 C 184.828125 46.074219 185.054688 46.375 185.054688 46.375 C 188.152344 47.886719 190.875 50.074219 193.59375 52.492188 C 195.484375 54.304688 197.675781 56.039062 199.414062 58.15625 C 199.339844 58.15625 199.339844 58.15625 199.265625 58.15625 C 192.839844 51.660156 185.28125 47.507812 175.527344 43.734375 C 160.789062 37.691406 144.007812 36.785156 129.644531 43.355469 C 127.53125 44.261719 125.414062 45.46875 123.449219 46.753906 C 122.464844 47.355469 121.480469 48.113281 120.574219 48.792969 C 120.273438 48.941406 120.199219 49.320312 120.273438 49.699219 C 120.425781 50.074219 132.214844 46.675781 137.734375 46.375 C 133.425781 48.640625 129.570312 52.191406 126.773438 56.265625 C 126.699219 56.417969 126.621094 56.644531 126.773438 56.796875 C 126.925781 57.023438 133.125 53.777344 136.070312 52.871094 C 139.472656 51.8125 142.875 51.285156 146.351562 51.359375 C 142.648438 53.550781 139.09375 56.570312 136.976562 60.496094 C 136.902344 60.722656 136.828125 60.949219 136.976562 61.175781 C 137.660156 61.328125 146.503906 57.550781 149.902344 57.703125 C 149.449219 58.230469 148.996094 58.757812 148.621094 59.289062 L 147.03125 61.402344 C 146.351562 62.457031 145.59375 63.667969 144.914062 64.800781 C 144.539062 65.554688 143.480469 67.519531 143.101562 68.273438 C 143.707031 67.667969 145.21875 66.234375 145.824219 65.628906 C 146.730469 64.875 147.789062 64.042969 148.695312 63.289062 L 150.734375 61.929688 C 155.347656 59.289062 159.351562 58.53125 162.375 58.609375 C 157.3125 61.402344 152.777344 65.480469 149.222656 70.085938 C 153.835938 66.839844 158.824219 64.574219 164.191406 63.515625 C 161.316406 65.554688 156.328125 70.992188 156.40625 71.21875 C 156.632812 71.519531 166.15625 67.820312 170.085938 67.519531 C 166.535156 69.480469 163.285156 71.972656 160.410156 74.691406 C 165.25 71.972656 170.390625 70.234375 175.605469 69.480469 C 173.109375 71.671875 171.070312 74.464844 169.859375 77.410156 C 169.707031 77.410156 169.632812 77.410156 169.480469 77.484375 C 158.75 80.050781 148.390625 84.429688 139.246094 90.472656 C 126.09375 99.457031 115.511719 111.765625 107.042969 124.828125 C 106.894531 125.128906 106.894531 125.433594 107.121094 125.734375 C 107.421875 126.035156 111.503906 122.414062 113.242188 120.828125 C 112.488281 122.261719 111.808594 123.695312 111.351562 125.207031 C 111.277344 125.355469 111.503906 125.582031 111.65625 125.433594 C 115.660156 122.035156 119.140625 118.789062 122.691406 115.085938 C 120.652344 119.695312 119.441406 124.828125 119.140625 129.738281 C 122.011719 122.109375 126.925781 115.3125 133.652344 110.785156 C 131.613281 115.617188 130.476562 121.128906 130.78125 126.339844 C 130.929688 126.414062 135.238281 120.222656 136.828125 117.65625 C 138.414062 114.863281 141.816406 109.046875 143.402344 106.328125 C 141.515625 111.613281 140.53125 117.503906 141.890625 123.015625 C 141.890625 123.015625 143.402344 116.070312 144.765625 112.898438 C 145.367188 111.3125 146.125 109.800781 147.03125 108.367188 C 147.863281 106.859375 148.769531 105.5 149.753906 104.140625 C 151.339844 101.875 153.457031 100.0625 155.269531 97.949219 C 155.269531 97.949219 155.269531 97.949219 155.269531 98.023438 C 151.1875 104.289062 148.390625 111.613281 147.410156 118.863281 C 148.996094 114.9375 151.039062 111.3125 153.457031 108.066406 C 153.382812 111.238281 153.835938 114.257812 154.441406 117.277344 C 154.515625 117.503906 154.589844 117.65625 154.816406 117.730469 C 155.121094 117.882812 158.144531 111.238281 159.65625 108.59375 C 161.089844 106.027344 162.679688 103.6875 164.417969 101.949219 C 162.601562 105.800781 162.148438 110.332031 162.601562 114.484375 C 163.359375 107.914062 166.988281 102.101562 172.65625 98.777344 C 170.917969 103.234375 170.3125 108.59375 171.675781 113.050781 C 169.027344 116.445312 166.761719 120.148438 164.796875 124.148438 C 164.191406 125.355469 163.660156 126.640625 163.058594 127.925781 C 162.527344 129.207031 162 130.492188 161.546875 131.773438 C 157.765625 142.042969 155.726562 153.445312 155.195312 165.074219 C 155.121094 165.90625 155.121094 166.8125 155.121094 167.640625 C 154.667969 168.019531 154.210938 168.472656 153.757812 168.847656 C 148.542969 173.984375 144.6875 180.929688 142.496094 188.332031 C 142.722656 181.6875 145.367188 175.191406 149.828125 170.132812 C 145.972656 172.625 142.570312 175.945312 140.152344 179.875 C 140.152344 179.796875 140.152344 179.648438 140.152344 179.570312 C 140.152344 179.042969 140.152344 178.515625 140.230469 177.984375 C 140.230469 177.683594 140.304688 177.457031 140.304688 177.15625 C 140.378906 176.929688 140.457031 176.625 140.53125 176.398438 C 141.816406 172.097656 148.089844 164.847656 147.9375 164.695312 C 147.863281 164.546875 147.710938 164.546875 147.5625 164.546875 C 144.460938 164.847656 141.285156 166.507812 138.867188 168.621094 C 140.757812 164.320312 143.78125 160.769531 147.257812 157.597656 C 144.460938 159.183594 141.742188 161.070312 139.320312 163.335938 C 141.589844 158.808594 143.707031 155.03125 147.03125 150.953125 C 142.796875 151.257812 139.019531 153.972656 136.296875 157.144531 C 136.449219 154.804688 137.808594 152.539062 140.230469 150.351562 C 140.984375 149.746094 141.742188 148.992188 142.496094 148.3125 C 143.027344 147.933594 144.992188 145.742188 144.6875 145.820312 C 144.007812 146.046875 142.34375 146.648438 141.664062 146.875 C 140.683594 147.328125 139.699219 147.78125 138.792969 148.234375 L 138.261719 148.539062 C 139.851562 143.933594 142.421875 139.550781 145.898438 135.625 C 143.175781 136.910156 140.53125 138.496094 138.035156 140.382812 C 139.625 135.476562 142.796875 131.171875 146.878906 127.847656 C 144.460938 128.753906 142.042969 129.964844 139.851562 131.472656 C 139.851562 131.398438 139.925781 131.398438 139.925781 131.320312 C 140.304688 130.492188 140.757812 129.660156 141.136719 128.753906 C 141.589844 127.925781 142.042969 127.09375 142.421875 126.1875 C 142.875 125.355469 143.402344 124.527344 143.855469 123.621094 C 142.949219 124.074219 142.042969 124.527344 141.210938 124.980469 C 140.378906 125.507812 139.546875 126.035156 138.71875 126.640625 C 137.886719 127.246094 137.128906 127.925781 136.375 128.527344 C 120.425781 143.101562 119.289062 167.945312 128.058594 186.894531 C 119.96875 182.515625 111.65625 181.234375 101.074219 181.082031 C 86.710938 180.628906 71.894531 185.007812 61.3125 194.824219 C 59.726562 196.257812 58.214844 197.84375 56.851562 199.503906 C 56.171875 200.335938 55.566406 201.167969 54.886719 201.996094 C 54.660156 202.222656 54.738281 202.601562 54.886719 202.828125 C 55.113281 203.128906 64.414062 196.710938 69.097656 194.75 C 66 197.921875 63.582031 201.996094 62.296875 206.226562 C 62.21875 206.378906 62.296875 206.527344 62.445312 206.679688 C 62.597656 206.828125 67.058594 202.300781 69.402344 200.636719 C 72.046875 198.75 74.84375 197.242188 77.941406 196.257812 C 75.296875 199.203125 73.105469 202.753906 72.273438 206.527344 C 72.199219 206.679688 72.273438 206.90625 72.425781 207.054688 C 73.105469 206.980469 79.679688 201.242188 82.628906 200.261719 C 82.402344 200.789062 82.175781 201.394531 81.949219 201.921875 L 81.191406 204.1875 C 80.890625 205.246094 80.589844 206.453125 80.285156 207.585938 C 80.136719 208.339844 79.832031 210.226562 79.679688 210.984375 C 80.058594 210.304688 80.964844 208.640625 81.34375 208.039062 C 81.949219 207.132812 82.628906 206.152344 83.234375 205.246094 L 84.59375 203.507812 C 87.84375 199.957031 91.171875 198.070312 93.816406 197.242188 C 90.1875 201.089844 87.390625 205.773438 85.578125 210.679688 C 88.675781 206.605469 92.378906 203.207031 96.765625 200.789062 C 94.800781 203.28125 92.003906 209.246094 92.152344 209.472656 C 92.457031 209.699219 99.636719 203.734375 102.964844 202.222656 C 100.46875 204.941406 98.277344 207.886719 96.539062 211.058594 C 100.015625 207.359375 103.945312 204.414062 108.253906 202.148438 C 108.253906 202.148438 108.253906 202.148438 108.253906 202.222656 C 106.667969 204.792969 105.683594 207.660156 105.457031 210.453125 C 109.613281 204.640625 117.175781 202.300781 123.902344 203.433594 C 123.070312 203.960938 122.3125 204.566406 121.558594 205.167969 C 114.226562 208.1875 107.800781 212.945312 103.566406 219.515625 C 99.183594 226.6875 96.007812 234.617188 94.574219 243.074219 C 92.605469 255.304688 94.117188 268.21875 97.292969 280.527344 C 97.371094 280.753906 97.597656 280.980469 97.898438 280.980469 C 98.199219 280.980469 98.351562 276.675781 98.351562 274.789062 C 98.730469 275.996094 99.257812 277.203125 99.9375 278.410156 C 100.015625 278.5625 100.242188 278.5625 100.242188 278.335938 C 100.394531 274.183594 100.394531 270.40625 100.242188 266.40625 C 101.828125 270.257812 104.246094 273.957031 107.042969 277.050781 C 104.019531 270.9375 102.734375 264.292969 103.792969 258.101562 C 105.53125 262.101562 108.253906 266.027344 111.503906 268.972656 C 111.65625 268.972656 110.296875 263.007812 109.613281 260.589844 C 108.859375 258.101562 107.195312 252.8125 106.515625 250.324219 C 108.632812 254.476562 111.65625 258.554688 115.660156 261.121094 C 115.660156 261.121094 112.335938 256.136719 111.203125 253.570312 C 110.597656 252.285156 110.144531 251.003906 109.691406 249.644531 C 109.238281 248.359375 108.933594 247 108.632812 245.640625 C 108.179688 243.453125 108.253906 241.261719 108.027344 239.070312 C 109.464844 244.960938 112.335938 250.851562 116.117188 255.683594 C 114.605469 252.511719 113.621094 249.265625 113.015625 246.019531 C 114.90625 247.980469 116.945312 249.566406 119.0625 251.078125 C 119.214844 251.152344 119.367188 251.230469 119.59375 251.152344 C 119.894531 251.078125 117.550781 245.566406 116.871094 243.148438 C 116.117188 240.808594 115.585938 238.617188 115.511719 236.65625 C 116.796875 239.902344 119.289062 242.921875 122.011719 245.113281 C 118.535156 240.734375 117.023438 235.371094 118.15625 230.386719 C 119.894531 234.011719 122.765625 237.5625 126.167969 239.523438 C 123.675781 235.597656 123.296875 231.144531 124.277344 227.21875 C 125.867188 230.3125 127.984375 233.105469 130.328125 235.449219 C 130.703125 235.824219 131.308594 235.449219 131.082031 234.996094 C 129.796875 231.898438 128.738281 228.804688 128.4375 225.859375 C 129.644531 228.046875 131.082031 230.085938 132.746094 231.898438 C 131.6875 227.820312 131.535156 223.96875 132.367188 220.347656 C 132.898438 222.535156 133.652344 224.648438 134.484375 226.613281 C 134.9375 219.214844 137.355469 212.644531 141.742188 207.28125 C 141.890625 207.132812 142.042969 206.980469 142.117188 206.828125 C 161.167969 263.234375 177.34375 309.445312 177.191406 374.457031 C 177.191406 374.457031 180.746094 374.609375 191.023438 374.457031 C 190.042969 309.824219 172.582031 265.652344 146.730469 203.660156 C 146.804688 203.660156 146.804688 203.660156 146.878906 203.734375 C 147.257812 203.886719 147.636719 204.113281 148.015625 204.339844 L 149.148438 205.09375 C 149.828125 205.621094 150.734375 206.378906 151.339844 206.980469 C 151.644531 207.28125 152.097656 207.734375 152.398438 208.039062 C 153.835938 209.472656 155.042969 211.132812 156.40625 212.871094 C 156.554688 213.097656 156.859375 212.945312 156.707031 212.71875 C 155.726562 210.226562 154.441406 207.585938 152.851562 205.320312 C 152.699219 205.167969 152.625 204.941406 152.472656 204.792969 C 156.101562 206.453125 159.351562 209.171875 162.074219 212.644531 C 161.015625 208.640625 159.203125 204.714844 156.78125 201.242188 C 158.144531 202.074219 159.429688 203.128906 160.714844 204.339844 C 161.089844 204.792969 161.546875 205.167969 161.921875 205.621094 C 162.300781 206.074219 162.679688 206.527344 163.058594 207.054688 C 163.433594 207.507812 163.8125 208.039062 164.191406 208.492188 C 164.191406 208.492188 165.324219 210 165.324219 210 C 165.550781 210.304688 165.929688 210.078125 165.777344 209.773438 C 165.398438 208.566406 165.023438 207.28125 164.492188 206.074219 C 164.265625 205.472656 163.964844 204.867188 163.660156 204.261719 C 163.359375 203.660156 162.980469 203.054688 162.679688 202.449219 C 162.527344 202.222656 162.375 201.921875 162.226562 201.695312 C 165.097656 202.375 167.742188 203.734375 170.085938 206.226562 C 171.597656 207.8125 172.960938 209.773438 174.015625 211.8125 C 173.640625 210.679688 173.335938 209.546875 172.808594 208.414062 C 171.296875 204.867188 168.878906 201.695312 165.855469 199.429688 C 171.21875 202.601562 175.832031 207.507812 179.460938 213.171875 C 178.78125 210.078125 177.796875 206.90625 176.4375 203.886719 C 178.929688 206.378906 181.121094 209.246094 183.238281 212.117188 C 183.542969 212.492188 183.464844 208.492188 183.011719 206.90625 C 184.75 208.867188 188.453125 214.53125 188.453125 214.003906 C 188.53125 212.492188 188.378906 210.832031 188.078125 209.246094 C 191.855469 211.964844 195.332031 215.136719 198.054688 219.441406 C 197.375 215.738281 195.863281 211.8125 193.972656 208.339844 C 199.414062 211.4375 203.949219 216.570312 207.277344 222.535156 C 206.371094 219.363281 205.160156 216.191406 203.496094 213.171875 C 206.671875 215.363281 213.25 219.894531 214.15625 220.195312 C 210.980469 270.632812 203.496094 324.246094 195.636719 374.457031 L 213.703125 374.457031 C 219.523438 323.261719 225.039062 270.785156 225.949219 218.910156 C 226.402344 193.011719 225.644531 167.039062 223.679688 141.289062 C 222.773438 129.285156 221.5625 117.351562 220.128906 105.421875 C 223.605469 110.480469 225.117188 117.125 224.285156 123.089844 C 226.402344 118.335938 227.382812 112.824219 226.628906 107.539062 C 232.070312 112.371094 235.472656 120.222656 233.507812 127.699219 C 235.625 125.582031 237.285156 122.789062 238.34375 119.617188 C 239.476562 124.753906 239.78125 130.113281 239.175781 135.476562 C 240.535156 131.851562 241.519531 128 241.972656 124.074219 C 243.105469 127.847656 243.03125 137.816406 243.257812 137.96875 C 243.558594 138.117188 243.9375 137.96875 244.089844 137.664062 C 245.527344 134.71875 246.734375 131.546875 247.414062 128.226562 C 248.398438 133.585938 248.171875 138.949219 246.960938 144.386719 C 249.683594 139.550781 251.574219 133.964844 252.253906 128.378906 C 252.707031 129.132812 253.234375 129.8125 253.6875 130.492188 C 254.144531 133.664062 253.992188 136.910156 253.460938 140.308594 L 253.007812 142.648438 C 252.707031 143.78125 252.328125 144.988281 252.027344 146.121094 C 251.722656 146.875 251.042969 148.765625 250.742188 149.519531 C 251.269531 148.914062 252.628906 147.253906 253.085938 146.648438 C 253.765625 145.667969 254.597656 144.613281 255.277344 143.554688 L 256.5625 141.363281 C 256.863281 140.835938 257.167969 140.230469 257.46875 139.703125 C 258.753906 142.800781 258.527344 152.011719 258.679688 152.765625 C 258.90625 152.992188 259.28125 152.917969 259.507812 152.691406 C 262.078125 149.367188 263.363281 145.140625 264.046875 140.910156 C 266.539062 147.101562 266.992188 153.746094 265.859375 160.394531 C 265.859375 160.542969 265.933594 160.769531 266.085938 160.847656 C 266.3125 160.996094 269.867188 154.730469 270.695312 151.332031 C 271 149.972656 271.226562 148.613281 271.378906 147.179688 C 273.039062 152.464844 274.023438 164.46875 274.402344 164.546875 C 274.777344 164.621094 275.15625 164.394531 275.230469 164.015625 C 277.5 155.105469 277.121094 145.367188 274.476562 136.230469 C 271.152344 124.753906 264.347656 114.785156 256.109375 106.253906 C 257.167969 104.0625 257.769531 101.722656 257.695312 99.382812 C 257.695312 99.382812 257.695312 99.308594 257.695312 99.308594 C 260.871094 102.554688 263.289062 106.328125 264.574219 110.632812 C 264.800781 106.027344 263.96875 101.570312 262.15625 97.34375 C 266.539062 100.589844 268.882812 105.121094 270.242188 110.027344 C 270.46875 106.253906 270.167969 102.476562 268.730469 99.003906 C 273.265625 102.78125 275.835938 107.839844 276.667969 113.425781 C 278.105469 107.6875 277.878906 101.796875 275.6875 96.816406 C 279.3125 99.535156 281.429688 103.15625 282.335938 107.3125 L 282.714844 109.273438 C 282.792969 110.253906 282.867188 111.3125 282.941406 112.292969 C 282.941406 112.972656 282.792969 114.785156 282.792969 115.464844 C 283.167969 114.785156 284 112.898438 284.378906 112.21875 C 284.757812 111.160156 285.285156 109.953125 285.664062 108.894531 L 286.269531 106.632812 C 286.570312 105.347656 286.796875 104.0625 286.875 102.78125 C 290.199219 105.726562 292.695312 109.273438 293.070312 113.652344 C 294.28125 109.574219 293.601562 105.5 292.089844 101.949219 C 299.269531 105.648438 303.957031 111.464844 304.484375 118.710938 C 306.148438 109.726562 301.914062 102.25 294.886719 96.285156 Z M 209.921875 100.890625 Z M 169.933594 77.484375 C 176.210938 72.726562 184.828125 73.105469 191.402344 76.878906 C 191.023438 76.957031 190.648438 77.105469 190.195312 77.183594 C 183.542969 76.050781 176.664062 75.976562 169.933594 77.484375 Z M 181.425781 100.890625 C 181.046875 101.949219 180.746094 103.007812 180.441406 104.140625 C 179.535156 104.894531 178.628906 105.648438 177.722656 106.480469 C 175.605469 108.441406 173.640625 110.632812 171.75 112.972656 C 173.109375 107.535156 176.890625 103.460938 181.425781 100.890625 Z M 173.109375 140.609375 C 173.640625 145.066406 174.621094 149.671875 176.210938 153.671875 C 174.015625 154.578125 171.902344 155.636719 169.785156 156.84375 C 170.011719 151.03125 170.992188 145.441406 173.109375 140.609375 Z M 167.59375 151.558594 C 167.820312 153.519531 168.121094 155.558594 168.574219 157.523438 C 167.214844 158.355469 165.855469 159.183594 164.570312 160.089844 C 165.625 157.144531 166.835938 153.746094 167.59375 151.558594 Z M 158.292969 164.921875 C 159.277344 161.902344 160.335938 158.957031 161.394531 156.011719 C 161.46875 158.050781 161.695312 160.089844 161.921875 162.054688 C 160.636719 162.960938 159.429688 163.867188 158.292969 164.921875 Z M 214.078125 218.910156 C 214.078125 219.441406 214.003906 219.96875 214.003906 220.421875 C 212.871094 218.003906 211.585938 215.738281 210.226562 213.476562 C 211.585938 214.378906 212.945312 215.363281 214.230469 216.269531 C 214.15625 217.175781 214.15625 218.003906 214.078125 218.910156 Z M 214.457031 210.984375 C 209.542969 205.472656 204.027344 200.636719 198.128906 196.636719 C 197.148438 195.957031 196.089844 195.351562 195.105469 194.671875 C 194.046875 194.070312 192.992188 193.464844 192.007812 192.9375 C 186.113281 189.839844 179.761719 187.800781 173.5625 187.121094 C 169.785156 186.667969 166.082031 186.746094 162.453125 187.273438 C 162.074219 187.347656 161.695312 187.425781 161.316406 187.5 C 165.476562 185.082031 170.617188 184.253906 175.226562 185.988281 C 173.640625 183.875 171.371094 182.214844 168.800781 181.007812 C 173.261719 180.476562 177.796875 180.628906 182.332031 181.6875 C 179.382812 180.175781 176.210938 178.96875 172.882812 178.210938 C 176.210938 177.609375 184.601562 178.515625 184.828125 178.289062 C 184.976562 178.0625 184.902344 177.683594 184.675781 177.53125 C 182.332031 175.945312 179.6875 174.664062 176.890625 173.757812 C 181.5 173.378906 186.035156 174.058594 190.496094 175.570312 C 186.640625 172.699219 182.03125 170.511719 177.34375 169.453125 C 178.023438 169.152344 178.628906 168.699219 179.308594 168.394531 C 182.03125 168.246094 184.828125 168.699219 187.625 169.453125 L 189.589844 170.058594 C 190.496094 170.433594 191.554688 170.886719 192.460938 171.265625 C 193.066406 171.566406 194.652344 172.398438 195.257812 172.699219 C 194.730469 172.171875 193.519531 170.8125 193.066406 170.359375 C 192.308594 169.679688 191.480469 168.847656 190.648438 168.171875 L 188.910156 166.8125 C 188.453125 166.507812 188 166.207031 187.546875 165.90625 C 190.269531 165.074219 198.054688 166.054688 198.734375 165.980469 C 198.960938 165.753906 198.886719 165.453125 198.734375 165.226562 C 196.164062 162.65625 192.613281 161.070312 189.136719 160.167969 C 194.578125 158.503906 200.246094 158.730469 205.839844 160.316406 C 205.992188 160.316406 206.144531 160.316406 206.21875 160.167969 C 206.371094 160.015625 201.382812 156.316406 198.585938 155.257812 C 197.449219 154.878906 196.316406 154.503906 195.105469 154.277344 C 199.71875 153.292969 210 153.445312 210.074219 153.144531 C 210.226562 152.84375 210 152.464844 209.695312 152.3125 C 202.363281 149.519531 194.046875 148.992188 186.035156 150.5 C 182.785156 151.105469 179.609375 152.085938 176.511719 153.371094 C 176.359375 147.632812 177.417969 142.421875 179.007812 137.515625 C 179.761719 139.324219 180.59375 140.988281 181.652344 142.421875 C 181.953125 142.949219 181.726562 135.097656 182.105469 132 C 182.710938 133.890625 185.128906 137.816406 185.128906 137.289062 C 185.28125 133.132812 185.355469 128.832031 186.035156 124.828125 C 186.714844 128.605469 187.851562 132.453125 189.136719 135.851562 C 188.757812 127.925781 189.890625 120.148438 192.6875 113.578125 C 191.402344 117.730469 191.175781 122.414062 192.082031 126.867188 C 192.308594 128.226562 192.765625 129.585938 193.140625 130.945312 C 192.839844 128.152344 192.765625 125.433594 193.21875 122.863281 C 193.746094 118.9375 195.332031 115.84375 197.449219 113.351562 C 197.449219 113.730469 197.449219 114.03125 197.527344 114.410156 C 197.601562 115.238281 197.675781 115.992188 197.753906 116.75 C 197.902344 117.503906 198.054688 118.335938 198.207031 119.089844 C 198.507812 120.601562 198.960938 122.109375 199.339844 123.542969 C 199.414062 123.921875 199.945312 123.921875 199.945312 123.46875 C 199.945312 123.394531 200.019531 121.28125 200.019531 121.203125 C 200.019531 120.449219 200.019531 119.769531 200.097656 119.015625 C 200.171875 118.335938 200.171875 117.578125 200.246094 116.898438 C 200.324219 116.21875 200.472656 115.539062 200.550781 114.863281 C 200.925781 112.824219 201.382812 110.933594 202.0625 109.273438 C 201.984375 114.257812 202.894531 119.242188 204.40625 123.847656 C 204.707031 118.710938 205.917969 113.957031 208.109375 109.953125 C 208.109375 110.179688 208.109375 110.480469 208.109375 110.707031 C 208.03125 113.957031 208.5625 117.277344 209.242188 120.449219 C 209.316406 120.75 209.621094 120.75 209.621094 120.375 C 209.695312 117.882812 209.769531 115.390625 210.148438 113.050781 C 210.226562 112.519531 210.300781 111.839844 210.453125 111.3125 C 210.601562 110.332031 210.980469 109.046875 211.285156 108.066406 L 211.8125 106.554688 C 212.039062 106.101562 212.265625 105.648438 212.492188 105.195312 C 212.644531 104.96875 212.796875 104.742188 212.945312 104.515625 C 213.929688 116.976562 214.683594 129.511719 215.0625 141.96875 C 215.894531 165.148438 215.667969 188.105469 214.457031 210.984375 Z M 250.136719 101.195312 C 248.925781 100.136719 247.566406 99.15625 246.207031 98.175781 C 249.910156 99.683594 252.78125 102.023438 254.144531 105.046875 C 252.859375 103.6875 251.496094 102.402344 250.136719 101.195312 Z M 250.136719 101.195312 " fill-opacity="1" fill-rule="nonzero"/></g></svg>