<svg xmlns="http://www.w3.org/2000/svg" xmlns:xlink="http://www.w3.org/1999/xlink" width="500" zoomAndPan="magnify" viewBox="0 0 375 374.999991" height="500" preserveAspectRatio="xMidYMid meet" version="1.0"><defs><clipPath id="f695153255"><path d="M 2.34375 37.5 L 372.84375 37.5 L 372.84375 334.5 L 2.34375 334.5 Z M 2.34375 37.5 " clip-rule="nonzero"/></clipPath></defs><path fill="#f0abc1" d="M 345.152344 130.9375 C 335.15625 125.167969 329.230469 114.886719 329.230469 103.351562 C 329.230469 91.8125 335.230469 81.53125 345.152344 75.761719 L 366.03125 63.707031 C 366.917969 63.191406 367.660156 62.597656 368.25 61.933594 C 366.546875 55.941406 362.847656 49.953125 358.183594 45.882812 C 357.515625 46.105469 356.847656 46.402344 356.183594 46.769531 L 335.304688 58.828125 C 319.164062 68.144531 309.539062 84.785156 309.539062 103.351562 C 309.539062 121.914062 319.164062 138.554688 335.304688 147.875 C 345.296875 153.644531 351.222656 163.921875 351.222656 175.460938 C 351.222656 187 345.226562 197.277344 335.304688 203.046875 C 325.457031 208.742188 313.238281 208.742188 303.390625 203.046875 C 268.59375 183.003906 226.757812 179.75 189.664062 193.210938 L 197.292969 206.152344 L 197.292969 211.257812 C 228.757812 200.089844 264.148438 202.972656 293.542969 219.984375 C 309.390625 229.15625 329.15625 229.15625 345.003906 219.984375 C 361.144531 210.664062 370.769531 194.023438 370.769531 175.460938 C 370.917969 156.824219 361.292969 140.183594 345.152344 130.9375 Z M 345.152344 130.9375 " fill-opacity="1" fill-rule="nonzero"/><path fill="#f7b4a7" d="M 179.59375 176.347656 L 98.742188 129.753906 L 45.730469 160.300781 L 126.582031 206.96875 L 144.054688 237.363281 L 144.054688 322.046875 L 197.4375 291.28125 L 197.4375 206.597656 Z M 179.59375 176.347656 " fill-opacity="1" fill-rule="nonzero"/><path fill="#94ddde" d="M 126.507812 206.96875 L 45.65625 160.371094 L 28.257812 170.210938 L 28.257812 231.152344 L 60.09375 212.808594 L 65.574219 215.101562 L 65.574219 251.785156 L 36.03125 268.796875 L 45.730469 285.511719 L 48.023438 286.84375 L 48.023438 285.144531 C 48.023438 277.894531 52.320312 269.683594 57.871094 266.503906 L 105.703125 238.917969 L 111.183594 241.210938 L 111.183594 277.894531 L 71.792969 300.601562 L 126.582031 332.179688 L 143.980469 322.269531 L 143.980469 236.921875 Z M 126.507812 206.96875 " fill-opacity="1" fill-rule="nonzero"/><path fill="#fefefe" d="M 63.871094 250.898438 L 18.484375 277.082031 C 13.523438 279.964844 9.449219 276.933594 9.449219 270.277344 L 9.449219 261.402344 C 9.449219 254.746094 13.523438 247.054688 18.484375 244.167969 L 63.871094 217.988281 Z M 109.40625 244.019531 L 64.019531 270.203125 C 59.058594 273.085938 54.984375 280.777344 54.984375 287.433594 L 54.984375 296.3125 C 54.984375 302.96875 59.058594 306 64.019531 303.113281 L 109.40625 276.933594 Z M 109.40625 244.019531 " fill-opacity="1" fill-rule="nonzero"/><g clip-path="url(#f695153255)"><path fill="#143c3c" d="M 345.964844 129.457031 C 336.488281 123.984375 330.859375 114.222656 330.859375 103.277344 C 330.859375 92.332031 336.488281 82.566406 345.964844 77.09375 L 347.742188 76.058594 C 349.296875 77.539062 351 78.871094 352.777344 79.832031 C 355.589844 81.457031 358.402344 82.273438 361.070312 82.273438 C 367.882812 82.273438 372.472656 76.796875 372.472656 68.589844 C 372.472656 58.011719 365.289062 45.585938 356.035156 40.261719 C 353.296875 38.710938 350.480469 37.894531 347.816406 37.894531 C 341.003906 37.894531 336.414062 43.367188 336.414062 51.578125 C 336.414062 53.058594 336.5625 54.535156 336.859375 56.015625 L 334.5625 57.347656 C 317.902344 66.960938 307.980469 84.121094 307.980469 103.277344 C 307.980469 122.433594 317.902344 139.589844 334.5625 149.207031 C 344.039062 154.679688 349.667969 164.441406 349.667969 175.386719 C 349.667969 186.332031 344.039062 196.09375 334.5625 201.570312 C 325.234375 206.96875 313.609375 206.96875 304.28125 201.570312 C 269.40625 181.453125 227.574219 178.050781 190.257812 191.214844 L 180.78125 175.164062 L 98.742188 127.832031 L 26.628906 169.25 L 26.628906 232.113281 L 12.1875 240.398438 C 6.636719 243.652344 2.34375 251.859375 2.34375 259.109375 L 2.34375 267.984375 C 2.34375 272.050781 3.75 275.230469 6.265625 276.710938 C 6.488281 276.859375 6.710938 276.933594 7.007812 277.082031 L 12.1875 279.152344 C 12.410156 279.300781 12.632812 279.375 12.929688 279.449219 L 13.078125 279.523438 C 13.671875 279.667969 14.261719 279.816406 14.929688 279.816406 C 16.335938 279.816406 17.816406 279.375 19.371094 278.488281 L 36.253906 268.796875 L 34.625 269.683594 L 44.546875 286.769531 L 48.023438 288.765625 L 48.023438 294.09375 C 48.023438 298.160156 49.433594 301.339844 51.949219 302.820312 C 52.171875 302.96875 52.394531 303.039062 52.691406 303.1875 L 57.871094 305.257812 C 58.09375 305.40625 58.316406 305.480469 58.613281 305.554688 L 58.761719 305.628906 C 59.351562 305.777344 59.945312 305.925781 60.613281 305.925781 C 62.019531 305.925781 63.5 305.480469 65.054688 304.59375 L 70.3125 301.5625 L 126.730469 334.105469 L 199.363281 292.316406 L 199.363281 212.441406 C 230.089844 201.863281 264.519531 204.824219 293.175781 221.390625 C 309.539062 230.855469 329.898438 230.855469 346.261719 221.390625 C 362.921875 211.773438 372.84375 194.617188 372.84375 175.460938 C 372.546875 156.230469 362.625 139.074219 345.964844 129.457031 Z M 98.742188 131.601562 L 176.335938 176.347656 L 126.582031 205.042969 L 48.988281 160.300781 Z M 17.667969 275.675781 C 16.484375 276.339844 14.78125 277.007812 13.375 276.121094 C 11.894531 275.304688 11.078125 273.085938 11.078125 270.203125 L 11.078125 261.328125 C 11.078125 255.335938 14.855469 248.089844 19.296875 245.5 L 62.242188 220.722656 L 62.242188 249.9375 Z M 63.203125 301.710938 C 62.019531 302.375 60.316406 303.039062 58.910156 302.152344 C 57.429688 301.339844 56.613281 299.121094 56.613281 296.238281 L 56.613281 287.363281 C 56.613281 281.371094 60.390625 274.121094 64.832031 271.535156 L 107.777344 246.757812 L 107.777344 275.972656 Z M 142.203125 321.308594 L 126.433594 330.257812 L 73.273438 299.640625 L 111.035156 277.894531 L 111.035156 241.210938 L 105.554688 238.917969 L 57.722656 266.503906 C 52.171875 269.683594 47.878906 277.894531 47.878906 285.144531 C 47.878906 285.070312 47.878906 284.996094 47.878906 284.921875 L 46.765625 284.328125 L 37.289062 268.058594 L 65.425781 251.859375 L 65.425781 215.175781 L 59.945312 212.882812 L 28.035156 231.300781 L 29.8125 230.265625 L 29.8125 171.171875 L 45.582031 162.222656 L 125.25 208.152344 L 135.910156 226.566406 L 142.203125 237.511719 Z M 138.726562 224.792969 L 128.804688 207.558594 L 160.121094 189.511719 L 179.003906 178.640625 L 195.21875 206.078125 L 144.722656 235.21875 Z M 195.808594 290.320312 L 145.683594 319.238281 L 145.683594 238.328125 L 195.808594 209.40625 Z M 344.335938 218.578125 C 328.9375 227.453125 309.90625 227.453125 294.507812 218.578125 C 265.335938 201.714844 230.386719 198.609375 199.066406 209.039062 L 199.066406 206.226562 L 191.960938 194.246094 C 206.175781 189.292969 221.132812 186.777344 236.015625 186.777344 C 259.042969 186.777344 282.066406 192.691406 302.578125 204.527344 C 312.941406 210.515625 325.753906 210.515625 336.117188 204.527344 C 346.632812 198.460938 352.851562 187.664062 352.851562 175.535156 C 352.851562 163.40625 346.558594 152.605469 336.117188 146.542969 C 320.496094 137.519531 311.164062 121.394531 311.164062 103.425781 C 311.164062 85.453125 320.496094 69.328125 336.117188 60.304688 L 356.996094 48.25 C 357.8125 47.804688 358.699219 47.511719 359.589844 47.289062 C 363.070312 50.765625 365.957031 55.351562 367.585938 60.082031 C 366.84375 61.046875 344.261719 74.285156 344.261719 74.285156 C 333.75 80.347656 327.527344 91.148438 327.527344 103.277344 C 327.527344 115.40625 333.824219 126.203125 344.261719 132.269531 C 359.886719 141.292969 369.214844 157.414062 369.214844 175.386719 C 369.289062 193.433594 359.957031 209.554688 344.335938 218.578125 Z M 34.402344 251.417969 C 34.402344 256.445312 30.847656 262.585938 26.40625 265.171875 C 21.960938 267.6875 18.410156 265.691406 18.410156 260.664062 C 18.410156 255.632812 21.960938 249.496094 26.40625 246.90625 C 30.773438 244.316406 34.402344 246.386719 34.402344 251.417969 Z M 79.9375 277.449219 C 79.9375 282.480469 76.382812 288.617188 71.941406 291.207031 C 67.496094 293.722656 63.945312 291.726562 63.945312 286.695312 C 63.945312 281.667969 67.496094 275.527344 71.941406 272.9375 C 76.382812 270.425781 79.9375 272.421875 79.9375 277.449219 Z M 79.9375 277.449219 " fill-opacity="1" fill-rule="nonzero"/></g><path fill="#143c3c" d="M 111.921875 198.460938 L 150.71875 159.707031 L 151.164062 159.929688 L 131.542969 179.527344 L 112.367188 198.683594 Z M 118.140625 202.085938 L 118.585938 202.308594 L 131.542969 189.363281 L 157.382812 163.554688 L 156.9375 163.332031 L 150.792969 169.46875 Z M 124.359375 205.636719 L 124.804688 205.859375 L 131.542969 199.128906 L 146.871094 183.816406 L 151.164062 179.527344 L 163.601562 167.101562 L 163.160156 166.882812 L 150.792969 179.234375 Z M 128.878906 210.886719 L 129.101562 211.332031 L 131.542969 208.890625 L 147.164062 193.285156 L 151.089844 189.363281 L 169.75 170.726562 L 169.304688 170.503906 L 150.71875 189.070312 Z M 132.429688 217.101562 L 132.652344 217.542969 L 175.96875 174.277344 L 175.523438 174.054688 L 150.71875 198.832031 Z M 135.984375 223.3125 L 136.207031 223.757812 L 181.078125 178.9375 L 180.855469 178.492188 L 150.792969 208.519531 Z M 139.539062 229.523438 L 139.761719 229.96875 L 184.703125 185.074219 L 184.480469 184.632812 L 150.792969 218.355469 Z M 143.167969 235.738281 L 143.390625 236.179688 L 188.40625 191.214844 L 188.183594 190.769531 L 150.867188 228.046875 Z M 99.558594 191.363281 L 100 191.582031 L 131.542969 160.078125 L 138.800781 152.828125 L 138.355469 152.605469 Z M 61.277344 151.351562 L 49.875 162.738281 L 50.320312 162.960938 L 62.90625 150.386719 Z M 84.453125 138.039062 L 72.53125 149.945312 L 56.167969 166.289062 L 56.613281 166.511719 L 86.15625 137 Z M 101.113281 131.085938 L 82.304688 149.945312 L 62.316406 169.914062 L 62.757812 170.136719 L 101.554688 131.382812 Z M 107.332031 134.710938 L 92.078125 149.945312 L 68.535156 173.464844 L 68.980469 173.6875 L 107.777344 134.929688 Z M 113.550781 138.257812 L 101.851562 149.945312 L 74.753906 177.015625 L 75.199219 177.234375 L 113.996094 138.480469 Z M 119.769531 141.882812 L 111.699219 149.945312 L 80.972656 180.636719 L 81.417969 180.859375 L 120.214844 142.105469 Z M 125.917969 145.433594 L 121.398438 149.945312 L 87.117188 184.1875 L 87.5625 184.410156 L 126.359375 145.65625 Z M 144.054688 255.113281 L 151.164062 248.015625 L 195.664062 203.566406 L 195.441406 203.121094 L 144.128906 254.375 L 144.128906 255.113281 Z M 144.054688 264.878906 L 160.9375 248.015625 L 197.4375 211.554688 L 197.4375 210.886719 L 144.054688 264.210938 Z M 150.792969 267.246094 L 144.054688 273.976562 L 144.054688 274.640625 L 170.710938 248.015625 L 197.4375 221.316406 L 197.4375 220.648438 Z M 160.566406 267.246094 L 150.792969 277.007812 L 144.054688 283.738281 L 144.054688 284.402344 L 180.484375 248.015625 L 197.4375 231.078125 L 197.4375 230.414062 Z M 170.339844 267.246094 L 150.792969 286.769531 L 144.054688 293.5 L 144.054688 294.164062 L 190.257812 248.015625 L 197.4375 240.839844 L 197.4375 240.175781 Z M 180.113281 267.246094 L 150.71875 296.605469 L 143.980469 303.335938 L 143.980469 304.003906 L 197.367188 250.675781 L 197.367188 250.011719 Z M 189.960938 267.246094 L 150.792969 306.367188 L 144.054688 313.097656 L 144.054688 313.765625 L 197.4375 260.441406 L 197.4375 259.773438 Z M 145.832031 321.085938 L 147.460938 320.125 L 197.4375 270.203125 L 197.4375 269.539062 L 150.792969 316.132812 Z M 170.636719 306.738281 L 197.4375 279.964844 L 197.4375 279.300781 L 168.933594 307.773438 Z M 193.738281 293.425781 L 197.4375 289.726562 L 197.4375 289.0625 L 192.109375 294.386719 Z M 132.136719 148.984375 L 131.171875 149.945312 L 93.339844 187.738281 L 93.78125 187.960938 L 132.578125 149.207031 Z M 106.222656 195.132812 L 131.617188 169.765625 L 145.019531 156.378906 L 144.574219 156.15625 L 105.777344 194.910156 Z M 144.054688 244.613281 L 144.054688 245.277344 L 192.035156 197.351562 L 191.8125 196.910156 L 150.867188 237.808594 Z M 144.054688 244.613281 " fill-opacity="1" fill-rule="nonzero"/></svg>