<svg xmlns="http://www.w3.org/2000/svg" xmlns:xlink="http://www.w3.org/1999/xlink" width="1366" zoomAndPan="magnify" viewBox="0 0 1024.5 576" height="768" preserveAspectRatio="xMidYMid meet" version="1.0"><defs><filter x="0%" y="0%" width="100%" height="100%" id="6022c97463"><feColorMatrix values="0 0 0 0 1 0 0 0 0 1 0 0 0 0 1 0 0 0 1 0" color-interpolation-filters="sRGB"/></filter><clipPath id="b2016402bc"><path d="M 0 0.140625 L 1024 0.140625 L 1024 575.859375 L 0 575.859375 Z M 0 0.140625 " clip-rule="nonzero"/></clipPath><clipPath id="9358c5557a"><path d="M 503 0.140625 L 792 0.140625 L 792 289 L 503 289 Z M 503 0.140625 " clip-rule="nonzero"/></clipPath><mask id="77bf4c319e"><g filter="url(#6022c97463)"><rect x="-102.45" width="1229.4" fill="#000000" y="-57.6" height="691.2" fill-opacity="0.7"/></g></mask><clipPath id="ffc3474179"><rect x="0" width="49" y="0" height="53"/></clipPath><mask id="4c7cd539eb"><g filter="url(#6022c97463)"><rect x="-102.45" width="1229.4" fill="#000000" y="-57.6" height="691.2" fill-opacity="0.7"/></g></mask><clipPath id="3f0ce05101"><rect x="0" width="22" y="0" height="24"/></clipPath></defs><g clip-path="url(#b2016402bc)"><path fill="#ffffff" d="M 0 0.140625 L 1024 0.140625 L 1024 575.859375 L 0 575.859375 Z M 0 0.140625 " fill-opacity="1" fill-rule="nonzero"/><path fill="#ffffff" d="M 0 0.140625 L 1024 0.140625 L 1024 575.859375 L 0 575.859375 Z M 0 0.140625 " fill-opacity="1" fill-rule="nonzero"/></g><path fill="#e8e8e8" d="M 248.824219 365.359375 C 253.277344 382.097656 270.386719 402.179688 270.386719 402.179688 C 270.386719 402.179688 269.65625 403.691406 268.714844 406.214844 C 264.921875 416.316406 257.613281 442.59375 279.425781 452.511719 C 312.308594 467.457031 344.867188 446.054688 344.867188 446.054688 C 344.867188 446.054688 340.277344 499.242188 385.675781 462.207031 C 371.132812 492.550781 389.71875 528.246094 401.554688 536.425781 C 426.277344 553.484375 461.472656 547.960938 488.785156 532.597656 C 489.605469 540.644531 493.773438 552.164062 507.199219 556.507812 C 535.203125 565.554688 546.609375 530.359375 546.609375 530.359375 C 546.609375 530.359375 555.050781 541.835938 572.625 550.566406 C 623.570312 575.851562 667.566406 549.679688 698.46875 502.957031 C 723.28125 520.367188 770.792969 516.550781 789.84375 492.980469 C 808.898438 469.421875 806.183594 431.214844 783.984375 410.585938 C 812.542969 423.246094 846.046875 420.726562 870.289062 400.9375 C 878.492188 394.234375 883.867188 385.359375 886.777344 375.730469 C 891.527344 360.058594 889.753906 342.386719 883.121094 328.785156 C 854.273438 269.644531 776.171875 289.203125 759.070312 298.542969 C 762.375 280.429688 760.082031 267.3125 752.414062 256.574219 C 746.175781 247.824219 736.386719 240.640625 723.148438 233.597656 C 716.617188 230.121094 709.527344 227.890625 702.246094 226.824219 C 688.25 224.765625 673.539062 226.996094 660.757812 232.925781 C 652.882812 236.574219 645.75 241.621094 639.964844 247.925781 C 636.207031 252.007812 633.015625 256.609375 630.558594 261.714844 C 622.210938 244.054688 593.945312 240.824219 581.820312 256.164062 C 559.574219 235.664062 521.871094 221.949219 495.058594 225.402344 C 444.992188 231.84375 421.703125 276.472656 421.703125 276.472656 C 421.703125 276.472656 401.625 259.367188 384.710938 266.621094 C 371.714844 272.1875 367.796875 294.328125 367.796875 294.328125 C 367.796875 294.328125 343.050781 281.597656 320.832031 279.703125 C 280.179688 276.222656 235.066406 313.671875 248.824219 365.359375 Z M 248.824219 365.359375 " fill-opacity="1" fill-rule="nonzero"/><path fill="#371a45" d="M 611.839844 564.980469 C 598.28125 564.980469 584.5 561.53125 570.609375 554.632812 C 560.011719 549.371094 552.550781 543.15625 548.066406 538.746094 C 541.515625 552.050781 527.378906 567.808594 505.804688 560.835938 C 492.792969 556.632812 487.578125 546.867188 485.496094 539.484375 C 459.933594 552.183594 425.359375 558.378906 398.980469 540.164062 C 388.152344 532.6875 370.960938 503.527344 376.960938 474 C 366.625 480.183594 358.292969 481.484375 351.691406 477.992188 C 342.96875 473.378906 340.726562 461.792969 340.265625 453.765625 C 328.378906 459.519531 303.269531 468.347656 277.550781 456.644531 C 269.894531 453.164062 264.644531 447.621094 261.9375 440.164062 C 256.859375 426.152344 262.496094 409.390625 265.113281 402.914062 C 260.453125 397.089844 248.257812 380.90625 244.433594 366.53125 C 238.164062 342.972656 243 320.113281 258.046875 302.160156 C 273.675781 283.519531 297.871094 273.175781 321.207031 275.171875 C 338.132812 276.617188 356.097656 283.917969 364.707031 287.824219 C 366.957031 280.15625 372.253906 267.015625 382.914062 262.445312 C 397.320312 256.273438 412.972656 264.785156 420.355469 269.816406 C 427.972656 257.84375 451.777344 226.398438 494.476562 220.898438 C 521.085938 217.472656 557.683594 229.800781 581.527344 249.855469 C 588.277344 243.761719 597.898438 240.882812 608.121094 242.046875 C 617.113281 243.074219 624.929688 247.039062 630.222656 253.042969 C 638.460938 240.335938 651.386719 230.671875 667.335938 225.457031 C 687.085938 218.996094 708.207031 220.5 725.277344 229.585938 C 751.03125 243.292969 767.652344 259.304688 764.691406 291.117188 C 782.164062 284.660156 814.484375 279.058594 842.183594 287.886719 C 862.644531 294.40625 877.792969 307.5 887.203125 326.796875 C 898.398438 349.753906 897.28125 384.773438 873.164062 404.460938 C 852.363281 421.441406 824.464844 426.953125 797.511719 420.082031 C 811.496094 443.011719 810.566406 474.582031 793.378906 495.84375 C 774.421875 519.304688 727.898438 525.453125 699.761719 509.171875 C 683.414062 532.816406 664.960938 549.210938 644.871094 557.9375 C 634.058594 562.632812 623.023438 564.980469 611.839844 564.980469 Z M 546.609375 525.8125 C 548.039062 525.8125 549.40625 526.488281 550.265625 527.660156 C 550.339844 527.761719 558.390625 538.417969 574.652344 546.492188 C 633.320312 575.621094 675.039062 530.152344 694.683594 500.453125 C 695.363281 499.429688 696.421875 498.722656 697.628906 498.492188 C 698.835938 498.265625 700.078125 498.535156 701.082031 499.238281 C 724.769531 515.851562 769.371094 511.085938 786.308594 490.125 C 803.816406 468.46875 801.28125 432.859375 780.886719 413.917969 C 779.261719 412.410156 778.960938 409.941406 780.183594 408.085938 C 781.40625 406.230469 783.785156 405.53125 785.820312 406.433594 C 814.023438 418.933594 845.285156 415.480469 867.417969 397.414062 C 887.164062 381.292969 888.832031 350.878906 879.03125 330.78125 C 870.753906 313.800781 857.425781 302.285156 839.425781 296.546875 C 807.421875 286.34375 770.40625 297.535156 761.25 302.539062 C 759.714844 303.375 757.832031 303.261719 756.410156 302.234375 C 754.992188 301.207031 754.285156 299.460938 754.601562 297.734375 C 759.839844 268.9375 751.363281 253.765625 721.003906 237.609375 C 706.105469 229.675781 687.574219 228.398438 670.160156 234.09375 C 653.894531 239.414062 641.28125 249.925781 634.644531 263.683594 C 633.886719 265.257812 632.296875 266.253906 630.550781 266.253906 C 630.546875 266.253906 630.542969 266.253906 630.535156 266.253906 C 628.78125 266.246094 627.191406 265.234375 626.441406 263.652344 C 623.203125 256.789062 615.96875 252.089844 607.089844 251.078125 C 598.199219 250.0625 590.097656 253.019531 585.386719 258.980469 C 584.601562 259.972656 583.441406 260.59375 582.179688 260.691406 C 580.910156 260.796875 579.675781 260.363281 578.742188 259.503906 C 557.222656 239.683594 520.714844 226.683594 495.632812 229.914062 C 448.613281 235.96875 425.941406 278.160156 425.714844 278.585938 C 425.074219 279.808594 423.90625 280.675781 422.554688 280.9375 C 421.195312 281.199219 419.796875 280.832031 418.742188 279.9375 C 418.570312 279.789062 400.574219 264.757812 386.492188 270.800781 C 377.722656 274.554688 373.242188 289.632812 372.257812 295.125 C 372 296.542969 371.089844 297.761719 369.796875 298.398438 C 368.507812 299.035156 366.988281 299.027344 365.707031 298.367188 C 365.46875 298.246094 341.476562 286.023438 320.433594 284.226562 C 300.316406 282.503906 278.558594 291.839844 265.007812 308 C 251.914062 323.617188 247.726562 343.570312 253.210938 364.1875 C 257.34375 379.71875 273.675781 399.03125 273.839844 399.226562 C 275.007812 400.59375 275.253906 402.523438 274.476562 404.140625 C 274.390625 404.328125 265.46875 423.296875 270.488281 437.085938 C 272.355469 442.214844 275.890625 445.90625 281.304688 448.363281 C 311.429688 462.0625 342.0625 442.449219 342.367188 442.25 C 343.824219 441.300781 345.699219 441.261719 347.1875 442.15625 C 348.675781 443.046875 349.535156 444.710938 349.382812 446.445312 C 348.964844 451.421875 349.273438 466.4375 355.9375 469.953125 C 361.046875 472.648438 370.578125 468.644531 382.792969 458.683594 C 384.4375 457.335938 386.804688 457.316406 388.472656 458.632812 C 390.148438 459.949219 390.683594 462.25 389.761719 464.167969 C 376.640625 491.558594 393.304688 525.199219 404.136719 532.679688 C 429.058594 549.886719 464.113281 541.253906 486.558594 528.636719 C 487.894531 527.886719 489.519531 527.859375 490.878906 528.566406 C 492.238281 529.269531 493.148438 530.613281 493.304688 532.140625 C 493.898438 537.972656 496.667969 548.332031 508.589844 552.179688 C 531.902344 559.714844 541.867188 530.203125 542.277344 528.945312 C 542.808594 527.328125 544.199219 526.136719 545.878906 525.867188 C 546.128906 525.832031 546.371094 525.8125 546.609375 525.8125 Z M 546.609375 525.8125 " fill-opacity="1" fill-rule="nonzero"/><path fill="#371a45" d="M 639.964844 247.925781 C 639.941406 260.574219 640.839844 281.394531 645.90625 301.101562 C 648.847656 312.511719 653.175781 323.546875 659.539062 332.433594 C 668.09375 344.367188 680.320312 352.402344 697.746094 352.140625 C 763.535156 351.164062 735.644531 275.085938 735.644531 275.085938 C 735.644531 275.085938 744.484375 266.472656 752.410156 256.574219 C 746.175781 247.824219 736.382812 240.640625 723.148438 233.597656 C 716.617188 230.121094 709.527344 227.890625 702.242188 226.824219 L 660.753906 232.925781 L 640.304688 235.9375 C 640.304688 235.9375 640.160156 238.039062 640.054688 241.6875 C 639.996094 243.4375 639.964844 245.53125 639.964844 247.925781 Z M 639.964844 247.925781 " fill-opacity="0.35" fill-rule="nonzero"/><path fill="#ffffff" d="M 634.542969 301.101562 C 637.484375 312.511719 641.8125 323.546875 648.175781 332.433594 C 656.730469 344.367188 668.957031 352.402344 686.382812 352.140625 C 752.171875 351.164062 735.640625 275.085938 735.640625 275.085938 C 735.640625 275.085938 747.546875 267.722656 753.957031 253.675781 C 754.523438 252.425781 755.035156 251.1875 755.476562 249.972656 C 762.125 232.152344 757.511719 217.011719 757.511719 217.011719 L 628.941406 235.933594 C 628.941406 235.933594 628.792969 238.035156 628.691406 241.683594 C 628.386719 252.679688 628.523438 277.667969 634.542969 301.101562 Z M 634.542969 301.101562 " fill-opacity="1" fill-rule="nonzero"/><path fill="#371a45" d="M 685.558594 356.691406 C 671.332031 356.691406 659.261719 351.550781 649.667969 341.394531 C 619.511719 309.480469 624.195312 238.621094 624.410156 235.617188 L 624.671875 231.976562 L 760.710938 211.953125 L 761.855469 215.691406 C 762.089844 216.464844 767.527344 234.871094 758.089844 255.566406 C 753.011719 266.710938 744.8125 273.949219 740.636719 277.121094 C 742.230469 286.851562 745.640625 317.671875 729.375 338.167969 C 719.851562 350.171875 705.40625 356.40625 686.445312 356.6875 C 686.148438 356.6875 685.855469 356.691406 685.558594 356.691406 Z M 633.304688 239.894531 C 632.777344 254.589844 632.496094 310 656.28125 335.160156 C 664.363281 343.710938 674.210938 347.757812 686.3125 347.59375 C 702.417969 347.355469 714.511719 342.28125 722.261719 332.515625 C 738.722656 311.765625 731.28125 276.402344 731.203125 276.046875 L 730.519531 272.90625 L 733.253906 271.214844 C 733.351562 271.152344 744.109375 264.324219 749.824219 251.792969 C 755.453125 239.445312 754.808594 227.894531 753.933594 222.140625 Z M 633.304688 239.894531 " fill-opacity="1" fill-rule="nonzero"/><path fill="#ffffff" d="M 436.050781 277.527344 C 436.121094 276.421875 431.496094 238.421875 438.421875 219.839844 C 444.460938 203.636719 480.988281 170.613281 519.667969 168.023438 C 558.488281 165.429688 551.125 251.910156 551.125 251.910156 Z M 436.050781 277.527344 " fill-opacity="1" fill-rule="nonzero"/><path fill="#ffffff" d="M 436.050781 277.53125 L 454.59375 273.40625 L 551.132812 251.917969 C 551.132812 251.917969 553.363281 225.652344 548.875 202.503906 C 545.214844 183.648438 537.089844 166.863281 519.664062 168.023438 C 480.996094 170.613281 444.46875 203.640625 438.425781 219.847656 C 431.496094 238.425781 436.117188 276.417969 436.050781 277.53125 Z M 436.050781 277.53125 " fill-opacity="1" fill-rule="nonzero"/><path fill="#371a45" d="M 457.074219 276.921875 L 553.617188 255.429688 C 553.617188 255.429688 555.84375 229.167969 551.355469 206.015625 C 548.558594 204.902344 545.414062 204.402344 541.878906 204.640625 C 503.195312 207.222656 466.671875 240.257812 460.628906 256.453125 C 458.550781 262.035156 457.515625 269.363281 457.074219 276.921875 Z M 457.074219 276.921875 " fill-opacity="0.35" fill-rule="nonzero"/><path fill="#371a45" d="M 431.132812 283.28125 L 431.503906 277.476562 C 431.484375 277.179688 431.433594 276.660156 431.371094 275.945312 C 428.957031 249.113281 429.898438 229.703125 434.167969 218.25 C 440.609375 200.976562 478.804688 166.203125 519.367188 163.488281 C 527.394531 162.949219 534.3125 165.582031 539.925781 171.300781 C 560.511719 192.269531 555.867188 249.855469 555.65625 252.296875 L 555.375 255.625 Z M 431.515625 277.238281 C 431.515625 277.257812 431.515625 277.28125 431.511719 277.308594 Z M 521.355469 172.515625 C 520.902344 172.515625 520.441406 172.53125 519.972656 172.5625 C 482.277344 175.082031 447.78125 207.738281 442.679688 221.425781 C 440.160156 228.179688 437.734375 242.398438 440.144531 271.960938 L 546.832031 248.210938 C 547.871094 230.578125 547.15625 191.640625 533.433594 177.664062 C 530.039062 174.207031 526.074219 172.515625 521.355469 172.515625 Z M 521.355469 172.515625 " fill-opacity="1" fill-rule="nonzero"/><path fill="#ffffff" d="M 483.4375 240.882812 C 483.816406 230.5 480.042969 207.96875 468.730469 208.421875 C 457.417969 208.871094 433.730469 223.621094 438.460938 254.394531 C 442.128906 278.261719 483.054688 251.261719 483.4375 240.882812 Z M 483.4375 240.882812 " fill-opacity="1" fill-rule="nonzero"/><path fill="#371a45" d="M 437.957031 249.734375 C 438.046875 251.234375 438.207031 252.792969 438.457031 254.394531 C 442.125 278.257812 483.058594 251.257812 483.433594 240.882812 C 483.738281 232.6875 481.445312 216.890625 474.890625 210.847656 C 476.390625 216.800781 476.945312 223.152344 476.789062 227.4375 C 476.484375 235.722656 450.363281 254.589844 437.957031 249.734375 Z M 437.957031 249.734375 " fill-opacity="0.35" fill-rule="nonzero"/><path fill="#371a45" d="M 449.171875 268.515625 C 440.800781 268.515625 435.289062 263.679688 433.964844 255.082031 C 431.210938 237.167969 437.433594 225.15625 443.136719 218.234375 C 450.988281 208.699219 461.554688 204.152344 468.546875 203.875 C 472.171875 203.722656 475.613281 205.144531 478.441406 207.960938 C 485.992188 215.496094 488.296875 232.253906 487.972656 241.046875 C 487.601562 251.21875 465.183594 267.621094 450.496094 268.476562 C 450.050781 268.503906 449.609375 268.515625 449.171875 268.515625 Z M 469.066406 212.957031 C 469.011719 212.957031 468.957031 212.957031 468.90625 212.960938 C 464.898438 213.117188 456.59375 216.195312 450.148438 224.011719 C 445.625 229.503906 440.707031 239.109375 442.949219 253.699219 C 443.597656 257.914062 445.492188 259.53125 449.507812 259.421875 C 461.402344 259.125 478.457031 244.769531 478.894531 240.707031 C 479.171875 233.03125 476.890625 219.253906 472.027344 214.402344 C 470.773438 213.152344 469.757812 212.957031 469.066406 212.957031 Z M 469.066406 212.957031 " fill-opacity="1" fill-rule="nonzero"/><path fill="#371a45" d="M 467.105469 220.511719 C 468.597656 223.28125 469.75 226.144531 470.792969 229.070312 C 471.796875 232 472.65625 234.988281 473.28125 238.074219 C 473.898438 241.164062 474.410156 244.332031 474.269531 247.734375 C 474.183594 249.441406 474.007812 251.207031 473.433594 253.101562 C 473.15625 254.058594 472.785156 255.03125 472.1875 256.078125 C 471.648438 257.078125 470.75 258.210938 469.585938 259.121094 C 467.707031 260.789062 464.835938 260.613281 463.171875 258.734375 C 461.503906 256.859375 461.679688 253.984375 463.554688 252.320312 C 463.355469 252.171875 463.683594 251.527344 463.878906 250.515625 C 464.078125 249.519531 464.28125 248.300781 464.417969 247.019531 C 464.699219 244.449219 464.96875 241.613281 465.113281 238.734375 C 465.414062 232.953125 465.445312 226.953125 465.835938 220.800781 L 465.835938 220.789062 C 465.859375 220.417969 466.183594 220.136719 466.550781 220.160156 C 466.796875 220.171875 467 220.316406 467.105469 220.511719 Z M 467.105469 220.511719 " fill-opacity="1" fill-rule="nonzero"/><path fill="#ffffff" d="M 358.363281 272.828125 C 366.351562 286.296875 388.320312 279.542969 388.320312 279.542969 C 388.320312 279.542969 386.652344 299.785156 393 320.933594 C 407.542969 369.355469 463.417969 344.855469 463.417969 344.855469 C 463.417969 344.855469 523.855469 359.582031 583.714844 352.253906 C 606.390625 349.480469 628.988281 343.539062 648.175781 332.433594 C 661.957031 324.480469 673.972656 313.863281 683.019531 299.851562 C 683.6875 298.816406 684.359375 297.667969 685.027344 296.441406 C 691.027344 285.496094 696.773438 268.316406 696.773438 268.316406 C 696.773438 268.316406 663.25 254.1875 628.6875 241.6875 C 605.316406 233.222656 581.472656 225.515625 567.226562 223.425781 C 551.320312 221.097656 536.53125 222.503906 523.066406 226.039062 C 474.75 238.699219 443.519531 278.554688 439.53125 269.804688 C 435.597656 261.15625 438.859375 241.109375 433.226562 231.144531 C 428.113281 222.121094 407.550781 219.734375 384.113281 230.960938 C 366.050781 239.621094 358.042969 250.28125 356.28125 259.519531 C 355.308594 264.574219 356.214844 269.199219 358.363281 272.828125 Z M 358.363281 272.828125 " fill-opacity="1" fill-rule="nonzero"/><path fill="#371a45" d="M 358.363281 272.828125 C 366.351562 286.296875 388.320312 279.542969 388.320312 279.542969 C 388.320312 279.542969 386.652344 299.785156 393 320.933594 C 407.542969 369.355469 463.417969 344.855469 463.417969 344.855469 C 463.417969 344.855469 523.855469 359.582031 583.714844 352.253906 C 582.316406 323.390625 576.910156 285.25 558.320312 279.734375 C 527.886719 270.710938 449.019531 342.011719 420.808594 330.886719 C 395.203125 320.785156 393.875 255.847656 393.875 255.847656 C 393.875 255.847656 383.140625 275.894531 370.085938 273.429688 C 363.199219 272.132812 358.847656 265.496094 356.28125 259.519531 C 355.308594 264.574219 356.214844 269.199219 358.363281 272.828125 Z M 358.363281 272.828125 " fill-opacity="0.35" fill-rule="nonzero"/><path fill="#371a45" d="M 548.296875 358.84375 C 506.597656 358.84375 471.382812 351.347656 463.800781 349.617188 C 457.523438 352.085938 432.53125 360.753906 412.070312 351.289062 C 400.742188 346.054688 392.863281 336.277344 388.648438 322.234375 C 384.175781 307.332031 383.523438 293.011719 383.578125 285.210938 C 375.4375 286.453125 361.289062 286.65625 354.453125 275.140625 C 351.128906 269.535156 350.445312 262.664062 352.527344 255.789062 C 354.914062 247.917969 361.988281 236.511719 382.152344 226.855469 C 405.921875 215.472656 430.09375 216.375 437.183594 228.90625 C 440.800781 235.300781 441.242188 244.214844 441.664062 252.835938 C 441.898438 257.601562 442.140625 262.496094 442.976562 265.84375 C 445.75 264.359375 450.660156 260.695312 455.097656 257.382812 C 476.632812 241.320312 516.707031 211.421875 567.890625 218.925781 C 603.363281 224.132812 694.675781 262.492188 698.542969 264.121094 L 702.429688 265.761719 L 701.089844 269.757812 C 700.792969 270.644531 693.710938 291.664062 686.839844 302.3125 C 663.507812 338.453125 617.113281 357.988281 552.675781 358.8125 C 551.207031 358.835938 549.746094 358.84375 548.296875 358.84375 Z M 463.003906 340.078125 L 464.496094 340.4375 C 464.90625 340.539062 505.832031 350.328125 552.738281 349.722656 C 595.382812 349.15625 651.9375 339.613281 679.199219 297.382812 C 683.769531 290.300781 688.714844 277.382812 691.070312 270.863281 C 672.878906 263.335938 596.851562 232.367188 566.574219 227.925781 C 519.136719 220.964844 481.011719 249.398438 460.535156 264.675781 C 449.878906 272.625 444.53125 276.613281 439.722656 275.378906 C 437.796875 274.882812 436.265625 273.574219 435.40625 271.691406 C 433.261719 266.988281 432.933594 260.332031 432.589844 253.285156 C 432.234375 246.074219 431.832031 237.902344 429.277344 233.382812 C 425.742188 227.136719 407.59375 224.75 386.078125 235.058594 C 372.675781 241.476562 363.847656 249.777344 361.222656 258.429688 C 359.890625 262.828125 360.261719 267.117188 362.269531 270.5 C 368.328125 280.710938 386.816406 275.253906 387.003906 275.195312 L 393.398438 273.257812 L 392.859375 279.917969 C 392.835938 280.214844 391.363281 299.660156 397.355469 319.617188 C 400.789062 331.058594 407.023438 338.9375 415.882812 343.03125 C 435.3125 352.015625 461.339844 340.804688 461.601562 340.691406 Z M 463.003906 340.078125 " fill-opacity="1" fill-rule="nonzero"/><path fill="#371a45" d="M 396.027344 256.597656 C 395.578125 258.503906 395.167969 260.492188 394.800781 262.453125 C 394.429688 264.421875 394.105469 266.394531 393.824219 268.359375 C 393.261719 272.292969 392.890625 276.230469 392.847656 280.03125 C 392.816406 282.550781 390.75 284.574219 388.226562 284.542969 C 385.707031 284.515625 383.6875 282.449219 383.714844 279.925781 C 383.71875 279.644531 383.746094 279.371094 383.800781 279.101562 L 383.808594 279.0625 C 384.667969 274.785156 385.847656 270.726562 387.195312 266.761719 C 387.871094 264.777344 388.582031 262.820312 389.335938 260.882812 C 390.09375 258.9375 390.871094 257.042969 391.730469 255.101562 C 392.242188 253.949219 393.589844 253.429688 394.738281 253.941406 C 395.757812 254.390625 396.28125 255.496094 396.035156 256.542969 Z M 396.027344 256.597656 " fill-opacity="1" fill-rule="nonzero"/><path fill="#371a45" d="M 448.417969 273.132812 C 446.554688 274.378906 444.59375 275.796875 442.722656 277.203125 C 440.839844 278.625 438.988281 280.085938 437.167969 281.59375 C 433.542969 284.609375 430.066406 287.800781 426.960938 291.28125 L 426.933594 291.308594 C 426.097656 292.246094 424.65625 292.328125 423.714844 291.488281 C 422.871094 290.734375 422.722656 289.480469 423.320312 288.558594 C 426.035156 284.339844 429.140625 280.4375 432.410156 276.714844 C 434.046875 274.855469 435.730469 273.035156 437.453125 271.253906 C 439.191406 269.460938 440.902344 267.75 442.808594 265.984375 C 444.65625 264.273438 447.539062 264.386719 449.25 266.238281 C 450.960938 268.085938 450.847656 270.96875 449 272.683594 C 448.828125 272.84375 448.648438 272.984375 448.457031 273.113281 Z M 448.417969 273.132812 " fill-opacity="1" fill-rule="nonzero"/><path fill="#ffffff" d="M 469.585938 305.546875 C 475.324219 327.128906 485.398438 347.171875 498.316406 354.207031 C 498.316406 354.207031 511.609375 360.742188 530.195312 351.378906 C 530.195312 351.378906 503.914062 335.976562 497 298.75 C 496.769531 297.511719 496.554688 296.304688 496.351562 295.113281 C 488.375 249.699219 494.601562 234.46875 494.601562 234.46875 C 494.601562 234.46875 482.242188 228.46875 471.097656 239.992188 C 461.984375 249.417969 462.429688 278.667969 469.585938 305.546875 Z M 469.585938 305.546875 " fill-opacity="1" fill-rule="nonzero"/><path fill="#371a45" d="M 469.585938 305.546875 C 475.324219 327.128906 485.398438 347.171875 498.316406 354.207031 C 498.316406 354.207031 511.609375 360.742188 530.195312 351.378906 C 530.195312 351.378906 503.914062 335.976562 497 298.75 C 496.769531 297.511719 496.554688 296.304688 496.351562 295.113281 C 493.386719 299.667969 488.558594 305.226562 481.648438 307.363281 C 477.675781 308.59375 473.46875 307.535156 469.585938 305.546875 Z M 469.585938 305.546875 " fill-opacity="0.35" fill-rule="nonzero"/><path fill="#371a45" d="M 510.296875 360.96875 C 501.929688 360.96875 496.683594 358.464844 496.316406 358.285156 L 496.152344 358.199219 C 476.757812 347.648438 465.320312 314.132812 461.417969 288.640625 C 460.015625 279.496094 456.339844 248.71875 467.828125 236.832031 C 481.109375 223.097656 495.960938 230.074219 496.585938 230.378906 L 500.417969 232.242188 L 498.804688 236.1875 C 498.765625 236.292969 492.996094 252.28125 501.472656 297.921875 C 507.890625 332.5 532.253906 347.308594 532.5 347.457031 L 539.636719 351.6875 L 532.238281 355.429688 C 523.773438 359.703125 516.246094 360.96875 510.296875 360.96875 Z M 500.378906 350.152344 C 501.199219 350.523438 509.164062 353.859375 521.003906 350.210938 C 512.207031 342.730469 497.558594 326.652344 492.53125 299.582031 C 486 264.410156 487.59375 245.65625 489.121094 237.613281 C 485.566406 237.101562 479.824219 237.5 474.359375 243.152344 C 468.828125 248.875 467.234375 266.601562 470.398438 287.265625 C 474.964844 317.09375 487.28125 342.921875 500.378906 350.152344 Z M 500.378906 350.152344 " fill-opacity="1" fill-rule="nonzero"/><path fill="#293856" d="M 685.609375 281.785156 C 687.214844 284.394531 688.769531 287.027344 690.265625 289.6875 C 688.773438 287.019531 687.214844 284.386719 685.609375 281.785156 Z M 685.609375 281.785156 " fill-opacity="0.3" fill-rule="nonzero"/><path fill="#293856" d="M 683.019531 277.6875 C 681.261719 274.96875 679.441406 272.285156 677.554688 269.644531 C 679.4375 272.292969 681.257812 274.980469 683.019531 277.6875 Z M 683.019531 277.6875 " fill-opacity="0.3" fill-rule="nonzero"/><path fill="#293856" d="M 671.707031 261.796875 C 673.71875 264.382812 675.667969 266.992188 677.554688 269.640625 C 675.671875 266.984375 673.726562 264.359375 671.707031 261.796875 Z M 671.707031 261.796875 " fill-opacity="0.3" fill-rule="nonzero"/><path fill="#371a45" d="M 523.070312 226.039062 C 526.46875 232.597656 530.421875 238.984375 534.953125 245.109375 C 559.597656 278.441406 596.269531 297.636719 634.542969 301.101562 C 644.550781 302.011719 654.664062 301.851562 664.707031 300.578125 C 667.351562 300.238281 669.988281 299.828125 672.625 299.351562 C 676.78125 298.566406 680.925781 297.601562 685.03125 296.441406 C 688.050781 295.589844 691.0625 294.621094 694.039062 293.554688 C 699.855469 291.472656 705.640625 289.078125 711.179688 286.078125 C 726.679688 277.6875 757.511719 217.015625 757.511719 217.015625 L 628.941406 235.9375 C 628.941406 235.9375 628.792969 238.039062 628.691406 241.6875 C 605.320312 233.222656 581.472656 225.515625 567.230469 223.425781 C 551.324219 221.097656 536.535156 222.503906 523.070312 226.039062 Z M 523.070312 226.039062 " fill-opacity="0.35" fill-rule="nonzero"/><path fill="#ffffff" d="M 781.734375 180.804688 C 775.671875 203.324219 763.957031 224.421875 746.9375 241.820312 C 743.46875 245.367188 739.789062 248.757812 735.894531 251.96875 C 734.003906 253.539062 732.039062 255.0625 730.035156 256.5625 C 723.972656 261.046875 717.671875 264.964844 711.179688 268.324219 C 705.59375 271.234375 699.859375 273.722656 694.042969 275.808594 C 687.023438 278.332031 679.859375 280.253906 672.632812 281.601562 C 669.996094 282.082031 667.355469 282.496094 664.710938 282.832031 C 616.277344 288.949219 566.050781 269.425781 534.960938 227.367188 C 489.148438 165.414062 502.222656 78.046875 564.140625 32.222656 C 576.070312 23.40625 588.949219 16.746094 602.289062 12.234375 C 603.84375 11.691406 605.421875 11.191406 607.003906 10.730469 C 611.234375 9.457031 615.5 8.390625 619.789062 7.539062 C 629.710938 5.5625 639.773438 4.699219 649.769531 4.902344 C 659.765625 5.097656 669.722656 6.367188 679.429688 8.683594 C 682.519531 9.414062 685.582031 10.253906 688.621094 11.199219 C 693.179688 12.625 697.667969 14.269531 702.082031 16.171875 C 724.085938 25.578125 743.960938 40.785156 759.21875 61.425781 C 785.570312 97.054688 792.433594 141.09375 781.734375 180.804688 Z M 781.734375 180.804688 " fill-opacity="1" fill-rule="nonzero"/><path fill="#371a45" d="M 647.230469 284.386719 C 603.164062 284.386719 561.148438 263.558594 534.59375 227.632812 C 488.707031 165.585938 501.839844 77.761719 563.863281 31.855469 C 575.636719 23.15625 588.515625 16.410156 602.140625 11.800781 C 603.628906 11.285156 605.175781 10.789062 606.871094 10.292969 C 611.085938 9.023438 615.398438 7.945312 619.695312 7.089844 C 629.550781 5.128906 639.6875 4.238281 649.773438 4.445312 C 659.777344 4.640625 669.789062 5.917969 679.53125 8.238281 C 682.660156 8.984375 685.761719 9.832031 688.753906 10.765625 C 693.417969 12.222656 697.960938 13.902344 702.257812 15.753906 C 724.984375 25.464844 744.804688 41.164062 759.582031 61.152344 C 785.136719 95.703125 793.371094 139.363281 782.175781 180.925781 C 775.96875 203.96875 763.894531 225.136719 747.265625 242.140625 C 743.742188 245.738281 740.011719 249.164062 736.183594 252.324219 C 734.421875 253.785156 732.5 255.292969 730.308594 256.929688 C 724.3125 261.367188 717.949219 265.335938 711.386719 268.730469 C 705.902344 271.589844 700.117188 274.117188 694.195312 276.238281 C 687.265625 278.730469 680.039062 280.6875 672.714844 282.046875 C 670.085938 282.527344 667.414062 282.945312 664.765625 283.285156 C 658.90625 284.019531 653.046875 284.386719 647.230469 284.386719 Z M 646.910156 5.320312 C 637.820312 5.320312 628.738281 6.214844 619.875 7.976562 C 615.609375 8.828125 611.320312 9.898438 607.132812 11.160156 C 605.449219 11.65625 603.914062 12.144531 602.4375 12.660156 C 588.898438 17.238281 576.105469 23.941406 564.40625 32.582031 C 502.785156 78.191406 489.734375 165.445312 535.324219 227.089844 C 565.1875 267.492188 614.753906 288.671875 664.652344 282.378906 C 667.285156 282.039062 669.941406 281.625 672.550781 281.148438 C 679.824219 279.792969 687.003906 277.855469 693.886719 275.378906 C 699.773438 273.269531 705.519531 270.757812 710.96875 267.921875 C 717.484375 264.546875 723.808594 260.605469 729.765625 256.195312 C 731.941406 254.570312 733.847656 253.074219 735.601562 251.617188 C 739.40625 248.480469 743.113281 245.078125 746.613281 241.5 C 763.132812 224.609375 775.128906 203.578125 781.296875 180.6875 L 781.734375 180.804688 L 781.296875 180.6875 C 792.417969 139.390625 784.238281 96.019531 758.847656 61.6875 C 744.171875 41.832031 724.476562 26.234375 701.898438 16.585938 C 697.628906 14.746094 693.113281 13.078125 688.484375 11.628906 C 685.515625 10.703125 682.433594 9.859375 679.320312 9.117188 C 669.644531 6.8125 659.695312 5.542969 649.753906 5.351562 C 648.804688 5.332031 647.859375 5.320312 646.910156 5.320312 Z M 646.910156 5.320312 " fill-opacity="1" fill-rule="nonzero"/><path fill="#371a45" d="M 781.734375 180.800781 C 775.667969 203.320312 763.953125 224.417969 746.9375 241.816406 C 743.464844 245.363281 739.789062 248.75 735.890625 251.964844 C 734 253.535156 732.035156 255.058594 730.035156 256.558594 C 723.972656 261.042969 717.667969 264.960938 711.179688 268.320312 C 705.589844 271.230469 699.855469 273.714844 694.039062 275.804688 C 687.019531 278.328125 679.855469 280.25 672.632812 281.59375 C 669.996094 282.078125 667.351562 282.488281 664.707031 282.828125 C 616.273438 288.941406 566.046875 269.421875 534.957031 227.359375 C 518.355469 204.90625 509.480469 179.105469 507.875 153.164062 C 512.125 163.328125 517.652344 173.160156 524.5 182.417969 C 536.160156 198.191406 551.058594 202.015625 566.996094 211.285156 C 593.558594 226.734375 623.976562 241.707031 654.253906 237.886719 C 656.898438 237.546875 659.539062 237.136719 662.175781 236.652344 C 669.398438 235.308594 676.5625 233.390625 683.585938 230.863281 C 689.398438 228.777344 695.136719 226.289062 700.722656 223.378906 C 707.214844 220.019531 713.519531 216.101562 719.578125 211.617188 C 721.582031 210.117188 723.542969 208.59375 725.433594 207.023438 C 729.332031 203.808594 733.007812 200.421875 736.480469 196.875 C 753.496094 179.476562 765.210938 158.378906 771.277344 135.859375 C 775.230469 121.164062 776.785156 105.878906 775.832031 90.648438 C 787.953125 119.628906 789.65625 151.402344 781.734375 180.800781 Z M 781.734375 180.800781 " fill-opacity="0.35" fill-rule="nonzero"/><path fill="#371a45" d="M 647.234375 287.015625 C 602.335938 287.015625 559.53125 265.796875 532.476562 229.199219 C 485.730469 165.988281 499.109375 76.507812 562.300781 29.742188 C 574.292969 20.878906 587.414062 14.003906 601.296875 9.308594 C 602.804688 8.785156 604.394531 8.277344 606.128906 7.765625 C 610.40625 6.476562 614.804688 5.378906 619.183594 4.507812 C 629.226562 2.507812 639.542969 1.601562 649.828125 1.8125 C 660.019531 2.007812 670.21875 3.308594 680.144531 5.675781 C 683.328125 6.429688 686.492188 7.300781 689.535156 8.246094 C 694.285156 9.730469 698.914062 11.441406 703.296875 13.332031 C 726.445312 23.222656 746.640625 39.21875 761.691406 59.582031 C 787.726562 94.78125 796.117188 139.261719 784.710938 181.605469 C 778.386719 205.085938 766.085938 226.652344 749.140625 243.976562 C 745.550781 247.640625 741.753906 251.128906 737.851562 254.347656 C 736.0625 255.835938 734.101562 257.367188 731.878906 259.03125 C 725.761719 263.558594 719.273438 267.605469 712.59375 271.0625 C 707.007812 273.972656 701.113281 276.546875 695.078125 278.710938 C 688.015625 281.25 680.652344 283.242188 673.191406 284.628906 C 670.511719 285.117188 667.792969 285.542969 665.097656 285.886719 C 659.132812 286.644531 653.164062 287.015625 647.234375 287.015625 Z M 646.910156 7.953125 C 637.992188 7.953125 629.082031 8.824219 620.386719 10.554688 C 616.203125 11.390625 611.996094 12.4375 607.890625 13.679688 C 606.230469 14.164062 604.738281 14.640625 603.300781 15.140625 C 589.996094 19.640625 577.445312 26.21875 565.96875 34.699219 C 505.511719 79.445312 492.710938 165.050781 537.4375 225.527344 C 566.738281 265.167969 615.351562 285.957031 664.324219 279.769531 C 666.902344 279.4375 669.511719 279.03125 672.078125 278.5625 C 679.203125 277.234375 686.246094 275.332031 692.996094 272.902344 C 698.773438 270.832031 704.410156 268.367188 709.753906 265.585938 C 716.152344 262.273438 722.355469 258.40625 728.199219 254.082031 C 730.328125 252.488281 732.203125 251.019531 733.925781 249.59375 C 737.664062 246.507812 741.296875 243.171875 744.734375 239.660156 C 760.941406 223.089844 772.707031 202.460938 778.757812 180.003906 C 789.667969 139.488281 781.640625 96.9375 756.734375 63.257812 C 742.335938 43.773438 723.015625 28.472656 700.867188 19.007812 C 696.671875 17.199219 692.242188 15.5625 687.699219 14.144531 C 684.792969 13.238281 681.765625 12.410156 678.714844 11.683594 C 669.21875 9.417969 659.457031 8.175781 649.707031 7.984375 C 648.773438 7.960938 647.839844 7.953125 646.910156 7.953125 Z M 781.734375 180.804688 L 781.75 180.804688 Z M 781.734375 180.804688 " fill-opacity="1" fill-rule="nonzero"/><g clip-path="url(#9358c5557a)"><path fill="#371a45" d="M 647.238281 288.472656 C 601.875 288.472656 558.636719 267.039062 531.304688 230.0625 C 484.078125 166.207031 497.59375 75.8125 561.433594 28.566406 C 573.546875 19.609375 586.804688 12.667969 600.828125 7.921875 C 602.347656 7.394531 603.957031 6.878906 605.71875 6.359375 C 610.03125 5.0625 614.472656 3.953125 618.894531 3.070312 C 629.042969 1.050781 639.457031 0.136719 649.859375 0.351562 C 660.152344 0.550781 670.457031 1.863281 680.480469 4.253906 C 683.699219 5.015625 686.890625 5.890625 689.972656 6.851562 C 694.769531 8.355469 699.445312 10.082031 703.875 11.988281 C 727.257812 21.980469 747.660156 38.140625 762.867188 58.714844 C 789.167969 94.277344 797.644531 139.207031 786.125 181.988281 C 779.734375 205.707031 767.308594 227.492188 750.183594 245 C 746.5625 248.703125 742.722656 252.226562 738.78125 255.476562 C 736.972656 256.976562 735 258.527344 732.757812 260.203125 C 726.570312 264.78125 720.019531 268.867188 713.265625 272.363281 C 707.628906 275.300781 701.671875 277.902344 695.574219 280.085938 C 688.441406 282.648438 681 284.664062 673.464844 286.066406 C 670.75 286.5625 668.007812 286.988281 665.285156 287.339844 C 659.257812 288.101562 653.226562 288.472656 647.238281 288.472656 Z M 646.910156 9.414062 C 638.085938 9.414062 629.273438 10.277344 620.671875 11.992188 C 616.535156 12.816406 612.375 13.855469 608.3125 15.078125 C 606.667969 15.5625 605.195312 16.03125 603.78125 16.523438 C 590.609375 20.980469 578.191406 27.484375 566.835938 35.875 C 507.027344 80.140625 494.363281 164.828125 538.613281 224.660156 C 567.597656 263.875 615.699219 284.433594 664.140625 278.320312 C 666.691406 277.992188 669.277344 277.589844 671.816406 277.125 C 678.859375 275.816406 685.828125 273.929688 692.503906 271.53125 C 698.21875 269.484375 703.792969 267.046875 709.082031 264.292969 C 715.417969 261.015625 721.550781 257.1875 727.332031 252.910156 C 729.4375 251.335938 731.292969 249.878906 732.996094 248.472656 C 736.699219 245.417969 740.292969 242.113281 743.695312 238.640625 C 759.726562 222.25 771.367188 201.839844 777.347656 179.625 C 788.144531 139.539062 780.207031 97.445312 755.5625 64.125 C 741.3125 44.847656 722.203125 29.710938 700.292969 20.347656 C 696.140625 18.558594 691.761719 16.941406 687.261719 15.539062 C 684.386719 14.640625 681.394531 13.820312 678.375 13.101562 C 668.984375 10.863281 659.328125 9.632812 649.675781 9.445312 C 648.753906 9.421875 647.832031 9.414062 646.910156 9.414062 Z M 781.734375 180.804688 L 781.75 180.804688 Z M 781.734375 180.804688 " fill-opacity="1" fill-rule="nonzero"/></g><path fill="#371a45" d="M 768.089844 213.847656 C 701.78125 288.308594 584.230469 274.382812 555.746094 179.816406 C 536.367188 115.480469 584.382812 46.824219 647.34375 32.167969 C 693.171875 21.496094 742.578125 31.132812 778.574219 97.75 C 778.574219 97.75 789.957031 129.707031 786.253906 153.65625 C 782.550781 177.613281 774.90625 200.285156 774.90625 200.285156 Z M 768.089844 213.847656 " fill-opacity="1" fill-rule="nonzero"/><path fill="#111a28" d="M 778.574219 97.75 C 777.203125 95.214844 775.808594 92.773438 774.402344 90.398438 C 776.285156 100.484375 777.484375 112.261719 775.894531 122.570312 C 772.1875 146.523438 764.546875 169.195312 764.546875 169.195312 L 757.730469 182.757812 C 696.230469 251.820312 590.65625 244.832031 552.945312 168 C 553.636719 171.945312 554.5625 175.886719 555.746094 179.816406 C 584.230469 274.382812 701.78125 288.308594 768.089844 213.847656 L 774.90625 200.285156 C 774.90625 200.285156 782.550781 177.617188 786.253906 153.660156 C 789.957031 129.707031 778.574219 97.75 778.574219 97.75 Z M 778.574219 97.75 " fill-opacity="0.35" fill-rule="nonzero"/><path fill="#371a45" d="M 665.101562 279.703125 C 642.957031 279.703125 621.324219 274.675781 602.242188 264.757812 C 570.988281 248.515625 548.765625 220.996094 537.976562 185.179688 C 528.046875 152.214844 532.832031 116.339844 551.449219 84.171875 C 571.699219 49.171875 606.214844 23.054688 643.769531 14.308594 C 664.851562 9.398438 684.722656 8.746094 702.839844 12.355469 L 703.234375 12.433594 L 703.605469 12.59375 C 726.890625 22.542969 747.203125 38.628906 762.339844 59.109375 C 788.519531 94.507812 796.957031 139.234375 785.488281 181.816406 C 779.128906 205.421875 766.761719 227.113281 749.71875 244.539062 C 746.109375 248.222656 742.289062 251.730469 738.367188 254.964844 C 736.5625 256.460938 734.597656 258.003906 732.363281 259.675781 C 726.207031 264.230469 719.6875 268.296875 712.964844 271.777344 L 712.402344 272.015625 C 696.875 277.15625 680.855469 279.703125 665.101562 279.703125 Z M 678.925781 17.832031 C 668.273438 17.832031 657.105469 19.183594 645.53125 21.878906 C 610.027344 30.144531 577.367188 54.886719 558.167969 88.0625 C 540.640625 118.355469 536.109375 152.050781 545.414062 182.933594 C 555.585938 216.695312 576.476562 242.601562 605.824219 257.855469 C 636.554688 273.824219 674.382812 276.328125 709.667969 264.726562 C 715.925781 261.46875 721.996094 257.667969 727.722656 253.433594 C 729.835938 251.851562 731.703125 250.386719 733.414062 248.972656 C 737.132812 245.902344 740.75 242.582031 744.164062 239.09375 C 760.273438 222.621094 771.96875 202.113281 777.984375 179.785156 C 788.832031 139.507812 780.851562 97.207031 756.089844 63.722656 C 741.851562 44.460938 722.785156 29.3125 700.921875 19.894531 C 693.878906 18.523438 686.53125 17.832031 678.925781 17.832031 Z M 781.734375 180.804688 L 781.75 180.804688 Z M 781.734375 180.804688 " fill-opacity="1" fill-rule="nonzero"/><path fill="#371a45" d="M 665.570312 266.0625 C 656.394531 266.0625 647.210938 265.085938 638.15625 263.082031 C 595.890625 253.738281 564.269531 223.867188 551.394531 181.125 C 542.476562 151.507812 546.769531 119.289062 563.480469 90.402344 C 581.648438 59.011719 612.613281 35.585938 646.316406 27.738281 C 705.015625 14.070312 750.859375 36.898438 782.570312 95.589844 L 782.851562 96.226562 C 783.335938 97.574219 794.578125 129.546875 790.742188 154.355469 C 787.023438 178.417969 779.527344 200.796875 779.210938 201.738281 L 778.964844 202.332031 L 771.878906 216.425781 L 771.480469 216.871094 C 743.367188 248.445312 704.539062 266.0625 665.570312 266.0625 Z M 677.453125 33.066406 C 668.171875 33.066406 658.484375 34.242188 648.375 36.59375 C 617.074219 43.882812 588.277344 65.699219 571.347656 94.957031 C 555.90625 121.644531 551.910156 151.316406 560.097656 178.503906 C 571.992188 218 601.160156 245.59375 640.121094 254.207031 C 684.226562 263.960938 731.757812 247.511719 764.300781 211.269531 L 770.695312 198.539062 C 771.59375 195.820312 778.390625 174.785156 781.761719 152.964844 C 785.054688 131.675781 775.539062 102.914062 774.402344 99.589844 C 750.398438 55.347656 717.867188 33.066406 677.453125 33.066406 Z M 768.089844 213.847656 L 768.101562 213.847656 Z M 768.089844 213.847656 " fill-opacity="1" fill-rule="nonzero"/><path fill="#ffffff" d="M 566.230469 179.046875 C 566.265625 179.246094 566.304688 179.453125 566.328125 179.648438 C 570.757812 206.515625 558.46875 230.199219 538.710938 232.691406 C 518.808594 235.214844 498.859375 215.257812 494.144531 188.136719 C 490.519531 167.214844 497.023438 148.125 509.34375 139.363281 C 512.976562 136.761719 517.125 135.058594 521.660156 134.492188 C 541.566406 131.984375 561.527344 151.9375 566.230469 179.046875 Z M 566.230469 179.046875 " fill-opacity="1" fill-rule="nonzero"/><path fill="#371a45" d="M 566.328125 179.648438 C 570.757812 206.515625 558.46875 230.199219 538.710938 232.691406 C 518.808594 235.214844 498.859375 215.257812 494.144531 188.136719 C 493.359375 183.59375 493.046875 179.140625 493.171875 174.855469 C 493.699219 156.640625 517.03125 149.339844 528.148438 163.773438 L 540.109375 179.308594 C 540.109375 179.308594 547.210938 189.886719 558.449219 187.824219 C 562.265625 187.125 564.730469 183.773438 566.328125 179.648438 Z M 566.328125 179.648438 " fill-opacity="0.35" fill-rule="nonzero"/><path fill="#371a45" d="M 535.382812 237.449219 C 514.492188 237.449219 494.484375 216.628906 489.671875 188.917969 C 486.703125 171.835938 489.894531 155.414062 498.429688 143.871094 C 504.308594 135.917969 512.144531 131.117188 521.09375 129.988281 C 543.324219 127.167969 565.597656 148.84375 570.707031 178.273438 C 573.675781 195.359375 570.484375 211.777344 561.949219 223.320312 C 556.070312 231.273438 548.234375 236.078125 539.285156 237.203125 C 537.988281 237.367188 536.683594 237.449219 535.382812 237.449219 Z M 525.109375 138.828125 C 524.152344 138.828125 523.191406 138.886719 522.234375 139.007812 C 515.808594 139.820312 510.105469 143.371094 505.738281 149.277344 C 498.777344 158.691406 496.121094 172.929688 498.625 187.363281 C 502.679688 210.722656 518.746094 228.363281 535.269531 228.367188 C 536.230469 228.367188 537.1875 228.304688 538.148438 228.183594 C 544.570312 227.375 550.273438 223.824219 554.640625 217.917969 C 561.601562 208.5 564.257812 194.261719 561.753906 179.828125 C 557.699219 156.464844 541.636719 138.828125 525.109375 138.828125 Z M 525.109375 138.828125 " fill-opacity="1" fill-rule="nonzero"/><path fill="#ffffff" d="M 547.792969 181.582031 C 548.121094 182.820312 548.402344 184.0625 548.632812 185.316406 C 548.867188 186.570312 549.054688 187.828125 549.191406 189.089844 C 549.328125 190.347656 549.417969 191.605469 549.460938 192.859375 C 549.503906 194.113281 549.496094 195.359375 549.4375 196.59375 C 549.382812 197.832031 549.277344 199.054688 549.125 200.257812 C 548.972656 201.464844 548.773438 202.652344 548.527344 203.816406 C 548.277344 204.980469 547.984375 206.121094 547.644531 207.230469 C 547.304688 208.34375 546.917969 209.425781 546.488281 210.472656 C 546.058594 211.519531 545.585938 212.535156 545.070312 213.507812 C 544.554688 214.484375 544 215.417969 543.402344 216.308594 C 542.808594 217.203125 542.171875 218.046875 541.503906 218.847656 C 540.832031 219.648438 540.128906 220.402344 539.390625 221.101562 C 538.652344 221.804688 537.882812 222.453125 537.082031 223.046875 C 536.28125 223.644531 535.453125 224.183594 534.601562 224.667969 C 533.75 225.148438 532.871094 225.574219 531.972656 225.941406 C 531.074219 226.3125 530.160156 226.617188 529.222656 226.867188 C 528.289062 227.113281 527.339844 227.300781 526.378906 227.425781 C 525.414062 227.550781 524.441406 227.613281 523.460938 227.613281 C 522.480469 227.617188 521.496094 227.554688 520.507812 227.433594 C 519.515625 227.3125 518.527344 227.128906 517.539062 226.886719 C 516.550781 226.640625 515.566406 226.335938 514.585938 225.972656 C 513.609375 225.609375 512.640625 225.1875 511.679688 224.707031 C 510.722656 224.226562 509.777344 223.6875 508.847656 223.097656 C 507.917969 222.503906 507.007812 221.859375 506.113281 221.160156 C 505.222656 220.460938 504.351562 219.710938 503.507812 218.914062 C 502.660156 218.117188 501.84375 217.273438 501.050781 216.382812 C 500.261719 215.492188 499.5 214.5625 498.769531 213.589844 C 498.042969 212.613281 497.347656 211.605469 496.6875 210.558594 C 496.027344 209.511719 495.40625 208.433594 494.820312 207.324219 C 494.238281 206.210938 493.695312 205.074219 493.191406 203.910156 C 492.6875 202.746094 492.226562 201.5625 491.8125 200.359375 C 491.394531 199.152344 491.023438 197.933594 490.695312 196.695312 C 490.371094 195.460938 490.089844 194.214844 489.855469 192.960938 C 489.621094 191.707031 489.4375 190.453125 489.296875 189.191406 C 489.160156 187.929688 489.070312 186.675781 489.027344 185.421875 C 488.988281 184.167969 488.996094 182.921875 489.050781 181.683594 C 489.105469 180.449219 489.210938 179.226562 489.363281 178.019531 C 489.515625 176.816406 489.714844 175.628906 489.964844 174.464844 C 490.210938 173.300781 490.503906 172.160156 490.847656 171.046875 C 491.1875 169.9375 491.570312 168.855469 492 167.808594 C 492.433594 166.757812 492.90625 165.746094 493.417969 164.773438 C 493.933594 163.796875 494.492188 162.863281 495.085938 161.972656 C 495.683594 161.078125 496.316406 160.230469 496.988281 159.429688 C 497.65625 158.628906 498.363281 157.878906 499.101562 157.179688 C 499.839844 156.476562 500.609375 155.828125 501.410156 155.234375 C 502.207031 154.636719 503.035156 154.097656 503.886719 153.613281 C 504.742188 153.128906 505.617188 152.703125 506.515625 152.335938 C 507.414062 151.96875 508.332031 151.664062 509.265625 151.414062 C 510.199219 151.167969 511.148438 150.980469 512.113281 150.855469 C 513.074219 150.730469 514.046875 150.667969 515.027344 150.664062 C 516.007812 150.664062 516.992188 150.722656 517.984375 150.84375 C 518.972656 150.96875 519.960938 151.148438 520.949219 151.394531 C 521.941406 151.640625 522.921875 151.941406 523.902344 152.308594 C 524.878906 152.671875 525.847656 153.09375 526.808594 153.574219 C 527.765625 154.054688 528.710938 154.589844 529.640625 155.183594 C 530.570312 155.777344 531.484375 156.421875 532.375 157.121094 C 533.269531 157.820312 534.136719 158.566406 534.984375 159.367188 C 535.828125 160.164062 536.648438 161.007812 537.4375 161.898438 C 538.230469 162.789062 538.988281 163.71875 539.71875 164.691406 C 540.449219 165.664062 541.140625 166.675781 541.800781 167.722656 C 542.460938 168.769531 543.082031 169.847656 543.667969 170.957031 C 544.25 172.066406 544.796875 173.207031 545.296875 174.367188 C 545.800781 175.53125 546.261719 176.71875 546.679688 177.921875 C 547.09375 179.128906 547.464844 180.347656 547.792969 181.582031 Z M 547.792969 181.582031 " fill-opacity="1" fill-rule="nonzero"/><path fill="#371a45" d="M 523.398438 228.082031 C 521.664062 228.082031 519.90625 227.890625 518.148438 227.507812 C 508.75 225.457031 500.152344 218.285156 494.5625 207.828125 C 484.511719 189.023438 487.363281 165.328125 500.925781 155.011719 C 506.511719 150.765625 513.40625 149.257812 520.347656 150.773438 C 529.75 152.824219 538.34375 159.996094 543.933594 170.453125 C 553.984375 189.257812 551.132812 212.949219 537.574219 223.265625 C 533.402344 226.4375 528.503906 228.082031 523.398438 228.082031 Z M 514.992188 151.117188 C 510.125 151.117188 505.53125 152.683594 501.488281 155.757812 C 488.28125 165.808594 485.546875 188.96875 495.390625 207.386719 C 500.847656 217.597656 509.21875 224.597656 518.347656 226.589844 C 525.113281 228.066406 531.5625 226.660156 537.007812 222.519531 C 550.214844 212.46875 552.949219 189.308594 543.105469 170.890625 C 537.644531 160.679688 529.277344 153.679688 520.148438 151.6875 C 518.40625 151.304688 516.683594 151.117188 514.992188 151.117188 Z M 514.992188 151.117188 " fill-opacity="1" fill-rule="nonzero"/><path fill="#371a45" d="M 549.996094 199.816406 C 550.550781 192.335938 549.058594 184.671875 546.070312 177.753906 C 543.363281 194.710938 529.949219 203.765625 514.859375 198.171875 C 505.105469 194.5625 496.902344 185.65625 492.28125 174.945312 C 492.101562 176.015625 491.980469 177.125 491.894531 178.261719 C 490.488281 197.3125 501.609375 219.792969 517.65625 225.742188 C 533.699219 231.695312 548.585938 218.859375 549.996094 199.816406 Z M 549.996094 199.816406 " fill-opacity="0.35" fill-rule="nonzero"/><path fill="#371a45" d="M 523.886719 233.390625 C 507.234375 233.390625 491.519531 216.195312 487.347656 192.71875 C 484.769531 178.199219 487.363281 163.957031 494.292969 154.621094 C 498.769531 148.589844 504.695312 144.984375 511.429688 144.1875 C 529.089844 142.105469 546.386719 159.894531 550.789062 184.695312 C 553.371094 199.214844 550.773438 213.457031 543.847656 222.789062 C 539.367188 228.820312 533.445312 232.429688 526.710938 233.222656 C 525.765625 233.332031 524.820312 233.386719 523.886719 233.390625 Z M 514.175781 153.117188 C 513.613281 153.117188 513.050781 153.148438 512.488281 153.214844 C 507.199219 153.839844 503.640625 157.269531 501.585938 160.039062 C 496.121094 167.402344 494.140625 179.023438 496.292969 191.125 C 499.742188 210.519531 513.164062 225.667969 525.640625 224.191406 C 530.929688 223.566406 534.492188 220.132812 536.546875 217.367188 C 542.011719 210.003906 543.988281 198.382812 541.835938 186.28125 C 538.546875 167.761719 526.144531 153.117188 514.175781 153.117188 Z M 514.175781 153.117188 " fill-opacity="1" fill-rule="nonzero"/><path fill="#ffffff" d="M 693.195312 52.988281 C 692.230469 52.042969 697.191406 52.398438 697.191406 52.398438 L 700.613281 52.019531 C 700.613281 52.019531 706.738281 51.609375 709.785156 51.625 C 712.863281 51.640625 715.925781 51.804688 718.96875 52.117188 C 722.625 52.488281 726.128906 53.84375 728.988281 56.148438 C 741.128906 65.929688 751.277344 78.578125 758.300781 93.671875 C 772.386719 123.96875 770.347656 149.457031 757.617188 175.957031 C 757.617188 175.957031 757.71875 158.566406 745.128906 126.480469 C 738.085938 108.53125 728.09375 87.015625 693.195312 52.988281 Z M 693.195312 52.988281 " fill-opacity="0.7" fill-rule="nonzero"/><g mask="url(#77bf4c319e)"><g transform="matrix(1, 0, 0, 1, 581, 116)"><g clip-path="url(#ffc3474179)"><path fill="#ffffff" d="M 42.496094 21.40625 C 42.675781 22.097656 42.828125 22.789062 42.953125 23.488281 C 43.074219 24.191406 43.167969 24.894531 43.230469 25.597656 C 43.296875 26.304688 43.328125 27.007812 43.332031 27.710938 C 43.335938 28.414062 43.308594 29.117188 43.25 29.8125 C 43.191406 30.507812 43.105469 31.195312 42.984375 31.875 C 42.867188 32.554688 42.722656 33.226562 42.542969 33.882812 C 42.367188 34.542969 42.164062 35.1875 41.929688 35.820312 C 41.695312 36.449219 41.433594 37.0625 41.144531 37.660156 C 40.855469 38.257812 40.542969 38.835938 40.203125 39.390625 C 39.859375 39.949219 39.496094 40.484375 39.105469 40.996094 C 38.714844 41.507812 38.304688 41.996094 37.867188 42.457031 C 37.433594 42.921875 36.980469 43.355469 36.503906 43.761719 C 36.027344 44.171875 35.535156 44.550781 35.023438 44.898438 C 34.507812 45.246094 33.980469 45.566406 33.4375 45.851562 C 32.894531 46.140625 32.339844 46.394531 31.769531 46.617188 C 31.199219 46.84375 30.621094 47.03125 30.027344 47.1875 C 29.4375 47.34375 28.839844 47.464844 28.234375 47.554688 C 27.628906 47.640625 27.019531 47.695312 26.40625 47.714844 C 25.792969 47.734375 25.175781 47.71875 24.558594 47.667969 C 23.941406 47.617188 23.324219 47.53125 22.710938 47.414062 C 22.09375 47.296875 21.484375 47.140625 20.878906 46.957031 C 20.269531 46.769531 19.671875 46.550781 19.078125 46.296875 C 18.488281 46.042969 17.90625 45.761719 17.335938 45.445312 C 16.761719 45.128906 16.203125 44.785156 15.65625 44.40625 C 15.113281 44.03125 14.582031 43.625 14.066406 43.195312 C 13.550781 42.761719 13.054688 42.300781 12.574219 41.816406 C 12.09375 41.332031 11.636719 40.824219 11.195312 40.289062 C 10.757812 39.757812 10.34375 39.203125 9.949219 38.625 C 9.554688 38.050781 9.183594 37.457031 8.839844 36.84375 C 8.492188 36.230469 8.171875 35.601562 7.878906 34.957031 C 7.585938 34.3125 7.320312 33.65625 7.082031 32.984375 C 6.84375 32.316406 6.632812 31.636719 6.449219 30.949219 C 6.265625 30.261719 6.113281 29.566406 5.992188 28.867188 C 5.867188 28.167969 5.773438 27.464844 5.710938 26.757812 C 5.648438 26.054688 5.613281 25.347656 5.613281 24.644531 C 5.609375 23.941406 5.636719 23.242188 5.695312 22.546875 C 5.753906 21.851562 5.839844 21.164062 5.957031 20.480469 C 6.074219 19.800781 6.222656 19.132812 6.398438 18.472656 C 6.574219 17.8125 6.78125 17.167969 7.015625 16.539062 C 7.25 15.90625 7.511719 15.292969 7.796875 14.695312 C 8.085938 14.097656 8.402344 13.523438 8.742188 12.964844 C 9.082031 12.40625 9.449219 11.871094 9.839844 11.359375 C 10.226562 10.847656 10.640625 10.359375 11.074219 9.898438 C 11.511719 9.4375 11.964844 9 12.441406 8.59375 C 12.917969 8.1875 13.410156 7.808594 13.921875 7.457031 C 14.433594 7.109375 14.960938 6.789062 15.503906 6.503906 C 16.050781 6.214844 16.605469 5.960938 17.175781 5.738281 C 17.746094 5.515625 18.324219 5.324219 18.914062 5.167969 C 19.503906 5.011719 20.101562 4.890625 20.707031 4.804688 C 21.3125 4.714844 21.921875 4.660156 22.539062 4.640625 C 23.152344 4.625 23.769531 4.640625 24.386719 4.6875 C 25.003906 4.738281 25.621094 4.824219 26.234375 4.941406 C 26.847656 5.0625 27.460938 5.214844 28.066406 5.402344 C 28.671875 5.585938 29.273438 5.808594 29.863281 6.058594 C 30.457031 6.3125 31.039062 6.597656 31.609375 6.910156 C 32.179688 7.226562 32.738281 7.574219 33.285156 7.949219 C 33.832031 8.324219 34.363281 8.730469 34.878906 9.164062 C 35.394531 9.59375 35.890625 10.054688 36.371094 10.539062 C 36.847656 11.023438 37.308594 11.535156 37.746094 12.066406 C 38.183594 12.601562 38.601562 13.15625 38.996094 13.730469 C 39.390625 14.308594 39.761719 14.902344 40.105469 15.515625 C 40.449219 16.128906 40.769531 16.757812 41.0625 17.402344 C 41.359375 18.046875 41.625 18.703125 41.863281 19.371094 C 42.101562 20.042969 42.3125 20.71875 42.496094 21.40625 Z M 42.496094 21.40625 " fill-opacity="1" fill-rule="nonzero"/></g></g></g><g mask="url(#4c7cd539eb)"><g transform="matrix(1, 0, 0, 1, 602, 175)"><g clip-path="url(#3f0ce05101)"><path fill="#ffffff" d="M 18.296875 9.757812 C 18.496094 10.3125 18.648438 10.878906 18.75 11.457031 C 18.851562 12.03125 18.902344 12.609375 18.902344 13.1875 C 18.902344 13.765625 18.855469 14.332031 18.753906 14.890625 C 18.652344 15.445312 18.507812 15.980469 18.308594 16.492188 C 18.113281 17.003906 17.871094 17.484375 17.585938 17.9375 C 17.300781 18.386719 16.976562 18.796875 16.613281 19.164062 C 16.25 19.535156 15.851562 19.855469 15.425781 20.132812 C 14.996094 20.40625 14.542969 20.628906 14.070312 20.800781 C 13.59375 20.96875 13.101562 21.082031 12.597656 21.140625 C 12.089844 21.199219 11.582031 21.203125 11.066406 21.148438 C 10.550781 21.09375 10.039062 20.980469 9.53125 20.8125 C 9.027344 20.648438 8.535156 20.429688 8.058594 20.15625 C 7.582031 19.882812 7.128906 19.5625 6.699219 19.199219 C 6.269531 18.832031 5.875 18.421875 5.507812 17.976562 C 5.144531 17.527344 4.816406 17.046875 4.527344 16.539062 C 4.242188 16.027344 4 15.492188 3.800781 14.9375 C 3.601562 14.382812 3.453125 13.816406 3.351562 13.238281 C 3.25 12.664062 3.199219 12.085938 3.199219 11.507812 C 3.195312 10.929688 3.246094 10.363281 3.34375 9.804688 C 3.445312 9.25 3.59375 8.714844 3.789062 8.203125 C 3.984375 7.691406 4.226562 7.210938 4.511719 6.761719 C 4.796875 6.308594 5.125 5.902344 5.488281 5.53125 C 5.851562 5.160156 6.246094 4.839844 6.675781 4.5625 C 7.101562 4.289062 7.554688 4.066406 8.03125 3.894531 C 8.507812 3.726562 8.996094 3.613281 9.503906 3.554688 C 10.007812 3.496094 10.519531 3.492188 11.035156 3.546875 C 11.550781 3.601562 12.0625 3.714844 12.566406 3.882812 C 13.074219 4.046875 13.5625 4.269531 14.039062 4.539062 C 14.519531 4.8125 14.96875 5.132812 15.398438 5.5 C 15.828125 5.863281 16.226562 6.273438 16.589844 6.71875 C 16.957031 7.167969 17.28125 7.648438 17.570312 8.15625 C 17.859375 8.667969 18.101562 9.203125 18.296875 9.757812 Z M 18.296875 9.757812 " fill-opacity="1" fill-rule="nonzero"/></g></g></g><path fill="#e8e8e8" d="M 447.476562 359.710938 C 447.445312 357.738281 457.042969 327.980469 485.367188 325.21875 C 521.28125 321.722656 536.804688 366.605469 536.804688 366.605469 Z M 447.476562 359.710938 " fill-opacity="1" fill-rule="nonzero"/><path fill="#ffffff" d="M 447.476562 359.710938 L 447.589844 359.722656 C 455.007812 350.027344 466.621094 340.457031 483.71875 338.800781 C 508.03125 336.4375 524.832031 351.890625 535.09375 366.472656 L 536.804688 366.609375 C 536.804688 366.609375 521.277344 321.730469 485.363281 325.21875 C 457.042969 327.980469 447.445312 357.742188 447.476562 359.710938 Z M 447.476562 359.710938 " fill-opacity="0.7" fill-rule="nonzero"/><path fill="#371a45" d="M 536.804688 371.15625 C 534.921875 371.15625 533.164062 369.976562 532.511719 368.097656 C 532.371094 367.6875 517.742188 326.644531 485.808594 329.746094 C 460.496094 332.214844 452.394531 358.679688 452.003906 360.109375 C 451.804688 362.402344 449.902344 364.21875 447.550781 364.257812 C 444.992188 364.277344 442.972656 362.292969 442.933594 359.785156 C 442.851562 354.804688 454.636719 323.652344 484.929688 320.699219 C 523.929688 316.894531 540.417969 363.152344 541.101562 365.125 C 541.921875 367.5 540.664062 370.085938 538.292969 370.90625 C 537.800781 371.074219 537.296875 371.15625 536.804688 371.15625 Z M 452.019531 359.636719 C 452.019531 359.757812 452.019531 359.875 452.011719 359.988281 C 452.023438 359.84375 452.019531 359.722656 452.019531 359.636719 Z M 452.019531 359.636719 " fill-opacity="1" fill-rule="nonzero"/><path fill="#371a45" d="M 722.707031 342.546875 C 722.707031 342.546875 713.683594 317.800781 694.589844 319.527344 C 682.15625 320.648438 678.023438 326.679688 678.023438 326.679688 C 678.023438 326.679688 665.515625 307.738281 643.96875 311.019531 C 614.414062 315.527344 600.664062 358.265625 600.664062 358.265625 Z M 722.707031 342.546875 " fill-opacity="0.35" fill-rule="nonzero"/><path fill="#e8e8e8" d="M 722.707031 353.910156 C 722.707031 353.910156 713.683594 329.164062 694.589844 330.890625 C 682.15625 332.011719 678.023438 338.042969 678.023438 338.042969 C 678.023438 338.042969 665.515625 319.101562 643.96875 322.382812 C 614.414062 326.890625 600.664062 369.628906 600.664062 369.628906 Z M 722.707031 353.910156 " fill-opacity="1" fill-rule="nonzero"/><path fill="#ffffff" d="M 602.074219 365.789062 C 611.71875 353.242188 626.808594 337.738281 643.972656 335.128906 C 665.515625 331.84375 670.125 351.050781 670.125 351.050781 C 670.125 351.050781 682.109375 343.082031 694.585938 343.628906 C 704.320312 344.0625 713.136719 349.289062 719.441406 354.335938 L 722.703125 353.914062 C 722.703125 353.914062 713.679688 329.160156 694.585938 330.890625 C 682.15625 332.015625 678.023438 338.046875 678.023438 338.046875 C 678.023438 338.046875 665.515625 319.101562 643.972656 322.390625 C 619.855469 326.058594 606.269531 355.1875 602.074219 365.789062 Z M 602.074219 365.789062 " fill-opacity="0.7" fill-rule="nonzero"/><path fill="#371a45" d="M 600.667969 374.179688 C 600.207031 374.179688 599.738281 374.105469 599.273438 373.957031 C 596.886719 373.1875 595.574219 370.628906 596.339844 368.238281 C 596.9375 366.382812 611.320312 322.765625 643.285156 317.890625 C 660.953125 315.195312 673.109375 325.445312 678.566406 331.46875 C 681.679688 329.339844 686.667969 327.042969 694.179688 326.363281 C 716.464844 324.355469 726.558594 351.210938 726.976562 352.355469 C 727.835938 354.710938 726.625 357.320312 724.265625 358.183594 C 721.914062 359.042969 719.304688 357.832031 718.441406 355.476562 C 718.296875 355.082031 710.304688 334.027344 695 335.421875 C 685.175781 336.308594 681.847656 340.53125 681.710938 340.707031 C 680.855469 341.957031 679.492188 342.632812 677.953125 342.640625 C 676.441406 342.625 675.066406 341.816406 674.230469 340.554688 C 673.789062 339.894531 662.988281 324.089844 644.65625 326.882812 C 618.253906 330.90625 605.121094 370.632812 604.992188 371.03125 C 604.371094 372.953125 602.585938 374.179688 600.667969 374.179688 Z M 600.667969 374.179688 " fill-opacity="1" fill-rule="nonzero"/><path fill="#371a45" d="M 615.703125 332.460938 C 610.488281 362.769531 598.667969 369.863281 588.789062 373.683594 C 579.84375 377.144531 542.910156 377.453125 529.226562 354.320312 Z M 615.703125 332.460938 " fill-opacity="0.35" fill-rule="nonzero"/><path fill="#ffffff" d="M 573.863281 296.492188 C 535.375 274.804688 546.9375 242.402344 553.734375 236.707031 C 563.21875 228.769531 591.402344 240.023438 596.332031 264.851562 C 601.15625 289.167969 621.515625 286.160156 615.703125 319.957031 C 610.488281 350.269531 598.667969 357.359375 588.789062 361.183594 C 579.84375 364.644531 542.910156 364.953125 529.226562 341.816406 C 507.3125 304.761719 526.40625 251.566406 526.40625 251.566406 Z M 573.863281 296.492188 " fill-opacity="1" fill-rule="nonzero"/><path fill="#371a45" d="M 571.410156 297.753906 C 571.410156 297.753906 560.9375 316.414062 551.398438 306.621094 C 541.859375 296.828125 550.410156 273.425781 550.410156 273.425781 C 550.410156 273.425781 554.234375 287.960938 571.410156 297.753906 Z M 571.410156 297.753906 " fill-opacity="0.35" fill-rule="nonzero"/><path fill="#371a45" d="M 529.230469 341.820312 C 542.910156 364.945312 579.84375 364.640625 588.78125 361.175781 C 598.667969 357.355469 610.492188 350.265625 615.695312 319.957031 C 617.277344 310.808594 616.921875 304.355469 615.492188 299.328125 C 610.1875 328.652344 598.542969 335.605469 588.78125 339.378906 C 579.84375 342.847656 542.910156 343.152344 529.230469 320.015625 C 523.152344 309.742188 520.234375 298.230469 519.175781 286.957031 C 517.734375 304.125 519.105469 324.695312 529.230469 341.820312 Z M 529.230469 341.820312 " fill-opacity="0.35" fill-rule="nonzero"/><path fill="#371a45" d="M 573.117188 297.8125 C 564.578125 295.621094 556.714844 290.554688 550.949219 283.277344 C 548.050781 279.671875 545.691406 275.515625 544.125 271.042969 C 542.617188 266.550781 541.863281 261.789062 541.980469 257.0625 C 542.070312 252.332031 542.925781 247.65625 544.578125 243.175781 C 545.417969 240.929688 546.441406 238.738281 547.890625 236.574219 C 548.671875 235.484375 549.441406 234.414062 550.742188 233.292969 C 551.980469 232.292969 553.332031 231.453125 554.699219 230.949219 C 557.449219 229.851562 560.148438 229.597656 562.6875 229.667969 C 565.230469 229.742188 567.644531 230.175781 569.957031 230.804688 C 574.589844 232.066406 578.792969 234.203125 582.648438 236.816406 C 590.289062 242.089844 596.398438 249.785156 599.398438 258.753906 C 599.738281 259.878906 600.121094 260.996094 600.375 262.144531 L 600.769531 263.863281 L 601.117188 265.238281 C 601.359375 266.136719 601.550781 267.058594 601.820312 267.941406 L 602.78125 270.523438 C 604.203125 273.902344 606.214844 276.960938 608.742188 280.074219 C 611.230469 283.191406 614.273438 286.507812 616.683594 290.695312 C 619.132812 294.859375 620.535156 299.714844 621.039062 304.390625 C 621.171875 306.714844 621.375 309.070312 621.179688 311.316406 C 621.117188 312.449219 621.09375 313.59375 620.992188 314.710938 L 620.550781 318.019531 C 620.390625 319.109375 620.285156 320.238281 620.074219 321.304688 L 619.453125 324.503906 C 619.085938 326.644531 618.484375 328.765625 617.984375 330.898438 C 616.789062 335.136719 615.492188 339.386719 613.527344 343.5 C 611.601562 347.605469 609.167969 351.625 605.96875 355.164062 C 602.8125 358.738281 598.746094 361.59375 594.550781 363.648438 C 593.5 364.121094 592.445312 364.625 591.402344 365.03125 C 590.878906 365.238281 590.394531 365.453125 589.667969 365.6875 C 588.984375 365.929688 588.402344 366.058594 587.773438 366.230469 C 585.367188 366.789062 583.109375 367.0625 580.847656 367.246094 C 571.863281 367.871094 563.023438 366.980469 554.359375 364.605469 C 550.042969 363.394531 545.789062 361.769531 541.757812 359.554688 C 537.714844 357.382812 533.925781 354.550781 530.648438 351.144531 C 529.03125 349.421875 527.519531 347.578125 526.242188 345.570312 L 525.285156 344.070312 L 524.472656 342.59375 C 523.949219 341.601562 523.347656 340.648438 522.894531 339.625 C 520.863281 335.628906 519.335938 331.421875 518.054688 327.179688 C 516.777344 322.925781 515.875 318.597656 515.269531 314.25 C 514.65625 309.902344 514.292969 305.535156 514.199219 301.179688 C 514.101562 296.824219 514.234375 292.480469 514.539062 288.164062 C 514.859375 283.847656 515.15625 279.53125 515.738281 275.246094 C 516.3125 270.960938 517.3125 266.746094 518.675781 262.644531 C 519.378906 260.597656 520.222656 258.589844 521.246094 256.648438 C 522.296875 254.707031 523.421875 252.828125 524.980469 251.058594 C 525.578125 250.378906 526.605469 250.316406 527.28125 250.910156 C 527.621094 251.210938 527.804688 251.617188 527.828125 252.035156 L 527.832031 252.082031 C 528.347656 260.847656 526.660156 268.71875 525.316406 276.765625 C 524.585938 280.765625 523.90625 284.789062 523.613281 288.835938 C 523.308594 292.882812 523.199219 296.933594 523.285156 300.96875 C 523.371094 305 523.710938 309.007812 524.269531 312.964844 C 524.820312 316.925781 525.632812 320.828125 526.773438 324.613281 C 527.914062 328.390625 529.257812 332.105469 531.035156 335.585938 C 531.425781 336.484375 531.957031 337.308594 532.410156 338.167969 L 533.109375 339.453125 L 533.847656 340.601562 C 534.820312 342.140625 535.984375 343.546875 537.230469 344.882812 C 542.289062 350.195312 549.308594 353.773438 556.808594 355.855469 C 564.308594 357.929688 572.402344 358.742188 580.144531 358.183594 C 582.058594 358.035156 583.972656 357.785156 585.648438 357.394531 C 586.03125 357.285156 586.476562 357.191406 586.777344 357.074219 C 587.054688 356.992188 587.53125 356.796875 587.984375 356.613281 C 588.898438 356.261719 589.730469 355.855469 590.59375 355.472656 C 593.910156 353.824219 596.835938 351.78125 599.242188 349.054688 C 604.125 343.664062 607.144531 336.25 609.199219 328.574219 C 609.648438 326.621094 610.203125 324.707031 610.542969 322.707031 L 611.121094 319.734375 C 611.320312 318.742188 611.398438 317.773438 611.546875 316.796875 L 611.941406 313.863281 C 612.027344 312.894531 612.039062 311.941406 612.09375 310.980469 C 612.277344 309.035156 612.078125 307.199219 611.996094 305.339844 C 611.574219 301.691406 610.605469 298.335938 608.804688 295.25 C 607.042969 292.136719 604.410156 289.195312 601.65625 285.78125 C 598.898438 282.394531 596.210938 278.410156 594.394531 274.039062 L 593.164062 270.722656 C 592.816406 269.605469 592.570312 268.472656 592.273438 267.34375 L 591.855469 265.667969 L 591.542969 264.320312 C 591.351562 263.421875 591.042969 262.550781 590.78125 261.667969 C 588.453125 254.6875 583.625 248.558594 577.484375 244.3125 C 574.40625 242.226562 571.019531 240.523438 567.546875 239.585938 C 565.820312 239.109375 564.078125 238.816406 562.425781 238.769531 C 560.78125 238.707031 559.222656 238.921875 558.074219 239.40625 C 557.460938 239.609375 557.039062 239.941406 556.628906 240.230469 C 556.332031 240.46875 555.828125 241.09375 555.398438 241.707031 C 554.511719 243.03125 553.71875 244.648438 553.109375 246.339844 C 551.875 249.734375 551.28125 253.449219 551.363281 257.105469 C 551.492188 264.472656 554.222656 271.453125 558.492188 277.613281 C 562.832031 283.804688 568.632812 289.074219 574.601562 295.183594 L 574.628906 295.210938 C 575.234375 295.828125 575.222656 296.824219 574.601562 297.429688 C 574.199219 297.8125 573.628906 297.945312 573.117188 297.8125 Z M 573.117188 297.8125 " fill-opacity="1" fill-rule="nonzero"/><path fill="#371a45" d="M 565.691406 289.121094 C 565.703125 291.234375 565.324219 293.167969 564.808594 295.125 C 564.292969 297.074219 563.511719 298.964844 562.660156 300.828125 C 561.78125 302.683594 560.742188 304.507812 559.472656 306.207031 C 559.140625 306.632812 558.789062 307.039062 558.449219 307.441406 C 558.070312 307.839844 557.671875 308.222656 557.273438 308.585938 C 556.867188 308.945312 556.375 309.261719 555.929688 309.5625 C 555.457031 309.851562 554.882812 310.03125 554.402344 310.21875 C 554.164062 310.308594 553.898438 310.191406 553.804688 309.957031 C 553.746094 309.800781 553.773438 309.632812 553.871094 309.507812 L 553.941406 309.414062 C 555.070312 307.953125 555.585938 306.25 556.03125 304.472656 C 556.46875 302.699219 556.789062 300.890625 557.097656 299.0625 C 557.390625 297.230469 557.605469 295.382812 557.960938 293.558594 C 558.308594 291.746094 558.675781 289.875 559.289062 288.167969 L 559.34375 288.023438 C 559.957031 286.320312 561.832031 285.441406 563.53125 286.050781 C 564.855469 286.535156 565.683594 287.789062 565.691406 289.121094 Z M 565.691406 289.121094 " fill-opacity="1" fill-rule="nonzero"/><path fill="#371a45" d="M 678.421875 469.089844 C 680.042969 472.378906 681.976562 475.703125 683.996094 478.855469 C 686.035156 482.019531 688.230469 485.0625 690.566406 487.960938 C 692.894531 490.867188 695.4375 493.546875 698.082031 496.050781 C 700.75 498.53125 703.625 500.675781 706.578125 502.550781 L 706.699219 502.628906 C 708.824219 503.976562 709.453125 506.789062 708.105469 508.914062 C 706.761719 511.039062 703.949219 511.667969 701.824219 510.320312 C 701.703125 510.242188 701.582031 510.15625 701.46875 510.070312 C 698.136719 507.484375 695.085938 504.664062 692.382812 501.601562 C 689.710938 498.527344 687.242188 495.328125 685.054688 491.984375 C 682.867188 488.636719 680.871094 485.203125 679.066406 481.683594 C 677.261719 478.140625 675.640625 474.609375 674.210938 470.816406 C 673.769531 469.640625 674.363281 468.332031 675.539062 467.886719 C 676.636719 467.472656 677.859375 467.96875 678.371094 469 Z M 678.421875 469.089844 " fill-opacity="1" fill-rule="nonzero"/><path fill="#371a45" d="M 760.921875 385.980469 C 762.941406 388.378906 765.238281 390.773438 767.566406 392.996094 C 769.914062 395.226562 772.367188 397.328125 774.902344 399.285156 C 777.421875 401.261719 780.085938 403.007812 782.78125 404.601562 C 785.484375 406.207031 788.308594 407.476562 791.125 408.585938 L 791.261719 408.640625 C 793.601562 409.5625 794.753906 412.207031 793.832031 414.550781 C 792.914062 416.890625 790.269531 418.042969 787.929688 417.121094 C 787.769531 417.058594 787.613281 416.988281 787.46875 416.910156 C 784.261719 415.21875 781.195312 413.359375 778.382812 411.230469 C 775.578125 409.101562 772.894531 406.863281 770.433594 404.429688 C 767.953125 402.019531 765.613281 399.5 763.414062 396.875 C 761.210938 394.226562 759.171875 391.566406 757.222656 388.621094 C 756.53125 387.574219 756.816406 386.164062 757.863281 385.472656 C 758.835938 384.828125 760.125 385.03125 760.859375 385.902344 Z M 760.921875 385.980469 " fill-opacity="1" fill-rule="nonzero"/><path fill="#371a45" d="M 542.933594 533.03125 C 542.339844 532.101562 541.917969 531.363281 541.464844 530.542969 C 541.011719 529.738281 540.601562 528.933594 540.183594 528.128906 C 539.378906 526.515625 538.613281 524.890625 537.910156 523.242188 C 536.5 519.949219 535.253906 516.613281 534.238281 513.203125 C 533.214844 509.800781 532.335938 506.367188 531.71875 502.886719 C 531.035156 499.414062 530.660156 495.898438 530.363281 492.398438 C 530.257812 491.144531 531.1875 490.046875 532.441406 489.941406 C 533.605469 489.84375 534.636719 490.644531 534.859375 491.765625 L 534.875 491.847656 C 535.523438 495.125 536.234375 498.375 537.238281 501.546875 C 538.171875 504.730469 539.351562 507.832031 540.640625 510.871094 C 541.929688 513.910156 543.417969 516.859375 545.03125 519.707031 C 545.835938 521.136719 546.695312 522.523438 547.570312 523.886719 C 548.019531 524.554688 548.460938 525.238281 548.929688 525.878906 C 549.371094 526.515625 549.886719 527.207031 550.277344 527.679688 L 550.289062 527.695312 C 551.878906 529.644531 551.589844 532.511719 549.644531 534.101562 C 547.695312 535.691406 544.828125 535.402344 543.238281 533.453125 C 543.132812 533.320312 543.027344 533.175781 542.933594 533.03125 Z M 542.933594 533.03125 " fill-opacity="1" fill-rule="nonzero"/><path fill="#371a45" d="M 536.523438 504.386719 C 535.984375 505.261719 535.523438 505.921875 534.945312 506.605469 C 534.40625 507.292969 533.785156 507.902344 533.164062 508.515625 C 531.890625 509.710938 530.472656 510.785156 528.914062 511.65625 C 525.808594 513.410156 522.152344 514.398438 518.507812 514.386719 C 516.714844 514.265625 514.882812 514.195312 513.1875 513.664062 C 511.417969 513.339844 509.859375 512.554688 508.261719 511.886719 C 506.714844 511.136719 505.324219 510.160156 503.910156 509.25 C 502.625 508.1875 501.371094 507.09375 500.210938 505.933594 C 499.320312 505.042969 499.316406 503.597656 500.203125 502.707031 C 500.886719 502.023438 501.890625 501.863281 502.722656 502.222656 L 502.980469 502.332031 C 504.371094 502.933594 505.664062 503.617188 506.933594 504.308594 C 508.277344 504.804688 509.535156 505.484375 510.839844 505.933594 C 513.4375 506.886719 516.023438 507.464844 518.597656 507.625 C 521.164062 507.648438 523.699219 507.179688 526.128906 506.140625 C 526.75 505.914062 527.320312 505.558594 527.929688 505.28125 C 528.511719 504.949219 529.089844 504.59375 529.664062 504.226562 C 530.78125 503.5 531.941406 502.539062 532.824219 501.746094 L 533.085938 501.507812 C 534.015625 500.675781 535.449219 500.753906 536.285156 501.683594 C 536.96875 502.449219 537.035156 503.554688 536.523438 504.386719 Z M 536.523438 504.386719 " fill-opacity="0.4" fill-rule="nonzero"/><path fill="#371a45" d="M 313.609375 413.433594 C 309.683594 414.269531 305.886719 414.75 301.957031 415.019531 C 298.050781 415.265625 294.089844 415.28125 290.097656 414.871094 C 286.109375 414.480469 282.070312 413.679688 278.109375 412.199219 C 274.160156 410.730469 270.28125 408.464844 267.042969 405.253906 L 267.015625 405.226562 C 265.230469 403.457031 265.214844 400.574219 266.984375 398.789062 C 268.753906 397.003906 271.632812 396.988281 273.421875 398.757812 C 273.53125 398.867188 273.636719 398.984375 273.734375 399.097656 C 275.660156 401.4375 278.234375 403.40625 281.242188 404.886719 C 284.242188 406.371094 287.605469 407.425781 291.09375 408.125 C 294.582031 408.84375 298.210938 409.203125 301.859375 409.339844 C 305.488281 409.460938 309.253906 409.355469 312.792969 408.960938 L 312.886719 408.949219 C 314.132812 408.8125 315.257812 409.710938 315.394531 410.960938 C 315.519531 412.128906 314.734375 413.1875 313.609375 413.433594 Z M 313.609375 413.433594 " fill-opacity="1" fill-rule="nonzero"/><path fill="#371a45" d="M 762.761719 391.007812 C 761.375 389.792969 760.488281 389.074219 760.328125 388.949219 C 760.433594 389.097656 761.035156 389.871094 762.761719 391.007812 Z M 762.761719 391.007812 " fill-opacity="0.35" fill-rule="nonzero"/><path fill="#371a45" d="M 279.429688 452.511719 C 312.308594 467.457031 344.867188 446.054688 344.867188 446.054688 C 344.867188 446.054688 340.277344 499.242188 385.675781 462.207031 C 371.132812 492.550781 389.71875 528.246094 401.554688 536.425781 C 426.277344 553.484375 461.472656 547.960938 488.785156 532.597656 C 489.605469 540.644531 493.773438 552.164062 507.199219 556.507812 C 535.203125 565.554688 546.609375 530.359375 546.609375 530.359375 C 546.609375 530.359375 555.050781 541.835938 572.625 550.566406 C 623.570312 575.851562 667.566406 549.679688 698.46875 502.957031 C 723.28125 520.367188 770.792969 516.550781 789.84375 492.980469 C 808.898438 469.421875 806.183594 431.214844 783.984375 410.585938 C 812.542969 423.246094 846.046875 420.726562 870.289062 400.9375 C 878.492188 394.234375 883.867188 385.359375 886.777344 375.730469 C 865.882812 390.300781 837.175781 405.757812 812.136719 403.0625 C 779.929688 399.609375 767.382812 394.015625 762.785156 391.015625 C 774.15625 400.96875 819.269531 444.269531 783.574219 476.726562 C 742.980469 513.605469 668.070312 457.011719 668.070312 457.011719 C 668.070312 457.011719 683.589844 503.0625 657.730469 527.722656 C 635.542969 548.871094 569.242188 554.859375 537.148438 511.242188 C 537.148438 511.242188 524.492188 542.382812 505.292969 534.246094 C 486.082031 526.121094 485.707031 503.0625 485.707031 503.0625 C 485.707031 503.0625 445.820312 537.9375 414.785156 516.140625 C 383.757812 494.34375 398.535156 440.761719 398.535156 440.761719 C 398.535156 440.761719 373.417969 464.230469 359.195312 453.511719 C 344.96875 442.796875 349.777344 427.828125 349.777344 427.828125 C 349.777344 427.828125 274.214844 447.570312 288.167969 411.089844 C 288.167969 411.089844 279.070312 409.488281 268.71875 406.214844 C 264.921875 416.316406 257.617188 442.589844 279.429688 452.511719 Z M 279.429688 452.511719 " fill-opacity="0.35" fill-rule="nonzero"/><path fill="#e8e8e8" d="M 432.03125 407.953125 C 432.03125 407.953125 408.957031 431.140625 385.628906 419.277344 C 370.816406 411.742188 368.839844 381.601562 368.839844 381.601562 C 368.839844 381.601562 333.402344 400.066406 333.777344 367.675781 Z M 432.03125 407.953125 " fill-opacity="1" fill-rule="nonzero"/><path fill="#fc5b89" d="M 368.839844 381.597656 C 368.839844 381.597656 368.667969 381.6875 368.339844 381.847656 L 368.871094 382.0625 C 368.847656 381.757812 368.839844 381.597656 368.839844 381.597656 Z M 368.839844 381.597656 " fill-opacity="1" fill-rule="nonzero"/><path fill="#371a45" d="M 433.640625 401.785156 C 430.941406 405.066406 427.921875 407.710938 424.597656 410.207031 C 421.265625 412.636719 417.636719 414.75 413.691406 416.347656 C 409.757812 417.980469 405.476562 418.976562 401.058594 419.273438 C 396.644531 419.503906 392.074219 418.925781 387.867188 417.386719 C 386.816406 417.003906 385.773438 416.601562 384.777344 416.101562 C 384.261719 415.847656 383.796875 415.671875 383.246094 415.347656 C 382.707031 415.035156 382.148438 414.746094 381.648438 414.394531 C 379.589844 413.027344 377.835938 411.371094 376.398438 409.582031 C 373.542969 405.984375 371.570312 402.085938 370.203125 398.117188 C 368.789062 394.160156 367.890625 390.144531 367.289062 386.125 C 366.734375 382.082031 366.410156 378.117188 366.574219 373.984375 L 366.574219 373.980469 L 369.894531 375.847656 C 366.390625 378.546875 362.59375 380.433594 358.398438 381.863281 C 354.222656 383.214844 349.585938 384.023438 344.546875 383.125 C 342.054688 382.65625 339.445312 381.660156 337.242188 379.957031 C 335.027344 378.285156 333.332031 375.980469 332.316406 373.617188 C 331.347656 371.242188 330.863281 368.832031 330.800781 366.53125 C 330.726562 365.371094 330.867188 364.25 330.914062 363.132812 C 331.066406 362.027344 331.261719 360.945312 331.511719 359.875 C 331.804688 358.625 333.054688 357.847656 334.308594 358.140625 C 335.179688 358.34375 335.820312 359.015625 336.027344 359.828125 L 336.054688 359.929688 C 337.035156 363.769531 338.097656 367.3125 339.71875 369.84375 C 341.394531 372.308594 343.355469 373.574219 346.3125 374.242188 C 349.257812 374.878906 352.867188 374.695312 356.527344 374.15625 C 360.195312 373.644531 364.035156 372.699219 367.792969 371.816406 L 368.917969 371.550781 C 369.894531 371.324219 370.871094 371.925781 371.101562 372.902344 C 371.164062 373.164062 371.160156 373.433594 371.109375 373.683594 C 372.710938 381.050781 374.738281 388.511719 377.699219 395.105469 C 379.226562 398.375 380.964844 401.464844 383.132812 403.855469 C 384.207031 405.050781 385.34375 406.082031 386.574219 406.832031 C 386.875 407.027344 387.191406 407.179688 387.496094 407.363281 C 387.78125 407.539062 388.234375 407.707031 388.59375 407.882812 C 389.347656 408.257812 390.128906 408.542969 390.914062 408.824219 C 397.171875 411.078125 404.152344 410.878906 410.957031 408.734375 C 414.351562 407.664062 417.726562 406.242188 420.980469 404.480469 C 424.238281 402.78125 427.480469 400.699219 430.425781 398.578125 L 430.554688 398.484375 C 431.578125 397.75 433 397.984375 433.738281 399.003906 C 434.347656 399.863281 434.28125 401.007812 433.640625 401.785156 Z M 433.640625 401.785156 " fill-opacity="0.3" fill-rule="nonzero"/><path fill="#371a45" d="M 667.097656 352.988281 C 667.382812 351.257812 667.75 349.78125 668.210938 348.210938 C 668.667969 346.671875 669.203125 345.144531 669.835938 343.648438 C 671.078125 340.640625 672.695312 337.730469 674.671875 334.972656 L 674.714844 334.90625 C 676.191406 332.851562 679.058594 332.378906 681.117188 333.859375 C 683.171875 335.335938 683.644531 338.203125 682.167969 340.261719 C 681.941406 340.578125 681.660156 340.871094 681.375 341.113281 C 679.347656 342.792969 677.445312 344.765625 675.777344 346.984375 C 674.933594 348.085938 674.152344 349.25 673.429688 350.457031 C 672.710938 351.636719 672.019531 352.964844 671.503906 354.113281 L 671.421875 354.292969 C 670.90625 355.441406 669.558594 355.949219 668.414062 355.433594 C 667.449219 355.003906 666.9375 353.984375 667.097656 352.988281 Z M 667.097656 352.988281 " fill-opacity="1" fill-rule="nonzero"/><path fill="#ffffff" d="M 867.199219 339.160156 C 867.199219 339.160156 858.367188 309.355469 832.488281 301.46875 C 806.609375 293.585938 778.882812 310.339844 783.609375 311.816406 C 788.332031 313.296875 814.003906 308.488281 834.339844 322.035156 C 854.671875 335.585938 871.71875 353.941406 867.199219 339.160156 Z M 867.199219 339.160156 " fill-opacity="0.7" fill-rule="nonzero"/><path fill="#ffffff" d="M 353.09375 302.925781 C 353.09375 302.925781 329.453125 290.917969 309.136719 293.6875 C 288.820312 296.457031 272.9375 315.488281 272.75 320.664062 C 272.5625 325.835938 294.914062 313.824219 313.015625 311.238281 C 330.035156 308.808594 370.085938 311.238281 353.09375 302.925781 Z M 353.09375 302.925781 " fill-opacity="0.7" fill-rule="nonzero"/><path fill="#ffffff" d="M 723.113281 455.859375 C 730.554688 461.953125 756.644531 471.214844 770.507812 457.210938 C 790.28125 437.238281 762.574219 415.777344 760.996094 415.601562 C 752.6875 414.675781 770.699219 438.90625 752.457031 445.753906 C 744.1875 448.855469 715.671875 449.757812 723.113281 455.859375 Z M 723.113281 455.859375 " fill-opacity="0.7" fill-rule="nonzero"/><path fill="#ffffff" d="M 552.273438 473.792969 C 544.980469 478.835938 541.933594 494.328125 564.085938 507.246094 C 585.414062 519.6875 603.199219 518.859375 604.230469 512.78125 C 605.628906 504.53125 589.488281 500.175781 578.152344 492.171875 C 570.941406 487.074219 560.1875 468.316406 552.273438 473.792969 Z M 552.273438 473.792969 " fill-opacity="0.7" fill-rule="nonzero"/></svg>