<svg xmlns="http://www.w3.org/2000/svg" xmlns:xlink="http://www.w3.org/1999/xlink" width="1366" zoomAndPan="magnify" viewBox="0 0 1024.5 576" height="768" preserveAspectRatio="xMidYMid meet" version="1.0"><defs><filter x="0%" y="0%" width="100%" height="100%" id="57929da528"><feColorMatrix values="0 0 0 0 1 0 0 0 0 1 0 0 0 0 1 0 0 0 1 0" color-interpolation-filters="sRGB"/></filter><clipPath id="7c956b41d5"><path d="M 389 371 L 528 371 L 528 575.859375 L 389 575.859375 Z M 389 371 " clip-rule="nonzero"/></clipPath><mask id="62dc394252"><g filter="url(#57929da528)"><rect x="-102.45" width="1229.4" fill="#000000" y="-57.6" height="691.2" fill-opacity="0.5"/></g></mask><clipPath id="bd434db488"><rect x="0" width="41" y="0" height="51"/></clipPath><mask id="6dbc8c7857"><g filter="url(#57929da528)"><rect x="-102.45" width="1229.4" fill="#000000" y="-57.6" height="691.2" fill-opacity="0.5"/></g></mask><clipPath id="4ffc346858"><path d="M 1 0.542969 L 19.238281 0.542969 L 19.238281 22 L 1 22 Z M 1 0.542969 " clip-rule="nonzero"/></clipPath><clipPath id="67c3a96a34"><rect x="0" width="20" y="0" height="23"/></clipPath></defs><path fill="#ffffff" d="M 591.691406 408.976562 C 584.941406 406.789062 578.195312 403.113281 571.851562 397.671875 C 551.734375 380.429688 547.394531 298.210938 547.394531 298.210938 L 547.488281 298.082031 L 584.355469 248.710938 C 584.355469 248.710938 587.148438 252.625 591.597656 259.113281 C 596.140625 265.75 602.410156 275.070312 609.160156 285.601562 C 624.769531 310.011719 642.921875 340.945312 648.070312 360.101562 C 657.390625 394.839844 624.273438 419.472656 591.691406 408.976562 Z M 591.691406 408.976562 " fill-opacity="1" fill-rule="nonzero"/><path fill="#371a45" d="M 649.578125 374.472656 C 647.828125 401.238281 619.566406 417.945312 591.691406 408.976562 C 584.941406 406.789062 578.195312 403.113281 571.851562 397.671875 C 551.734375 380.429688 547.394531 298.210938 547.394531 298.210938 L 547.488281 298.082031 L 555.210938 287.734375 C 557.03125 309.773438 563.0625 364.199219 578.984375 377.855469 C 585.3125 383.277344 612.765625 390.707031 619.824219 391.402344 C 637.347656 393.148438 639.132812 388.792969 649.578125 374.472656 Z M 649.578125 374.472656 " fill-opacity="0.25" fill-rule="nonzero"/><path fill="#371a45" d="M 606.953125 414.730469 C 594.871094 414.730469 581.667969 410.574219 569.644531 400.261719 C 548.664062 382.285156 544.195312 301.8125 544.011719 298.394531 C 543.917969 296.519531 545.355469 294.921875 547.230469 294.828125 C 549.125 294.71875 550.703125 296.171875 550.796875 298.046875 C 551.972656 320.507812 558.464844 381.753906 574.058594 395.117188 C 594.671875 412.78125 616.828125 409.710938 629.535156 401.695312 C 643.34375 393.003906 649.171875 377.414062 644.777344 361.019531 C 635.507812 326.519531 582.128906 251.46875 581.578125 250.714844 C 580.492188 249.1875 580.84375 247.054688 582.367188 245.972656 C 583.894531 244.886719 586.027344 245.234375 587.113281 246.761719 C 589.335938 249.886719 641.761719 323.558594 651.339844 359.253906 C 656.546875 378.648438 649.578125 397.101562 633.15625 407.449219 C 626.039062 411.933594 616.882812 414.730469 606.953125 414.730469 Z M 606.953125 414.730469 " fill-opacity="1" fill-rule="nonzero"/><path fill="#371a45" d="M 582.609375 346.738281 C 581.320312 346.738281 580.089844 346.003906 579.519531 344.769531 C 578.726562 343.0625 579.464844 341.058594 581.171875 340.265625 C 582.625 339.585938 616.976562 323.890625 639.445312 332.640625 C 641.191406 333.320312 642.054688 335.285156 641.375 337.03125 C 640.695312 338.777344 638.726562 339.640625 636.980469 338.960938 C 617.214844 331.261719 584.355469 346.257812 584.023438 346.425781 C 583.582031 346.644531 583.085938 346.738281 582.609375 346.738281 Z M 582.609375 346.738281 " fill-opacity="1" fill-rule="nonzero"/><path fill="#ffffff" d="M 619.015625 358.1875 C 619.015625 359.164062 618.921875 360.128906 618.730469 361.085938 C 618.539062 362.042969 618.257812 362.972656 617.882812 363.871094 C 617.511719 364.773438 617.054688 365.628906 616.511719 366.441406 C 615.96875 367.25 615.355469 368 614.664062 368.691406 C 613.972656 369.378906 613.222656 369.996094 612.414062 370.539062 C 611.601562 371.078125 610.746094 371.535156 609.84375 371.910156 C 608.941406 372.285156 608.011719 372.566406 607.058594 372.753906 C 606.101562 372.945312 605.132812 373.039062 604.160156 373.039062 C 603.183594 373.039062 602.214844 372.945312 601.257812 372.753906 C 600.304688 372.566406 599.375 372.285156 598.472656 371.910156 C 597.570312 371.535156 596.714844 371.078125 595.902344 370.539062 C 595.09375 369.996094 594.34375 369.378906 593.652344 368.691406 C 592.960938 368 592.347656 367.25 591.804688 366.441406 C 591.261719 365.628906 590.804688 364.773438 590.433594 363.871094 C 590.058594 362.972656 589.777344 362.042969 589.585938 361.085938 C 589.394531 360.128906 589.300781 359.164062 589.300781 358.1875 C 589.300781 357.214844 589.394531 356.246094 589.585938 355.292969 C 589.777344 354.335938 590.058594 353.40625 590.433594 352.503906 C 590.804688 351.605469 591.261719 350.75 591.804688 349.9375 C 592.347656 349.125 592.960938 348.375 593.652344 347.6875 C 594.34375 346.996094 595.09375 346.382812 595.902344 345.839844 C 596.714844 345.296875 597.570312 344.839844 598.472656 344.46875 C 599.375 344.09375 600.304688 343.8125 601.257812 343.621094 C 602.214844 343.433594 603.183594 343.335938 604.160156 343.335938 C 605.132812 343.335938 606.101562 343.433594 607.058594 343.621094 C 608.011719 343.8125 608.941406 344.09375 609.84375 344.46875 C 610.746094 344.839844 611.601562 345.296875 612.414062 345.839844 C 613.222656 346.382812 613.972656 346.996094 614.664062 347.6875 C 615.355469 348.375 615.96875 349.125 616.511719 349.9375 C 617.054688 350.75 617.511719 351.605469 617.882812 352.503906 C 618.257812 353.40625 618.539062 354.335938 618.730469 355.292969 C 618.921875 356.246094 619.015625 357.214844 619.015625 358.1875 Z M 619.015625 358.1875 " fill-opacity="1" fill-rule="nonzero"/><path fill="#371a45" d="M 618.996094 358.539062 C 618.796875 366.734375 611.992188 373.226562 603.789062 373.023438 C 595.589844 372.820312 589.097656 366.019531 589.300781 357.820312 C 589.355469 355.558594 589.90625 353.410156 590.882812 351.515625 C 593.144531 356.589844 598.183594 360.191406 604.101562 360.339844 C 610.023438 360.488281 615.226562 357.121094 617.730469 352.179688 C 618.59375 354.109375 619.050781 356.277344 618.996094 358.539062 Z M 618.996094 358.539062 " fill-opacity="0.35" fill-rule="nonzero"/><path fill="#371a45" d="M 604.160156 376.421875 C 604.011719 376.421875 603.863281 376.421875 603.699219 376.421875 C 598.824219 376.3125 594.285156 374.289062 590.9375 370.761719 C 587.574219 367.230469 585.789062 362.601562 585.898438 357.730469 C 586.136719 347.675781 594.523438 339.695312 604.582031 339.9375 C 609.453125 340.046875 613.996094 342.070312 617.34375 345.597656 C 620.707031 349.125 622.492188 353.757812 622.378906 358.628906 C 622.269531 363.5 620.246094 368.042969 616.71875 371.386719 C 613.316406 374.660156 608.867188 376.421875 604.160156 376.421875 Z M 604.160156 346.738281 C 597.980469 346.738281 592.867188 351.683594 592.722656 357.914062 C 592.574219 364.21875 597.574219 369.476562 603.882812 369.640625 C 603.972656 369.640625 604.066406 369.640625 604.160156 369.640625 C 610.335938 369.640625 615.449219 364.695312 615.59375 358.464844 C 615.742188 352.160156 610.742188 346.902344 604.433594 346.738281 C 604.34375 346.738281 604.25 346.738281 604.160156 346.738281 Z M 604.160156 346.738281 " fill-opacity="1" fill-rule="nonzero"/><path fill="#ffffff" d="M 626.5 384.050781 L 619.824219 391.421875 L 606.511719 406.128906 C 599.175781 406.109375 595.09375 397.578125 592.941406 386.9375 C 589.871094 371.828125 590.699219 352.492188 591.5625 347.34375 C 592.664062 340.929688 602.539062 332.546875 613.332031 338.90625 C 628.945312 348.117188 626.5 384.050781 626.5 384.050781 Z M 626.5 384.050781 " fill-opacity="1" fill-rule="nonzero"/><path fill="#371a45" d="M 619.84375 391.421875 L 606.53125 406.128906 C 599.195312 406.109375 595.113281 397.578125 592.960938 386.9375 C 597.832031 390.335938 606.605469 394.085938 619.84375 391.421875 Z M 619.84375 391.421875 " fill-opacity="0.25" fill-rule="nonzero"/><path fill="#371a45" d="M 625.949219 384.015625 C 625.027344 378.152344 624.199219 372.378906 623.078125 366.773438 C 621.921875 361.183594 620.617188 355.671875 618.410156 350.835938 C 617.304688 348.445312 616 346.203125 614.382812 344.457031 C 613.960938 344.035156 613.574219 343.59375 613.113281 343.246094 C 612.890625 343.0625 612.691406 342.839844 612.453125 342.695312 L 611.753906 342.214844 C 611.292969 341.882812 610.722656 341.664062 610.226562 341.351562 C 609.96875 341.1875 609.710938 341.09375 609.4375 341.003906 L 608.644531 340.691406 C 606.492188 339.917969 604.230469 339.992188 602.117188 340.691406 C 599.964844 341.332031 598.015625 342.820312 596.621094 344.585938 C 595.957031 345.488281 595.441406 346.441406 595.167969 347.34375 C 595.128906 347.5625 595.074219 347.765625 595.019531 347.988281 L 594.890625 348.941406 C 594.816406 349.605469 594.761719 350.304688 594.707031 351 C 594.523438 353.8125 594.449219 356.699219 594.449219 359.566406 C 594.484375 365.320312 594.707031 371.074219 595.203125 376.773438 C 595.441406 379.621094 595.792969 382.433594 596.195312 385.226562 C 596.636719 388.003906 597.1875 390.742188 597.886719 393.390625 C 598.585938 396.035156 599.449219 398.574219 600.71875 400.777344 C 601.328125 401.9375 602.117188 402.855469 603.035156 403.71875 C 603.972656 404.582031 605.152344 405.132812 606.53125 405.59375 L 606.605469 405.628906 C 606.898438 405.722656 607.0625 406.054688 606.953125 406.347656 C 606.878906 406.550781 606.714844 406.695312 606.511719 406.734375 C 606.125 406.808594 605.722656 406.84375 605.316406 406.898438 C 605.113281 406.917969 604.894531 406.953125 604.691406 406.953125 L 604.066406 406.898438 C 603.644531 406.84375 603.203125 406.84375 602.796875 406.75 L 601.566406 406.367188 C 599.949219 405.777344 598.457031 404.75 597.261719 403.570312 C 594.816406 401.199219 593.21875 398.296875 591.96875 395.410156 C 590.734375 392.488281 589.925781 389.492188 589.28125 386.496094 C 588.621094 383.5 588.160156 380.484375 587.8125 377.488281 C 587.148438 371.476562 586.984375 365.449219 587.148438 359.457031 C 587.242188 356.441406 587.40625 353.445312 587.683594 350.394531 C 587.757812 349.621094 587.828125 348.851562 587.941406 348.0625 C 587.996094 347.675781 588.070312 347.234375 588.125 346.828125 C 588.234375 346.332031 588.363281 345.816406 588.492188 345.320312 C 589.117188 343.410156 590.074219 341.792969 591.175781 340.339844 C 592.335938 338.945312 593.621094 337.675781 595.09375 336.664062 C 595.808594 336.148438 596.601562 335.691406 597.371094 335.25 C 598.199219 334.863281 598.992188 334.441406 599.875 334.183594 C 600.316406 334.035156 600.738281 333.890625 601.179688 333.761719 L 602.523438 333.484375 C 603.421875 333.265625 604.34375 333.28125 605.261719 333.191406 C 606.179688 333.191406 607.101562 333.265625 608.019531 333.355469 C 608.902344 333.539062 609.820312 333.648438 610.6875 333.925781 L 611.972656 334.347656 C 612.394531 334.496094 612.820312 334.640625 613.203125 334.84375 C 613.996094 335.25 614.804688 335.578125 615.558594 336.074219 L 616.699219 336.8125 C 617.085938 337.070312 617.414062 337.363281 617.765625 337.636719 C 618.480469 338.171875 619.089844 338.816406 619.714844 339.441406 C 622.140625 341.976562 623.816406 344.9375 625.082031 347.894531 C 625.707031 349.382812 626.242188 350.890625 626.683594 352.398438 C 627.105469 353.925781 627.472656 355.429688 627.769531 356.957031 C 628.339844 360.007812 628.707031 363.058594 628.78125 366.09375 C 628.910156 369.125 628.816406 372.160156 628.539062 375.15625 C 628.265625 378.152344 627.804688 381.128906 627.03125 384.070312 C 626.960938 384.382812 626.628906 384.566406 626.335938 384.472656 C 626.132812 384.4375 625.984375 384.253906 625.949219 384.015625 Z M 625.949219 384.015625 " fill-opacity="1" fill-rule="nonzero"/><path fill="#ffffff" d="M 491.441406 254.792969 L 480.148438 381.515625 L 475.496094 433.847656 C 475.496094 433.847656 417.558594 435.757812 401.027344 412.929688 C 394.902344 404.472656 392.109375 380.429688 392.199219 354.164062 C 392.347656 322.179688 396.816406 286.871094 404.925781 272.402344 C 417.925781 249.1875 471.507812 251.597656 491.441406 254.792969 Z M 491.441406 254.792969 " fill-opacity="1" fill-rule="nonzero"/><path fill="#371a45" d="M 480.148438 381.515625 L 475.496094 433.847656 C 475.496094 433.847656 417.558594 435.757812 401.027344 412.929688 C 394.902344 404.472656 392.109375 380.429688 392.199219 354.164062 L 428.1875 348.628906 C 428.1875 348.628906 440.6875 349.125 440.488281 388.867188 C 440.449219 399.988281 457.292969 404.621094 470.148438 396.035156 C 474.816406 392.910156 477.960938 387.726562 480.148438 381.515625 Z M 480.148438 381.515625 " fill-opacity="0.25" fill-rule="nonzero"/><path fill="#371a45" d="M 471.855469 437.300781 C 458.398438 437.300781 413.328125 435.703125 398.285156 414.914062 C 390.289062 403.867188 388.230469 371.753906 388.964844 345.414062 C 389.699219 319.238281 393.507812 285.875 401.964844 270.75 C 416.179688 245.347656 471.746094 248.195312 491.972656 251.449219 C 493.832031 251.742188 495.082031 253.488281 494.785156 255.34375 C 494.492188 257.203125 492.746094 258.453125 490.886719 258.15625 C 468.710938 254.609375 419.230469 253.820312 407.902344 274.078125 C 401.429688 285.65625 396.667969 313.722656 395.769531 345.617188 C 394.886719 376.847656 398.121094 403.09375 403.804688 410.941406 C 419.082031 432.042969 474.835938 430.480469 475.40625 430.464844 C 477.28125 430.371094 478.84375 431.878906 478.917969 433.753906 C 478.992188 435.628906 477.503906 437.191406 475.625 437.265625 C 475.277344 437.265625 473.953125 437.300781 471.855469 437.300781 Z M 471.855469 437.300781 " fill-opacity="1" fill-rule="nonzero"/><path fill="#ffffff" d="M 395.65625 348.757812 L 426.035156 351.902344 C 428.753906 352.179688 430.925781 354.253906 431.347656 356.9375 C 432.855469 366.808594 435.136719 389.785156 425.371094 397.066406 C 417.261719 403.113281 404.410156 402.027344 397.035156 395.429688 C 388.796875 388.058594 388.597656 365.578125 389.039062 354.476562 C 389.183594 351.019531 392.199219 348.410156 395.65625 348.757812 Z M 395.65625 348.757812 " fill-opacity="1" fill-rule="nonzero"/><path fill="#371a45" d="M 431.328125 356.9375 C 432.835938 366.808594 435.117188 389.785156 425.355469 397.066406 C 417.246094 403.113281 404.390625 402.027344 397.019531 395.429688 C 391.960938 390.890625 389.921875 380.632812 389.222656 370.835938 C 390.453125 375.761719 392.496094 379.785156 395.105469 382.453125 C 410.035156 397.78125 421.988281 380.523438 421.988281 380.523438 C 421.988281 380.523438 423.863281 384.839844 425.425781 385.136719 C 432.027344 386.332031 431.238281 365.558594 430.574219 354.824219 C 430.960938 355.46875 431.21875 356.167969 431.328125 356.9375 Z M 431.328125 356.9375 " fill-opacity="0.25" fill-rule="nonzero"/><path fill="#371a45" d="M 412.519531 404.453125 C 406.082031 404.453125 399.554688 402.265625 394.757812 397.964844 C 386.078125 390.207031 385.011719 369.953125 385.636719 354.328125 C 385.746094 351.753906 386.921875 349.3125 388.871094 347.621094 C 390.820312 345.929688 393.414062 345.101562 395.988281 345.378906 L 426.363281 348.519531 C 430.613281 348.960938 434.03125 352.214844 434.675781 356.425781 C 436.605469 369.144531 438.242188 391.679688 427.375 399.785156 C 423.222656 402.929688 417.90625 404.453125 412.519531 404.453125 Z M 395.03125 352.121094 C 394.40625 352.121094 393.820312 352.34375 393.339844 352.746094 C 392.789062 353.226562 392.476562 353.886719 392.457031 354.605469 C 391.683594 374.035156 394.242188 388.351562 399.316406 392.890625 C 405.714844 398.628906 416.710938 399.289062 423.347656 394.34375 C 429.125 390.023438 430.851562 376.238281 428 357.433594 C 427.816406 356.277344 426.878906 355.375 425.703125 355.265625 L 395.328125 352.121094 C 395.214844 352.121094 395.125 352.121094 395.03125 352.121094 Z M 395.03125 352.121094 " fill-opacity="1" fill-rule="nonzero"/><path fill="#371a45" d="M 421.363281 362.636719 C 421.273438 366.3125 421.527344 369.988281 421.527344 373.703125 C 421.527344 377.414062 421.363281 381.164062 420.648438 384.914062 C 419.910156 388.648438 418.605469 392.46875 416.066406 395.742188 C 414.816406 397.378906 413.253906 398.828125 411.488281 399.96875 C 409.742188 401.128906 407.792969 401.992188 405.808594 402.597656 L 405.789062 402.597656 C 404.335938 403.058594 402.773438 402.230469 402.332031 400.777344 C 401.890625 399.324219 402.699219 397.761719 404.152344 397.324219 C 404.261719 397.285156 404.390625 397.265625 404.5 397.230469 C 407.683594 396.679688 410.625 395.335938 412.921875 393.019531 C 415.242188 390.722656 416.859375 387.582031 417.960938 384.214844 C 419.066406 380.835938 419.691406 377.230469 420.132812 373.609375 C 420.609375 369.988281 420.8125 366.292969 421.363281 362.636719 Z M 421.363281 362.636719 " fill-opacity="1" fill-rule="nonzero"/><path fill="#371a45" d="M 422.46875 268.726562 C 426.660156 268.800781 430.832031 268.964844 435.007812 269.1875 C 439.179688 269.40625 443.355469 269.703125 447.53125 270.085938 C 451.703125 270.472656 455.894531 270.933594 460.089844 271.59375 C 464.28125 272.273438 468.472656 273.027344 472.777344 274.425781 C 474.558594 275.011719 475.535156 276.925781 474.945312 278.707031 C 474.359375 280.492188 472.445312 281.464844 470.660156 280.878906 C 470.570312 280.839844 470.496094 280.820312 470.421875 280.785156 L 470.402344 280.785156 C 466.890625 279.316406 462.9375 278.25 458.984375 277.3125 C 455.03125 276.355469 450.988281 275.582031 446.921875 274.902344 C 442.859375 274.203125 438.777344 273.597656 434.65625 273.066406 C 430.558594 272.53125 426.4375 272.035156 422.320312 271.648438 L 422.300781 271.648438 C 421.492188 271.578125 420.902344 270.859375 420.976562 270.050781 C 421.070312 269.296875 421.714844 268.726562 422.46875 268.726562 Z M 422.46875 268.726562 " fill-opacity="1" fill-rule="nonzero"/><path fill="#ffffff" d="M 634.40625 251.632812 L 634.40625 251.46875 C 634.5 251.46875 634.5 251.523438 634.40625 251.632812 Z M 634.40625 251.632812 " fill-opacity="1" fill-rule="nonzero"/><path fill="#ffffff" d="M 634.40625 251.632812 L 634.40625 251.46875 C 634.5 251.46875 634.5 251.523438 634.40625 251.632812 Z M 634.40625 251.632812 " fill-opacity="1" fill-rule="nonzero"/><path fill="#ffffff" d="M 634.40625 251.46875 C 634.5 251.46875 634.5 251.523438 634.40625 251.632812 Z M 634.40625 251.46875 " fill-opacity="1" fill-rule="nonzero"/><path fill="#ffffff" d="M 640.585938 547.773438 C 640.84375 569.445312 617.214844 570.839844 588.289062 570.859375 C 567.585938 570.878906 552.066406 567.386719 544.34375 560.730469 C 531.671875 549.832031 534.910156 488.308594 521.171875 376.183594 L 593.382812 369.621094 C 593.382812 369.621094 597.59375 392.082031 602.082031 424.066406 C 606.070312 452.503906 610.261719 488.457031 611.917969 522.828125 C 611.917969 522.828125 637.882812 529.886719 640.417969 545.511719 C 640.511719 546.230469 640.585938 546.984375 640.585938 547.773438 Z M 640.585938 547.773438 " fill-opacity="1" fill-rule="nonzero"/><path fill="#371a45" d="M 640.585938 547.773438 C 640.84375 569.445312 617.214844 570.839844 588.289062 570.859375 C 567.585938 570.878906 552.066406 567.386719 544.34375 560.730469 C 531.671875 549.832031 534.910156 488.308594 521.171875 376.183594 L 593.382812 369.621094 C 593.382812 369.621094 597.59375 392.082031 602.082031 424.066406 C 586.25 435.535156 572.109375 440.867188 557.289062 457.980469 C 539.523438 478.476562 543.515625 548.691406 577.808594 553.230469 C 604.984375 556.835938 629.292969 556.082031 640.402344 545.492188 C 640.511719 546.230469 640.585938 546.984375 640.585938 547.773438 Z M 640.585938 547.773438 " fill-opacity="0.25" fill-rule="nonzero"/><path fill="#371a45" d="M 588.179688 574.242188 C 566.371094 574.242188 550.445312 570.457031 542.097656 563.285156 C 533.4375 555.84375 531.691406 532.71875 528.199219 486.65625 C 525.992188 457.558594 523.25 421.328125 517.773438 376.570312 C 517.550781 374.714844 518.875 373.003906 520.730469 372.785156 C 522.589844 372.5625 524.300781 373.886719 524.519531 375.742188 C 530.019531 420.667969 532.777344 456.96875 534.984375 486.140625 C 538 526.101562 540.003906 552.515625 546.53125 558.121094 C 553.519531 564.132812 568.300781 567.421875 588.179688 567.421875 C 588.214844 567.421875 588.253906 567.421875 588.289062 567.421875 C 607.671875 567.402344 625.707031 566.777344 633.191406 559.207031 C 635.949219 556.414062 637.257812 552.679688 637.203125 547.773438 C 637.074219 535.808594 618.242188 528.03125 611.015625 526.066406 L 608.644531 525.421875 L 608.515625 522.957031 C 605.058594 451.015625 590.183594 371.019531 590.035156 370.230469 C 589.6875 368.390625 590.902344 366.609375 592.757812 366.257812 C 594.597656 365.910156 596.378906 367.121094 596.730469 368.980469 C 596.875 369.769531 611.511719 448.460938 615.191406 520.257812 C 622.492188 522.683594 643.820312 531.175781 644.003906 547.71875 C 644.078125 554.425781 642.074219 559.90625 638.027344 564.003906 C 628.6875 573.453125 609.988281 574.222656 588.308594 574.242188 C 588.253906 574.242188 588.214844 574.242188 588.179688 574.242188 Z M 588.179688 574.242188 " fill-opacity="1" fill-rule="nonzero"/><path fill="#371a45" d="M 519.445312 383.1875 C 519.28125 381.550781 519.09375 379.878906 518.894531 378.167969 C 519.09375 379.878906 519.28125 381.550781 519.445312 383.1875 Z M 519.445312 383.1875 " fill-opacity="0.35" fill-rule="nonzero"/><path fill="#371a45" d="M 506.40625 382.339844 C 506.222656 380.339844 506.023438 378.316406 505.820312 376.257812 C 506.023438 378.316406 506.222656 380.355469 506.40625 382.339844 Z M 506.40625 382.339844 " fill-opacity="0.35" fill-rule="nonzero"/><path fill="#ffffff" d="M 605.097656 377.542969 C 604.5625 382.101562 603.644531 386.402344 602.246094 390.410156 C 599.488281 398.277344 595.238281 405.132812 589.890625 411.015625 C 548.664062 456.308594 441.535156 443.347656 438.1875 386.441406 C 438.058594 384.492188 438.078125 382.46875 438.226562 380.410156 C 438.722656 373.097656 439.402344 365.359375 440.175781 357.34375 C 444.882812 308.925781 453.304688 249.921875 446.464844 209.707031 C 460.933594 224.171875 558.207031 230.511719 558.796875 221.378906 C 559.402344 212.351562 481.566406 174.007812 515.4375 179.394531 C 540.371094 184.667969 576.871094 189.375 584.003906 209.707031 C 584.445312 214.191406 586.542969 219.960938 588.050781 224.0625 L 594.484375 287.511719 C 598.660156 318.027344 608.074219 351.792969 605.097656 377.542969 Z M 605.097656 377.542969 " fill-opacity="1" fill-rule="nonzero"/><path fill="#371a45" d="M 596.160156 287.253906 C 599.195312 297.054688 601.125 306.980469 602.925781 317.03125 C 604.765625 327.070312 606.605469 337.160156 607.855469 347.4375 C 608.480469 352.5625 608.9375 357.746094 609.105469 362.984375 C 609.269531 368.207031 609.179688 373.5 608.496094 378.792969 C 608.183594 381.441406 607.6875 384.089844 607.046875 386.714844 L 606.53125 388.683594 C 606.347656 389.34375 606.125 389.988281 605.921875 390.632812 C 605.519531 391.9375 605.039062 393.1875 604.527344 394.453125 C 602.503906 399.472656 599.820312 404.214844 596.582031 408.535156 C 590.128906 417.210938 581.558594 424.066406 572.238281 429.121094 C 562.878906 434.195312 552.765625 437.558594 542.449219 439.617188 C 532.132812 441.65625 521.578125 442.375 511.097656 441.859375 C 500.617188 441.328125 490.152344 439.5625 480.09375 436.308594 C 470.054688 433.019531 460.308594 428.203125 452.054688 421.109375 C 447.953125 417.558594 444.257812 413.425781 441.351562 408.699219 C 438.425781 404.011719 436.3125 398.757812 435.226562 393.296875 C 434.695312 390.578125 434.382812 387.800781 434.308594 385.042969 C 434.273438 383.664062 434.289062 382.285156 434.363281 380.925781 C 434.4375 379.546875 434.546875 378.335938 434.621094 377.03125 C 434.988281 371.917969 435.429688 366.808594 435.910156 361.71875 C 436.863281 351.535156 437.949219 341.371094 439.015625 331.242188 C 441.167969 310.96875 443.300781 290.730469 444.457031 270.492188 C 445.011719 260.382812 445.359375 250.273438 445.175781 240.199219 C 445.011719 230.144531 444.332031 220.109375 442.710938 210.3125 L 440.78125 198.621094 L 449.148438 206.984375 C 449.773438 207.609375 450.710938 208.269531 451.742188 208.839844 C 452.789062 209.429688 453.929688 209.980469 455.125 210.476562 C 457.515625 211.488281 460.070312 212.332031 462.679688 213.085938 C 467.902344 214.59375 473.308594 215.753906 478.753906 216.746094 C 489.65625 218.710938 500.746094 220 511.832031 220.863281 C 517.386719 221.285156 522.9375 221.578125 528.492188 221.726562 C 534.027344 221.855469 539.578125 221.855469 545.003906 221.488281 C 547.707031 221.304688 550.410156 221.027344 552.835938 220.511719 C 553.445312 220.382812 554.015625 220.238281 554.511719 220.070312 C 555.007812 219.925781 555.449219 219.722656 555.632812 219.613281 C 555.707031 219.574219 555.6875 219.539062 555.503906 219.742188 C 555.429688 219.832031 555.28125 220.035156 555.191406 220.292969 C 555.117188 220.441406 555.082031 220.585938 555.042969 220.753906 C 555.007812 220.917969 555.007812 221.101562 555.007812 221.191406 C 555.027344 221.652344 555.097656 221.761719 555.082031 221.726562 C 555.0625 221.707031 555.007812 221.5625 554.898438 221.414062 C 554.4375 220.734375 553.535156 219.816406 552.617188 218.96875 C 551.679688 218.105469 550.648438 217.257812 549.601562 216.433594 C 547.488281 214.761719 545.242188 213.160156 542.980469 211.5625 C 533.859375 205.203125 524.28125 199.320312 514.941406 192.738281 C 512.605469 191.066406 510.269531 189.375 507.953125 187.390625 C 507.363281 186.894531 506.792969 186.359375 506.207031 185.773438 C 505.617188 185.167969 505.027344 184.542969 504.402344 183.621094 C 504.089844 183.144531 503.761719 182.609375 503.464844 181.710938 C 503.390625 181.488281 503.335938 181.214844 503.300781 180.9375 C 503.261719 180.609375 503.226562 180.332031 503.261719 179.945312 C 503.28125 179.230469 503.558594 178.308594 504.015625 177.648438 C 504.257812 177.28125 504.496094 177.023438 504.753906 176.785156 C 504.992188 176.5625 505.269531 176.363281 505.488281 176.234375 C 505.949219 175.957031 506.371094 175.773438 506.71875 175.664062 C 507.4375 175.425781 508.007812 175.332031 508.503906 175.277344 C 510.507812 175.09375 511.996094 175.257812 513.542969 175.425781 C 514.316406 175.515625 514.996094 175.609375 515.839844 175.738281 C 516.613281 175.882812 517.347656 176.050781 518.011719 176.175781 L 526.25 177.851562 C 537.28125 180.09375 548.480469 182.316406 559.457031 186.175781 C 564.917969 188.144531 570.359375 190.515625 575.398438 193.96875 C 577.898438 195.699219 580.289062 197.71875 582.367188 200.148438 C 584.429688 202.554688 586.15625 205.402344 587.222656 208.492188 L 587.351562 208.894531 L 587.386719 209.300781 C 587.589844 211.359375 588.160156 213.65625 588.839844 215.917969 C 589.519531 218.195312 590.347656 220.476562 591.195312 222.8125 C 591.839844 224.574219 590.917969 226.523438 589.171875 227.167969 C 587.40625 227.808594 585.457031 226.910156 584.8125 225.144531 C 583.949219 222.8125 583.066406 220.402344 582.3125 217.902344 C 581.558594 215.402344 580.859375 212.847656 580.546875 209.945312 L 580.730469 210.753906 C 579.167969 206.285156 575.710938 202.574219 571.445312 199.667969 C 567.179688 196.765625 562.214844 194.578125 557.101562 192.777344 C 546.804688 189.191406 535.867188 187.039062 524.851562 184.871094 L 516.539062 183.234375 C 515.824219 183.089844 515.199219 182.941406 514.570312 182.851562 C 514.039062 182.777344 513.320312 182.667969 512.695312 182.59375 C 511.445312 182.445312 510.121094 182.371094 509.3125 182.464844 C 509.109375 182.480469 509 182.519531 509.039062 182.5 C 509.054688 182.480469 509.148438 182.464844 509.3125 182.355469 C 509.496094 182.242188 509.753906 182.042969 510.03125 181.636719 C 510.289062 181.25 510.453125 180.679688 510.472656 180.332031 C 510.472656 180.109375 510.472656 180 510.453125 179.855469 C 510.453125 179.761719 510.417969 179.652344 510.398438 179.597656 C 510.324219 179.375 510.34375 179.449219 510.417969 179.558594 C 510.582031 179.796875 510.949219 180.222656 511.335938 180.625 C 511.742188 181.03125 512.199219 181.453125 512.679688 181.875 C 514.628906 183.546875 516.851562 185.167969 519.113281 186.746094 C 528.199219 193.070312 537.816406 198.953125 547.191406 205.402344 C 549.546875 207.019531 551.882812 208.695312 554.199219 210.496094 C 555.355469 211.394531 556.496094 212.332031 557.65625 213.363281 C 558.796875 214.429688 559.933594 215.476562 561.09375 217.113281 C 561.386719 217.535156 561.683594 218.011719 561.957031 218.621094 C 562.214844 219.226562 562.527344 220.035156 562.527344 221.191406 C 562.527344 221.449219 562.492188 221.816406 562.4375 222.148438 C 562.378906 222.480469 562.269531 222.792969 562.140625 223.105469 C 561.902344 223.691406 561.570312 224.171875 561.257812 224.539062 C 560.632812 225.273438 560.027344 225.679688 559.511719 226.007812 C 558.484375 226.617188 557.601562 226.945312 556.773438 227.203125 C 555.945312 227.460938 555.15625 227.664062 554.382812 227.828125 C 551.292969 228.472656 548.386719 228.746094 545.480469 228.949219 C 539.671875 229.335938 533.972656 229.335938 528.269531 229.207031 C 522.570312 229.058594 516.890625 228.765625 511.226562 228.34375 C 499.898438 227.480469 488.609375 226.15625 477.355469 224.132812 C 471.726562 223.105469 466.121094 221.910156 460.53125 220.292969 C 457.734375 219.484375 454.941406 218.566406 452.144531 217.386719 C 450.746094 216.800781 449.351562 216.136719 447.953125 215.347656 C 446.554688 214.539062 445.140625 213.621094 443.761719 212.261719 L 450.195312 208.933594 C 451.90625 219.261719 452.605469 229.648438 452.769531 239.960938 C 452.953125 250.289062 452.625 260.566406 452.054688 270.824219 C 450.875 291.316406 448.742188 311.664062 446.609375 331.941406 C 445.542969 342.085938 444.457031 352.214844 443.519531 362.324219 C 443.042969 367.378906 442.621094 372.433594 442.253906 377.488281 C 442.179688 378.71875 442.050781 380.0625 441.996094 381.21875 C 441.921875 382.398438 441.921875 383.574219 441.941406 384.730469 C 441.996094 387.066406 442.269531 389.398438 442.710938 391.660156 C 443.613281 396.21875 445.339844 400.574219 447.804688 404.546875 C 450.25 408.535156 453.394531 412.101562 457 415.226562 C 464.207031 421.492188 473.089844 425.960938 482.394531 429.046875 C 491.714844 432.117188 501.554688 433.808594 511.445312 434.34375 C 521.339844 434.855469 531.304688 434.214844 540.996094 432.320312 C 550.6875 430.425781 560.136719 427.285156 568.742188 422.652344 C 577.332031 418.019531 585.070312 411.84375 590.828125 404.140625 C 593.714844 400.300781 596.105469 396.109375 597.90625 391.660156 C 598.347656 390.558594 598.808594 389.417969 599.136719 388.296875 C 599.320312 387.726562 599.507812 387.175781 599.671875 386.605469 L 600.132812 384.878906 C 600.703125 382.5625 601.160156 380.191406 601.457031 377.78125 C 602.097656 372.96875 602.210938 368.023438 602.0625 363.058594 C 601.933594 358.097656 601.492188 353.117188 600.902344 348.117188 C 599.726562 338.132812 597.960938 328.136719 596.140625 318.117188 C 594.300781 308.117188 592.480469 297.972656 592.722656 287.566406 C 592.738281 286.613281 593.53125 285.859375 594.484375 285.894531 C 595.3125 286.042969 595.9375 286.558594 596.160156 287.253906 Z M 596.160156 287.253906 " fill-opacity="1" fill-rule="nonzero"/><path fill="#371a45" d="M 541.953125 483.605469 C 535.496094 483.605469 531.324219 483.253906 530.789062 483.199219 C 528.914062 483.035156 527.535156 481.378906 527.699219 479.523438 C 527.867188 477.648438 529.523438 476.289062 531.378906 476.433594 C 531.800781 476.472656 574.570312 480.039062 605.59375 462.757812 C 607.230469 461.839844 609.308594 462.429688 610.207031 464.082031 C 611.128906 465.71875 610.539062 467.796875 608.882812 468.695312 C 585.75 481.601562 557.359375 483.605469 541.953125 483.605469 Z M 541.953125 483.605469 " fill-opacity="1" fill-rule="nonzero"/><path fill="#371a45" d="M 611.238281 526.15625 C 610.0625 525.863281 608.625 525.605469 607.285156 525.402344 C 605.921875 525.183594 604.542969 525.035156 603.164062 524.886719 C 600.390625 524.632812 597.613281 524.558594 594.835938 524.632812 C 592.039062 524.6875 589.28125 525 586.542969 525.476562 C 583.785156 525.917969 581.136719 526.726562 578.507812 527.644531 L 578.414062 527.683594 C 577.53125 527.996094 576.558594 527.515625 576.265625 526.632812 C 575.96875 525.808594 576.375 524.90625 577.164062 524.539062 C 579.886719 523.269531 582.699219 522.132812 585.605469 521.359375 C 588.511719 520.550781 591.453125 519.925781 594.449219 519.574219 C 597.429688 519.191406 600.445312 518.988281 603.441406 518.96875 C 604.949219 518.96875 606.457031 518.988281 607.964844 519.078125 C 608.71875 519.117188 609.472656 519.171875 610.246094 519.246094 C 611.015625 519.320312 611.734375 519.390625 612.617188 519.519531 C 614.472656 519.796875 615.761719 521.523438 615.484375 523.382812 C 615.210938 525.238281 613.480469 526.523438 611.625 526.25 C 611.511719 526.230469 611.421875 526.210938 611.3125 526.195312 Z M 611.238281 526.15625 " fill-opacity="1" fill-rule="nonzero"/><path fill="#ffffff" d="M 525.4375 415.886719 C 525.4375 415.886719 509.3125 499.097656 501.753906 538.03125 C 495.300781 571.246094 472.703125 573.394531 423.054688 571.558594 C 405.585938 570.914062 392.273438 564.886719 393.617188 550.605469 C 395.417969 531.414062 422.503906 524.152344 422.503906 524.152344 C 422.503906 524.152344 432.25 427.355469 438.886719 374.511719 Z M 525.4375 415.886719 " fill-opacity="1" fill-rule="nonzero"/><path fill="#371a45" d="M 494.382812 517.886719 C 499.898438 483.125 520.363281 431.363281 524.613281 420.171875 C 521.210938 437.6875 508.285156 504.394531 501.753906 538.03125 C 495.300781 571.226562 472.683594 573.394531 423.054688 571.539062 C 405.605469 570.878906 392.273438 564.867188 393.632812 550.585938 C 393.78125 549.113281 394.058594 547.699219 394.480469 546.375 C 398.453125 551.707031 407.277344 554.261719 415.699219 554.738281 C 469.355469 557.773438 489.160156 550.859375 494.382812 517.886719 Z M 494.382812 517.886719 " fill-opacity="0.25" fill-rule="nonzero"/><g clip-path="url(#7c956b41d5)"><path fill="#371a45" d="M 527.113281 416.199219 C 526.121094 428.863281 523.949219 441.289062 521.597656 453.679688 L 514.515625 490.847656 L 507.4375 528.011719 L 505.671875 537.3125 C 505.398438 538.820312 505.066406 540.511719 504.679688 542.113281 C 504.292969 543.730469 503.851562 545.347656 503.320312 546.945312 C 502.289062 550.164062 500.929688 553.34375 499.109375 556.339844 C 497.304688 559.335938 495.007812 562.128906 492.324219 564.480469 C 489.636719 566.835938 486.585938 568.691406 483.421875 570.105469 C 480.261719 571.523438 476.988281 572.53125 473.734375 573.269531 C 467.203125 574.757812 460.695312 575.308594 454.277344 575.582031 C 447.84375 575.859375 441.460938 575.804688 435.117188 575.675781 C 431.9375 575.601562 428.773438 575.511719 425.609375 575.398438 L 423.238281 575.308594 C 422.429688 575.269531 421.601562 575.234375 420.773438 575.179688 C 419.121094 575.085938 417.464844 574.902344 415.808594 574.703125 C 412.5 574.261719 409.152344 573.5625 405.863281 572.421875 C 402.589844 571.265625 399.28125 569.648438 396.410156 567.128906 C 394.976562 565.878906 393.671875 564.390625 392.640625 562.699219 C 391.613281 561.007812 390.859375 559.132812 390.433594 557.222656 C 389.992188 555.308594 389.863281 553.398438 389.957031 551.542969 C 390.03125 549.703125 390.34375 547.847656 390.820312 546.0625 C 391.8125 542.480469 393.632812 539.207031 395.878906 536.449219 C 398.121094 533.675781 400.75 531.359375 403.527344 529.390625 C 406.304688 527.40625 409.246094 525.789062 412.261719 524.375 C 413.769531 523.675781 415.3125 523.03125 416.859375 522.445312 C 417.628906 522.148438 418.421875 521.875 419.210938 521.597656 C 420.019531 521.324219 420.773438 521.082031 421.695312 520.84375 L 419.195312 523.785156 C 421.730469 498.804688 424.324219 473.863281 427.027344 448.898438 C 429.730469 423.9375 432.488281 398.996094 435.597656 374.070312 C 435.835938 372.214844 437.527344 370.890625 439.382812 371.109375 C 441.242188 371.332031 442.566406 373.039062 442.34375 374.898438 L 442.34375 374.914062 C 439.253906 399.765625 436.496094 424.710938 433.792969 449.636719 C 431.109375 474.558594 428.5 499.523438 425.980469 524.464844 L 425.738281 526.761719 L 423.476562 527.40625 C 422.890625 527.570312 422.136719 527.828125 421.4375 528.066406 C 420.738281 528.308594 420.039062 528.582031 419.339844 528.859375 C 417.960938 529.410156 416.582031 530.015625 415.242188 530.660156 C 412.554688 531.964844 410 533.453125 407.664062 535.164062 C 402.976562 538.546875 399.167969 542.9375 397.84375 547.992188 C 397.183594 550.492188 397.054688 553.25 397.625 555.566406 C 398.175781 557.902344 399.445312 559.90625 401.339844 561.539062 C 403.234375 563.175781 405.695312 564.40625 408.363281 565.328125 C 411.03125 566.246094 413.898438 566.851562 416.839844 567.238281 C 418.3125 567.421875 419.800781 567.589844 421.289062 567.660156 C 422.042969 567.714844 422.78125 567.734375 423.550781 567.773438 L 425.90625 567.863281 C 429.050781 567.972656 432.175781 568.066406 435.320312 568.121094 C 441.589844 568.25 447.824219 568.285156 454.003906 568.011719 C 460.164062 567.734375 466.285156 567.183594 472.078125 565.859375 C 477.851562 564.554688 483.238281 562.332031 487.414062 558.746094 C 491.605469 555.179688 494.472656 550.199219 496.292969 544.628906 C 496.753906 543.234375 497.175781 541.816406 497.527344 540.367188 C 497.875 538.914062 498.171875 537.480469 498.484375 535.898438 L 500.320312 526.617188 L 507.640625 489.484375 L 514.957031 452.355469 C 517.386719 439.984375 520.035156 427.632812 523.839844 415.539062 C 524.117188 414.636719 525.089844 414.140625 525.992188 414.417969 C 526.691406 414.691406 527.167969 415.429688 527.113281 416.199219 Z M 527.113281 416.199219 " fill-opacity="1" fill-rule="nonzero"/></g><path fill="#371a45" d="M 484.34375 481.875 C 443.632812 481.875 427.304688 472.722656 426.492188 472.246094 C 424.875 471.308594 424.324219 469.230469 425.261719 467.59375 C 426.199219 465.976562 428.277344 465.425781 429.894531 466.363281 C 430.171875 466.507812 453.339844 479.175781 513.265625 473.679688 C 515.125 473.496094 516.796875 474.871094 516.960938 476.746094 C 517.128906 478.621094 515.75 480.277344 513.890625 480.441406 C 502.878906 481.453125 493.058594 481.875 484.34375 481.875 Z M 484.34375 481.875 " fill-opacity="1" fill-rule="nonzero"/><path fill="#371a45" d="M 420.8125 520.753906 C 423.257812 520.367188 425.5 520.144531 427.835938 519.980469 C 430.152344 519.816406 432.46875 519.722656 434.785156 519.722656 C 439.421875 519.6875 444.054688 519.980469 448.652344 520.625 C 453.25 521.285156 457.808594 522.316406 462.203125 523.859375 C 464.410156 524.632812 466.5625 525.570312 468.640625 526.617188 C 470.71875 527.683594 472.722656 528.914062 474.632812 530.273438 C 475.40625 530.808594 475.570312 531.875 475.039062 532.644531 C 474.523438 533.378906 473.53125 533.582031 472.757812 533.105469 L 472.703125 533.066406 C 470.863281 531.945312 468.96875 530.917969 466.984375 530.054688 C 465 529.207031 462.957031 528.472656 460.878906 527.882812 C 456.707031 526.707031 452.402344 526.007812 448.0625 525.660156 C 443.722656 525.328125 439.347656 525.328125 434.988281 525.640625 C 432.820312 525.789062 430.632812 526.007812 428.480469 526.304688 C 426.347656 526.597656 424.121094 526.964844 422.15625 527.40625 L 422.082031 527.425781 C 420.242188 527.828125 418.421875 526.691406 418.015625 524.851562 C 417.613281 523.011719 418.753906 521.195312 420.589844 520.789062 C 420.664062 520.769531 420.738281 520.753906 420.8125 520.753906 Z M 420.8125 520.753906 " fill-opacity="1" fill-rule="nonzero"/><path fill="#371a45" d="M 605.097656 377.542969 C 604.820312 379.898438 604.453125 382.15625 603.957031 384.363281 C 603.84375 384.898438 603.71875 385.410156 603.589844 385.925781 C 603.203125 387.46875 602.742188 388.957031 602.246094 390.429688 C 601.785156 391.753906 601.269531 393.039062 600.738281 394.289062 C 600.609375 394.601562 600.480469 394.894531 600.332031 395.191406 C 600.1875 395.519531 600.039062 395.832031 599.890625 396.144531 C 599.691406 396.550781 599.507812 396.972656 599.304688 397.378906 C 598.128906 399.710938 596.804688 401.953125 595.367188 404.085938 C 595.09375 404.472656 594.835938 404.859375 594.558594 405.246094 C 594.300781 405.613281 594.042969 405.960938 593.789062 406.3125 C 593.4375 406.789062 593.070312 407.25 592.722656 407.707031 C 592.425781 408.074219 592.132812 408.441406 591.820312 408.8125 C 591.671875 408.976562 591.542969 409.140625 591.398438 409.308594 C 591.085938 409.691406 590.773438 410.0625 590.441406 410.410156 C 590.238281 410.628906 590.035156 410.851562 589.851562 411.070312 C 573.707031 428.792969 547.488281 437.597656 521.320312 438.332031 L 526.25 414.507812 C 532.1875 414.214844 538.089844 413.609375 543.882812 412.707031 L 510.839844 413.867188 C 501.554688 414.195312 493.683594 406.863281 493.351562 397.578125 L 493.132812 391.332031 C 460.585938 395.097656 443.023438 388.703125 438.132812 386.496094 C 438.003906 384.546875 438.023438 382.527344 438.171875 380.46875 C 438.667969 373.152344 439.347656 365.414062 440.121094 357.398438 C 458.046875 365.597656 481.382812 364.769531 492.175781 363.8125 L 491.898438 355.855469 C 491.605469 347.730469 497.195312 340.691406 504.84375 338.832031 C 505.929688 338.558594 507.050781 338.410156 508.210938 338.375 L 586.652344 335.617188 C 595.957031 335.285156 603.828125 342.621094 604.140625 351.902344 Z M 605.097656 377.542969 " fill-opacity="0.25" fill-rule="nonzero"/><path fill="#ffffff" d="M 591.324219 396.515625 L 512.863281 399.269531 C 503.574219 399.601562 495.707031 392.269531 495.375 382.964844 L 493.902344 341.222656 C 493.609375 333.078125 499.199219 326.039062 506.847656 324.203125 C 507.933594 323.925781 509.054688 323.777344 510.214844 323.742188 L 588.65625 320.984375 C 597.960938 320.65625 605.832031 327.988281 606.144531 337.289062 L 607.300781 370.339844 L 607.613281 379.015625 C 607.964844 388.316406 600.609375 396.183594 591.324219 396.515625 Z M 591.324219 396.515625 " fill-opacity="1" fill-rule="nonzero"/><path fill="#371a45" d="M 591.324219 396.515625 L 512.863281 399.269531 C 503.574219 399.601562 495.707031 392.269531 495.375 382.964844 L 493.902344 341.222656 C 493.609375 333.078125 499.199219 326.039062 506.847656 324.203125 C 511.410156 326.996094 514.296875 328.796875 514.296875 328.796875 C 519.296875 362.160156 518.691406 387.046875 570.5625 381.789062 C 588.453125 379.96875 600.277344 374.289062 607.300781 370.355469 L 607.613281 379.03125 C 607.964844 388.316406 600.609375 396.183594 591.324219 396.515625 Z M 591.324219 396.515625 " fill-opacity="0.25" fill-rule="nonzero"/><path fill="#371a45" d="M 513.761719 402.617188 C 508.226562 402.617188 502.988281 400.539062 498.886719 396.734375 C 494.601562 392.746094 492.140625 387.359375 491.9375 381.550781 L 490.574219 342.894531 C 490.152344 330.855469 499.605469 320.726562 511.648438 320.304688 L 587.019531 317.65625 C 592.832031 317.457031 598.382812 319.53125 602.667969 323.523438 C 606.953125 327.511719 609.417969 332.894531 609.621094 338.703125 L 610.980469 377.359375 C 611.402344 389.398438 601.953125 399.527344 589.90625 399.949219 L 514.535156 402.597656 C 514.277344 402.617188 514.019531 402.617188 513.761719 402.617188 Z M 587.792969 324.441406 C 587.609375 324.441406 587.445312 324.441406 587.257812 324.460938 L 511.886719 327.105469 C 503.59375 327.398438 497.085938 334.386719 497.378906 342.675781 L 498.738281 381.332031 C 498.886719 385.320312 500.578125 389.03125 503.539062 391.789062 C 506.480469 394.546875 510.324219 395.960938 514.316406 395.832031 L 589.6875 393.1875 C 593.675781 393.039062 597.390625 391.347656 600.148438 388.390625 C 602.90625 385.449219 604.34375 381.605469 604.195312 377.617188 L 602.835938 338.960938 C 602.6875 334.972656 600.996094 331.261719 598.035156 328.503906 C 595.203125 325.855469 591.597656 324.441406 587.792969 324.441406 Z M 587.792969 324.441406 " fill-opacity="1" fill-rule="nonzero"/><path fill="#ffffff" d="M 594.46875 396.089844 C 593.457031 396.328125 592.410156 396.476562 591.324219 396.515625 L 512.863281 399.269531 C 506.058594 399.511719 500.007812 395.648438 497.140625 389.878906 C 496.09375 387.78125 495.46875 385.449219 495.394531 382.964844 L 494.730469 364.421875 L 494.511719 358.300781 L 493.902344 341.222656 C 493.574219 331.921875 500.929688 324.074219 510.214844 323.742188 L 527.167969 323.152344 C 519.40625 324.898438 513.691406 331.996094 513.984375 340.210938 L 514.773438 362.765625 L 515.453125 381.972656 C 515.785156 391.257812 523.65625 398.589844 532.941406 398.277344 Z M 594.46875 396.089844 " fill-opacity="1" fill-rule="nonzero"/><path fill="#371a45" d="M 594.46875 396.089844 C 593.457031 396.328125 592.410156 396.476562 591.324219 396.515625 L 512.863281 399.269531 C 503.574219 399.601562 495.707031 392.269531 495.394531 382.964844 L 494.511719 358.300781 C 496.644531 362.582031 500.375 367.800781 506.058594 368.167969 C 509.183594 368.371094 512.164062 366.039062 514.757812 362.746094 L 515.4375 381.957031 C 515.765625 391.238281 523.636719 398.574219 532.921875 398.261719 Z M 594.46875 396.089844 " fill-opacity="0.25" fill-rule="nonzero"/><path fill="#371a45" d="M 512.253906 402.671875 C 507.125 402.671875 502.253906 400.742188 498.445312 397.210938 C 494.472656 393.5 492.175781 388.480469 491.992188 383.09375 L 490.519531 341.351562 C 490.117188 330.175781 498.90625 320.746094 510.105469 320.359375 L 527.058594 319.773438 L 527.921875 326.480469 C 521.597656 327.914062 517.164062 333.648438 517.386719 340.121094 L 518.855469 381.863281 C 518.984375 385.449219 520.511719 388.792969 523.160156 391.257812 C 525.808594 393.71875 529.226562 395.023438 532.8125 394.878906 L 594.359375 392.707031 L 595.257812 399.417969 C 594.007812 399.710938 592.722656 399.878906 591.433594 399.914062 L 512.992188 402.671875 C 512.75 402.671875 512.511719 402.671875 512.253906 402.671875 Z M 515.03125 326.976562 L 510.34375 327.144531 C 502.894531 327.398438 497.046875 333.667969 497.324219 341.113281 L 498.796875 382.855469 C 498.925781 386.441406 500.449219 389.769531 503.097656 392.25 C 505.746094 394.710938 509.183594 396.015625 512.75 395.890625 L 517.972656 395.703125 C 514.332031 392.046875 512.238281 387.25 512.054688 382.101562 L 510.582031 340.359375 C 510.417969 335.359375 512.089844 330.652344 515.03125 326.976562 Z M 515.03125 326.976562 " fill-opacity="1" fill-rule="nonzero"/><path fill="#22a7f0" d="M 545.667969 360.339844 C 545.703125 361.882812 543.902344 374.402344 543.902344 374.402344 C 543.902344 374.402344 539.949219 374.511719 535.113281 374.660156 C 529.0625 374.84375 523.949219 368.703125 523.730469 360.984375 C 523.507812 353.246094 528.234375 346.828125 534.285156 346.664062 C 538.367188 346.535156 543.074219 346.40625 543.074219 346.40625 C 543.074219 346.40625 545.59375 357.839844 545.667969 360.339844 Z M 545.667969 360.339844 " fill-opacity="1" fill-rule="nonzero"/><path fill="#371a45" d="M 545.667969 360.339844 C 545.703125 361.882812 543.902344 374.402344 543.902344 374.402344 C 543.902344 374.402344 539.949219 374.511719 535.113281 374.660156 C 529.0625 374.84375 523.949219 368.703125 523.730469 360.984375 C 523.507812 353.246094 528.234375 346.828125 534.285156 346.664062 C 538.367188 346.535156 543.074219 346.40625 543.074219 346.40625 C 543.074219 346.40625 545.59375 357.839844 545.667969 360.339844 Z M 545.667969 360.339844 " fill-opacity="0.35" fill-rule="nonzero"/><path fill="#371a45" d="M 534.855469 377.230469 C 527.554688 377.230469 521.449219 370.0625 521.171875 361.074219 C 520.898438 351.957031 526.746094 344.347656 534.210938 344.128906 L 545.113281 343.816406 L 545.574219 345.875 C 545.996094 347.820312 548.128906 357.675781 548.222656 360.285156 C 548.277344 361.921875 546.863281 371.808594 546.4375 374.785156 L 546.125 376.902344 L 535.183594 377.214844 C 535.074219 377.230469 534.964844 377.230469 534.855469 377.230469 Z M 541.050781 349.015625 L 534.375 349.21875 C 529.722656 349.347656 526.101562 354.605469 526.285156 360.925781 C 526.46875 367.25 530.421875 372.269531 535.039062 372.140625 L 541.695312 371.9375 C 542.449219 366.625 543.128906 361.296875 543.128906 360.414062 C 543.074219 358.980469 541.953125 353.316406 541.050781 349.015625 Z M 541.050781 349.015625 " fill-opacity="1" fill-rule="nonzero"/><path fill="#22a7f0" d="M 554.496094 360.121094 C 554.523438 361.039062 554.480469 361.953125 554.363281 362.859375 C 554.25 363.761719 554.066406 364.644531 553.816406 365.503906 C 553.566406 366.359375 553.253906 367.175781 552.875 367.953125 C 552.496094 368.730469 552.0625 369.449219 551.570312 370.113281 C 551.082031 370.78125 550.542969 371.375 549.960938 371.90625 C 549.375 372.433594 548.757812 372.882812 548.101562 373.253906 C 547.445312 373.625 546.765625 373.910156 546.066406 374.109375 C 545.363281 374.3125 544.652344 374.421875 543.933594 374.441406 C 543.210938 374.464844 542.496094 374.394531 541.785156 374.238281 C 541.074219 374.078125 540.378906 373.832031 539.703125 373.5 C 539.027344 373.167969 538.382812 372.753906 537.765625 372.261719 C 537.152344 371.769531 536.582031 371.203125 536.054688 370.570312 C 535.523438 369.933594 535.050781 369.242188 534.625 368.488281 C 534.203125 367.734375 533.84375 366.9375 533.542969 366.097656 C 533.242188 365.253906 533.007812 364.386719 532.839844 363.488281 C 532.671875 362.589844 532.574219 361.683594 532.550781 360.761719 C 532.523438 359.84375 532.566406 358.933594 532.679688 358.027344 C 532.792969 357.121094 532.976562 356.238281 533.226562 355.382812 C 533.476562 354.523438 533.792969 353.707031 534.171875 352.929688 C 534.546875 352.15625 534.980469 351.433594 535.472656 350.769531 C 535.960938 350.105469 536.5 349.507812 537.085938 348.980469 C 537.667969 348.449219 538.289062 348 538.941406 347.628906 C 539.597656 347.257812 540.277344 346.972656 540.976562 346.773438 C 541.679688 346.574219 542.390625 346.460938 543.113281 346.441406 C 543.832031 346.417969 544.546875 346.488281 545.261719 346.648438 C 545.972656 346.804688 546.664062 347.050781 547.34375 347.382812 C 548.019531 347.714844 548.664062 348.128906 549.277344 348.621094 C 549.890625 349.113281 550.460938 349.679688 550.992188 350.3125 C 551.519531 350.949219 551.996094 351.644531 552.417969 352.394531 C 552.839844 353.148438 553.203125 353.945312 553.503906 354.785156 C 553.804688 355.628906 554.039062 356.496094 554.203125 357.394531 C 554.371094 358.292969 554.46875 359.199219 554.496094 360.121094 Z M 554.496094 360.121094 " fill-opacity="1" fill-rule="nonzero"/><path fill="#371a45" d="M 532.539062 360.726562 C 532.757812 368.464844 537.851562 374.585938 543.917969 374.402344 C 549.988281 374.21875 554.714844 367.800781 554.472656 360.0625 C 554.457031 359.015625 554.328125 358.003906 554.125 357.011719 C 552.726562 362.378906 548.828125 366.277344 544.121094 366.40625 C 538.882812 366.550781 534.375 362.011719 533.105469 355.78125 C 532.664062 357.34375 532.480469 358.996094 532.539062 360.726562 Z M 532.539062 360.726562 " fill-opacity="0.35" fill-rule="nonzero"/><path fill="#ffffff" d="M 532.539062 360.726562 C 532.554688 361.257812 532.59375 361.773438 532.664062 362.289062 C 533.695312 356.183594 537.871094 351.589844 542.980469 351.441406 C 548.625 351.277344 553.445312 356.589844 554.234375 363.574219 C 554.4375 362.453125 554.511719 361.277344 554.472656 360.082031 C 554.253906 352.34375 549.160156 346.222656 543.09375 346.40625 C 537.042969 346.589844 532.296875 352.988281 532.539062 360.726562 Z M 532.539062 360.726562 " fill-opacity="1" fill-rule="nonzero"/><path fill="#371a45" d="M 543.660156 376.972656 C 536.363281 376.972656 530.257812 369.804688 529.980469 360.816406 C 529.851562 356.515625 531.066406 352.398438 533.402344 349.238281 C 535.867188 345.890625 539.285156 343.980469 543.019531 343.871094 C 546.75 343.777344 550.261719 345.46875 552.929688 348.667969 C 555.449219 351.683594 556.902344 355.726562 557.03125 360.027344 C 557.160156 364.328125 555.945312 368.445312 553.609375 371.605469 C 551.144531 374.953125 547.726562 376.863281 543.992188 376.972656 C 543.882812 376.957031 543.773438 376.972656 543.660156 376.972656 Z M 543.347656 348.941406 C 543.292969 348.941406 543.21875 348.941406 543.164062 348.941406 C 541.03125 349 539.027344 350.175781 537.5 352.234375 C 535.847656 354.476562 534.984375 357.472656 535.074219 360.652344 C 535.257812 366.976562 539.195312 371.992188 543.828125 371.863281 C 545.960938 371.808594 547.964844 370.632812 549.492188 368.574219 C 551.144531 366.332031 552.011719 363.335938 551.917969 360.15625 C 551.824219 356.976562 550.796875 354.054688 548.996094 351.902344 C 547.414062 349.992188 545.410156 348.941406 543.347656 348.941406 Z M 543.347656 348.941406 " fill-opacity="1" fill-rule="nonzero"/><path fill="#371a45" d="M 566.921875 399.621094 C 565.523438 399.621094 564.386719 398.5 564.367188 397.101562 L 564.128906 375.964844 C 564.054688 370.191406 566.867188 364.824219 571.648438 361.570312 C 575.085938 359.238281 577.054688 355.375 576.925781 351.222656 L 575.988281 321.445312 C 575.949219 320.03125 577.054688 318.851562 578.453125 318.816406 C 579.867188 318.796875 581.042969 319.882812 581.082031 321.277344 L 582.019531 351.058594 C 582.203125 356.957031 579.390625 362.472656 574.515625 365.78125 C 571.171875 368.058594 569.183594 371.828125 569.238281 375.890625 L 569.480469 397.027344 C 569.496094 398.445312 568.375 399.582031 566.960938 399.601562 C 566.960938 399.621094 566.941406 399.621094 566.921875 399.621094 Z M 566.921875 399.621094 " fill-opacity="1" fill-rule="nonzero"/><path fill="#ffffff" d="M 441.242188 342.363281 C 441.242188 342.363281 430.960938 343.722656 430.632812 355.726562 C 430.28125 368.648438 438.722656 371.183594 438.722656 371.183594 C 438.722656 371.183594 458.875 382.765625 504.089844 375.484375 C 504.089844 375.484375 515.511719 358.042969 500.15625 348.5 C 500.15625 348.5 465.402344 353.941406 441.242188 342.363281 Z M 441.242188 342.363281 " fill-opacity="1" fill-rule="nonzero"/><path fill="#371a45" d="M 504.109375 375.484375 C 458.894531 382.765625 438.738281 371.183594 438.738281 371.183594 C 438.738281 371.183594 430.300781 368.648438 430.648438 355.742188 C 430.6875 354.734375 430.777344 353.796875 430.945312 352.933594 C 433.351562 357.324219 436.976562 358.410156 436.976562 358.410156 C 436.976562 358.410156 454.941406 368.738281 495.027344 363.757812 C 500.304688 363.097656 504.699219 359.292969 505.875 354.125 C 505.894531 354.070312 505.894531 354.035156 505.910156 353.980469 C 511.941406 363.5 504.109375 375.484375 504.109375 375.484375 Z M 504.109375 375.484375 " fill-opacity="0.25" fill-rule="nonzero"/><path fill="#371a45" d="M 475.828125 381.109375 C 451.628906 381.109375 439.421875 375.210938 437.398438 374.125 C 435.410156 373.371094 427.046875 369.347656 427.414062 355.652344 C 427.671875 345.945312 433.5 341.902344 436.957031 340.359375 C 439.328125 339.292969 442.105469 339.292969 444.53125 340.339844 C 464.003906 348.742188 489.894531 346.515625 497.378906 345.632812 C 499.972656 345.320312 502.601562 346.09375 504.570312 347.730469 C 511.90625 353.8125 513.414062 363.261719 508.707031 373.648438 C 507.34375 376.625 504.605469 378.703125 501.351562 379.160156 C 491.699219 380.558594 483.203125 381.109375 475.828125 381.109375 Z M 440.746094 345.984375 C 440.339844 345.984375 439.953125 346.058594 439.585938 346.222656 C 435.910156 347.875 433.976562 351.09375 433.847656 355.816406 C 433.574219 366.167969 439.585938 368.078125 439.640625 368.097656 C 439.878906 368.167969 440.101562 368.261719 440.320312 368.390625 C 440.488281 368.480469 459.335938 378.757812 500.414062 372.785156 C 501.480469 372.636719 502.398438 371.957031 502.839844 370.980469 C 505.285156 365.578125 506.867188 358.003906 500.449219 352.675781 C 499.824219 352.160156 498.980469 351.921875 498.132812 352.03125 C 490.261719 352.96875 462.921875 355.285156 441.996094 346.257812 C 441.589844 346.074219 441.167969 345.984375 440.746094 345.984375 Z M 440.746094 345.984375 " fill-opacity="1" fill-rule="nonzero"/><path fill="#ffffff" d="M 486.292969 248.949219 L 475.699219 266.925781 L 448.613281 312.824219 L 447.769531 314.257812 C 446.59375 313.355469 445.433594 312.4375 444.273438 311.519531 C 392.53125 270.859375 346.210938 218.65625 340.417969 215.714844 C 323.410156 207.078125 309.492188 191.378906 308.371094 181.765625 C 306.238281 163.640625 330.839844 135.609375 334.867188 131.160156 C 335.234375 130.757812 335.417969 130.554688 335.417969 130.554688 C 335.417969 130.554688 314.089844 100.648438 328.082031 90.871094 C 342.425781 80.851562 376.570312 129.011719 378.90625 131.878906 C 383.265625 137.265625 393.910156 112.046875 408.785156 113.609375 C 426.53125 115.484375 403.289062 153.699219 404.613281 157.832031 C 406.15625 162.648438 418.570312 179.484375 440.15625 202.941406 C 442.179688 205.128906 444.273438 207.371094 446.445312 209.667969 C 457.699219 221.5625 471.03125 234.851562 486.292969 248.949219 Z M 486.292969 248.949219 " fill-opacity="1" fill-rule="nonzero"/><path fill="#371a45" d="M 448.613281 312.824219 L 447.769531 314.257812 C 446.59375 313.355469 445.433594 312.4375 444.273438 311.519531 C 392.53125 270.859375 346.210938 218.65625 340.417969 215.714844 C 323.410156 207.078125 309.492188 191.378906 308.371094 181.765625 C 306.238281 163.640625 330.839844 135.609375 334.867188 131.160156 C 347.609375 141.417969 377.507812 165.167969 377.507812 165.167969 C 377.507812 165.167969 377.234375 248.414062 448.613281 312.824219 Z M 448.613281 312.824219 " fill-opacity="0.25" fill-rule="nonzero"/><path fill="#371a45" d="M 447.769531 317.65625 C 447.050781 317.65625 446.316406 317.417969 445.691406 316.941406 C 409.816406 289.242188 376.238281 255.53125 356.179688 235.382812 C 348.125 227.296875 340.511719 219.648438 338.855469 218.730469 C 321.515625 209.925781 306.308594 193.511719 304.984375 182.152344 C 302.851562 163.878906 324.53125 137.722656 331.117188 130.261719 C 327.363281 124.472656 318.242188 108.976562 320.191406 97.652344 C 320.890625 93.574219 322.894531 90.355469 326.132812 88.09375 C 336.796875 80.648438 354.558594 93.773438 380.414062 128.257812 C 380.5625 128.441406 380.691406 128.605469 380.800781 128.773438 C 381.996094 127.796875 383.871094 125.738281 385.324219 124.140625 C 391.058594 117.816406 398.949219 109.160156 409.136719 110.246094 C 413.714844 110.722656 416.050781 113.113281 417.191406 115.023438 C 421.492188 122.230469 417.003906 134.582031 411.160156 148.769531 C 409.851562 151.914062 408.269531 155.792969 407.996094 157.207031 C 410.847656 164.136719 438.410156 200.074219 488.570312 246.449219 C 489.949219 247.71875 490.042969 249.867188 488.753906 251.246094 C 487.488281 252.625 485.335938 252.71875 483.957031 251.429688 C 433.867188 205.148438 404.023438 167.152344 401.375 158.898438 C 400.660156 156.636719 401.707031 153.882812 404.871094 146.199219 C 408.160156 138.21875 414.265625 123.386719 411.359375 118.515625 C 411.011719 117.925781 410.347656 117.210938 408.4375 117.007812 C 401.671875 116.292969 395.398438 123.183594 390.363281 128.71875 C 386.445312 133.019531 383.59375 136.144531 380.191406 136.050781 C 378.667969 136.015625 377.269531 135.296875 376.257812 134.046875 C 376.054688 133.789062 375.613281 133.203125 374.972656 132.355469 C 371.605469 127.871094 362.667969 115.960938 352.921875 106.238281 C 342.222656 95.558594 333.875 90.980469 330.011719 93.683594 C 328.300781 94.878906 327.273438 96.550781 326.886719 98.8125 C 325.285156 108.019531 334.5 123.441406 338.175781 128.605469 C 339.113281 129.929688 339.003906 131.714844 337.902344 132.890625 C 330.03125 141.328125 309.988281 166.492188 311.734375 181.378906 C 312.671875 189.414062 325.324219 204.246094 341.964844 212.703125 C 344.300781 213.878906 349.191406 218.75 360.996094 230.621094 C 380.929688 250.640625 414.320312 284.167969 449.847656 311.59375 C 451.335938 312.730469 451.613281 314.863281 450.453125 316.351562 C 449.792969 317.199219 448.796875 317.65625 447.769531 317.65625 Z M 447.769531 317.65625 " fill-opacity="1" fill-rule="nonzero"/><path fill="#ffffff" d="M 332.457031 211.011719 C 332.457031 211.011719 326.847656 207.589844 321.039062 202.039062 C 314.253906 195.550781 307.191406 186.160156 308.515625 175.847656 C 310.960938 156.75 335.417969 130.535156 335.417969 130.535156 C 342.554688 129.855469 352.078125 135.023438 360.351562 142.191406 C 369.96875 150.5 377.839844 161.507812 378.300781 169.101562 C 378.886719 179.613281 357.832031 215.753906 332.457031 211.011719 Z M 332.457031 211.011719 " fill-opacity="1" fill-rule="nonzero"/><path fill="#371a45" d="M 332.457031 211.011719 C 332.457031 211.011719 326.847656 207.589844 321.039062 202.039062 C 326.410156 200.9375 333.597656 197.648438 341.429688 189.042969 C 357.59375 171.308594 365.28125 158.054688 360.351562 142.171875 C 369.96875 150.480469 377.839844 161.492188 378.300781 169.082031 C 378.886719 179.613281 357.832031 215.753906 332.457031 211.011719 Z M 332.457031 211.011719 " fill-opacity="0.25" fill-rule="nonzero"/><path fill="#371a45" d="M 333.671875 207.847656 C 334.09375 207.847656 334.5 207.867188 334.902344 207.921875 C 335.070312 207.957031 335.382812 207.957031 335.675781 207.976562 L 336.539062 208.015625 C 337.128906 208.070312 337.699219 207.996094 338.285156 207.976562 L 339.152344 207.941406 L 340.015625 207.8125 C 342.332031 207.5 344.628906 206.835938 346.855469 205.863281 C 351.289062 203.878906 355.371094 200.902344 358.992188 197.335938 C 362.613281 193.785156 365.8125 189.726562 368.515625 185.367188 C 369.878906 183.199219 371.109375 180.957031 372.15625 178.660156 C 373.207031 176.378906 374.105469 174.007812 374.601562 171.785156 L 374.75 170.976562 C 374.804688 170.699219 374.804688 170.480469 374.84375 170.222656 C 374.878906 169.945312 374.859375 169.761719 374.878906 169.558594 C 374.898438 169.375 374.859375 169.121094 374.824219 168.863281 C 374.75 167.871094 374.4375 166.785156 374.070312 165.699219 C 373.296875 163.511719 372.140625 161.324219 370.796875 159.210938 C 368.09375 154.984375 364.710938 151.03125 361.015625 147.464844 C 357.300781 143.898438 353.234375 140.664062 348.898438 138.109375 C 346.726562 136.84375 344.484375 135.738281 342.222656 134.96875 C 339.980469 134.195312 337.699219 133.808594 335.710938 133.957031 L 337.882812 132.890625 C 335.253906 135.777344 332.640625 138.902344 330.160156 142.023438 C 327.675781 145.167969 325.324219 148.402344 323.078125 151.695312 C 320.875 155.003906 318.796875 158.382812 316.976562 161.859375 C 316.496094 162.722656 316.128906 163.605469 315.6875 164.488281 L 315.0625 165.8125 C 314.859375 166.25 314.695312 166.691406 314.511719 167.152344 C 314.160156 168.054688 313.777344 168.933594 313.464844 169.816406 L 312.636719 172.5 C 312.46875 172.941406 312.398438 173.402344 312.324219 173.84375 L 312.066406 175.183594 C 311.992188 175.625 311.863281 176.085938 311.828125 176.507812 L 311.714844 177.777344 C 311.660156 179.46875 311.863281 181.175781 312.304688 182.886719 C 313.152344 186.289062 314.914062 189.597656 317.140625 192.628906 C 319.367188 195.679688 322.03125 198.492188 324.9375 201.101562 C 326.390625 202.40625 327.898438 203.640625 329.441406 204.835938 C 330.214844 205.421875 331.003906 206.011719 331.796875 206.5625 L 332.992188 207.390625 L 333.597656 207.792969 L 333.890625 207.976562 L 334.039062 208.070312 L 334.113281 208.105469 C 334.074219 208.03125 333.835938 207.902344 333.671875 207.847656 Z M 331.246094 214.191406 C 331.023438 214.097656 330.730469 213.933594 330.582031 213.859375 L 330.492188 213.804688 L 330.304688 213.695312 L 329.957031 213.472656 L 329.277344 213.03125 L 327.953125 212.113281 C 327.070312 211.507812 326.222656 210.863281 325.378906 210.21875 C 323.6875 208.933594 322.050781 207.574219 320.449219 206.140625 C 317.269531 203.289062 314.289062 200.164062 311.699219 196.617188 C 309.125 193.089844 306.898438 189.082031 305.757812 184.542969 C 305.1875 182.28125 304.894531 179.910156 304.96875 177.519531 L 305.113281 175.738281 C 305.171875 175.148438 305.316406 174.617188 305.410156 174.046875 L 305.738281 172.371094 C 305.851562 171.820312 305.941406 171.25 306.125 170.738281 C 308.554688 162.191406 312.875 154.875 317.472656 147.890625 C 322.179688 140.960938 327.273438 134.46875 332.9375 128.238281 C 333.507812 127.597656 334.296875 127.246094 335.085938 127.191406 C 338.488281 126.914062 341.597656 127.578125 344.429688 128.535156 C 347.261719 129.507812 349.871094 130.8125 352.335938 132.246094 C 357.28125 135.152344 361.675781 138.679688 365.722656 142.558594 C 369.75 146.457031 373.445312 150.71875 376.535156 155.554688 C 378.058594 157.980469 379.457031 160.570312 380.488281 163.457031 C 380.984375 164.929688 381.40625 166.4375 381.570312 168.144531 C 381.683594 168.917969 381.683594 169.984375 381.609375 170.808594 C 381.554688 171.214844 381.535156 171.65625 381.460938 172.058594 L 381.242188 173.238281 C 380.5625 176.269531 379.511719 178.933594 378.316406 181.546875 C 377.121094 184.136719 375.761719 186.617188 374.273438 189.007812 C 371.292969 193.785156 367.800781 198.234375 363.734375 202.242188 C 359.691406 206.230469 354.984375 209.722656 349.578125 212.148438 C 346.855469 213.328125 343.949219 214.191406 340.933594 214.59375 L 339.8125 214.742188 L 338.671875 214.796875 C 337.917969 214.832031 337.148438 214.886719 336.394531 214.832031 L 335.253906 214.777344 C 334.867188 214.761719 334.515625 214.761719 334.019531 214.6875 C 333.082031 214.539062 332.144531 214.375 331.246094 214.191406 Z M 331.246094 214.191406 " fill-opacity="1" fill-rule="nonzero"/><path fill="#371a45" d="M 387.015625 264.445312 C 385.765625 264.445312 384.570312 263.746094 383.960938 262.550781 C 383.136719 260.878906 383.816406 258.839844 385.488281 257.992188 C 385.875 257.789062 424.96875 238.03125 438.316406 203.859375 C 438.996094 202.113281 440.964844 201.25 442.710938 201.929688 C 444.457031 202.609375 445.324219 204.578125 444.644531 206.324219 C 430.320312 242.976562 390.195312 263.230469 388.503906 264.078125 C 388.042969 264.335938 387.53125 264.445312 387.015625 264.445312 Z M 387.015625 264.445312 " fill-opacity="1" fill-rule="nonzero"/><path fill="#ffffff" d="M 428.515625 139.433594 L 434.472656 141.695312 C 435.539062 142.097656 436.734375 141.566406 437.140625 140.5 L 464.410156 68.703125 C 464.8125 67.636719 464.28125 66.441406 463.214844 66.039062 L 457.257812 63.777344 C 446.023438 59.511719 433.464844 65.15625 429.195312 76.386719 L 415.882812 111.382812 C 411.617188 122.613281 417.28125 135.1875 428.515625 139.433594 Z M 428.515625 139.433594 " fill-opacity="1" fill-rule="nonzero"/><path fill="#371a45" d="M 435.210938 142.464844 C 434.878906 142.464844 434.566406 142.410156 434.253906 142.28125 L 428.296875 140.023438 C 416.765625 135.648438 410.9375 122.6875 415.3125 111.164062 L 428.609375 76.164062 C 430.722656 70.578125 434.898438 66.148438 440.359375 63.703125 C 445.820312 61.257812 451.886719 61.074219 457.476562 63.1875 L 463.433594 65.449219 C 464.117188 65.707031 464.648438 66.203125 464.941406 66.863281 C 465.238281 67.527344 465.253906 68.261719 465 68.921875 L 437.730469 140.71875 C 437.472656 141.398438 436.976562 141.933594 436.3125 142.226562 C 435.964844 142.394531 435.578125 142.464844 435.210938 142.464844 Z M 428.738281 138.863281 L 434.695312 141.125 C 435.449219 141.398438 436.277344 141.03125 436.570312 140.277344 L 463.839844 68.480469 C 464.117188 67.726562 463.746094 66.902344 462.992188 66.605469 L 457.035156 64.347656 C 446.132812 60.210938 433.921875 65.707031 429.785156 76.589844 L 416.492188 111.585938 C 412.335938 122.503906 417.832031 134.726562 428.738281 138.863281 Z M 428.738281 138.863281 " fill-opacity="1" fill-rule="nonzero"/><path fill="#371a45" d="M 422.246094 94.636719 L 417.945312 105.960938 C 412.539062 120.1875 419.707031 136.105469 433.941406 141.511719 C 435.300781 142.023438 436.808594 141.34375 437.324219 139.984375 L 444.476562 121.179688 C 443.777344 121.898438 442.695312 122.15625 441.683594 121.789062 L 440.007812 121.144531 C 428.773438 116.878906 421.933594 106.035156 422.246094 94.636719 Z M 422.246094 94.636719 " fill-opacity="0.25" fill-rule="nonzero"/><path fill="#371a45" d="M 435.191406 145.316406 C 434.53125 145.316406 433.867188 145.207031 433.222656 144.949219 L 427.265625 142.6875 C 414.246094 137.742188 407.683594 123.148438 412.628906 110.152344 L 425.925781 75.15625 C 430.871094 62.140625 445.46875 55.578125 458.46875 60.523438 L 464.429688 62.785156 C 467.296875 63.867188 468.730469 67.085938 467.644531 69.953125 L 440.375 141.75 C 439.550781 143.957031 437.433594 145.316406 435.191406 145.316406 Z M 429.75 136.179688 L 434.382812 137.945312 L 460.640625 68.792969 L 456.007812 67.03125 C 451.445312 65.300781 446.480469 65.449219 442.03125 67.453125 C 437.582031 69.457031 434.179688 73.058594 432.453125 77.636719 L 419.15625 112.632812 C 415.570312 122.046875 420.332031 132.613281 429.75 136.179688 Z M 429.75 136.179688 " fill-opacity="1" fill-rule="nonzero"/><path fill="#ffffff" d="M 701.742188 156.566406 L 695.785156 154.304688 C 694.71875 153.898438 693.523438 154.433594 693.121094 155.5 L 665.851562 227.296875 C 665.445312 228.363281 665.980469 229.558594 667.046875 229.960938 L 673.003906 232.222656 C 684.238281 236.488281 696.796875 230.84375 701.0625 219.613281 L 714.355469 184.613281 C 718.640625 173.382812 712.976562 160.828125 701.742188 156.566406 Z M 701.742188 156.566406 " fill-opacity="1" fill-rule="nonzero"/><path fill="#371a45" d="M 680.742188 234.28125 C 678.058594 234.28125 675.375 233.785156 672.78125 232.808594 L 666.824219 230.550781 C 666.144531 230.292969 665.609375 229.796875 665.316406 229.132812 C 665.023438 228.472656 665.003906 227.738281 665.261719 227.074219 L 692.53125 155.277344 C 692.789062 154.597656 693.285156 154.066406 693.945312 153.769531 C 694.609375 153.476562 695.34375 153.457031 696.007812 153.714844 L 701.964844 155.976562 C 713.492188 160.351562 719.320312 173.308594 714.945312 184.835938 L 701.652344 219.832031 C 699.535156 225.421875 695.363281 229.851562 689.902344 232.296875 C 686.976562 233.617188 683.871094 234.28125 680.742188 234.28125 Z M 695.050781 154.800781 C 694.847656 154.800781 694.644531 154.835938 694.460938 154.929688 C 694.113281 155.09375 693.835938 155.371094 693.707031 155.738281 L 666.4375 227.535156 C 666.308594 227.902344 666.308594 228.289062 666.476562 228.636719 C 666.640625 228.988281 666.917969 229.261719 667.285156 229.390625 L 673.242188 231.652344 C 678.519531 233.65625 684.257812 233.492188 689.40625 231.175781 C 694.554688 228.859375 698.488281 224.6875 700.492188 219.410156 L 713.789062 184.414062 C 715.792969 179.136719 715.625 173.402344 713.308594 168.253906 C 710.992188 163.109375 706.816406 159.175781 701.539062 157.171875 L 695.582031 154.910156 C 695.398438 154.820312 695.234375 154.800781 695.050781 154.800781 Z M 695.050781 154.800781 " fill-opacity="1" fill-rule="nonzero"/><path fill="#371a45" d="M 673.5 207.148438 L 666.050781 226.78125 C 665.539062 228.140625 666.21875 229.648438 667.578125 230.183594 C 675.042969 233.011719 682.988281 232.386719 689.644531 229.097656 C 695.636719 226.121094 700.585938 220.953125 703.140625 214.191406 L 707.003906 204.023438 C 699.574219 211.414062 688.210938 214.207031 677.765625 210.257812 L 675.191406 209.28125 C 674.234375 208.894531 673.644531 208.070312 673.5 207.148438 Z M 673.5 207.148438 " fill-opacity="0.25" fill-rule="nonzero"/><path fill="#371a45" d="M 680.742188 237.148438 C 677.710938 237.148438 674.695312 236.597656 671.769531 235.492188 L 665.8125 233.234375 C 664.433594 232.699219 663.332031 231.671875 662.722656 230.308594 C 662.117188 228.949219 662.0625 227.441406 662.59375 226.0625 L 689.863281 154.265625 C 690.398438 152.886719 691.425781 151.785156 692.789062 151.179688 C 694.148438 150.574219 695.65625 150.515625 697.035156 151.050781 L 702.992188 153.3125 C 709.300781 155.699219 714.285156 160.40625 717.058594 166.546875 C 719.820312 172.683594 720.039062 179.542969 717.628906 185.847656 L 704.335938 220.84375 C 701.945312 227.148438 697.238281 232.128906 691.097656 234.90625 C 687.785156 236.394531 684.273438 237.148438 680.742188 237.148438 Z M 669.621094 227.222656 L 674.253906 228.988281 C 678.8125 230.714844 683.777344 230.566406 688.226562 228.5625 C 692.679688 226.5625 696.078125 222.957031 697.808594 218.382812 L 711.101562 183.382812 C 714.667969 173.972656 709.925781 163.402344 700.511719 159.816406 L 695.878906 158.054688 Z M 669.621094 227.222656 " fill-opacity="1" fill-rule="nonzero"/><path fill="#371a45" d="M 609.160156 285.621094 C 604.617188 287.9375 599.890625 289.957031 595.074219 291.667969 C 580.070312 296.960938 563.90625 299.277344 547.488281 298.101562 C 539.007812 297.476562 530.460938 295.929688 521.964844 293.394531 C 504.109375 288.027344 488.480469 278.820312 475.679688 266.925781 C 463.710938 255.804688 454.242188 242.351562 447.789062 227.515625 C 444.367188 219.667969 441.8125 211.453125 440.15625 202.976562 C 442.179688 205.164062 444.273438 207.40625 446.445312 209.707031 C 446.113281 206.964844 445.746094 204.320312 445.304688 201.765625 C 443.761719 192.738281 446.519531 192.574219 447.105469 183.4375 C 447.714844 174.414062 481.527344 174.007812 515.398438 179.394531 C 540.332031 184.667969 576.832031 189.375 583.96875 209.707031 C 584.410156 214.191406 586.503906 219.960938 588.011719 224.0625 L 591.582031 259.152344 C 596.140625 265.769531 602.410156 275.085938 609.160156 285.621094 Z M 609.160156 285.621094 " fill-opacity="0.25" fill-rule="nonzero"/><path fill="#ffffff" d="M 694.128906 148 C 694.128906 150.109375 694.078125 152.21875 693.976562 154.328125 C 693.871094 156.433594 693.714844 158.539062 693.507812 160.640625 C 693.300781 162.738281 693.042969 164.835938 692.734375 166.921875 C 692.425781 169.007812 692.0625 171.089844 691.652344 173.160156 C 691.238281 175.230469 690.777344 177.289062 690.265625 179.335938 C 689.75 181.382812 689.1875 183.414062 688.574219 185.433594 C 687.960938 187.453125 687.300781 189.457031 686.589844 191.445312 C 685.878906 193.433594 685.117188 195.402344 684.308594 197.351562 C 683.503906 199.300781 682.648438 201.230469 681.742188 203.136719 C 680.839844 205.046875 679.890625 206.929688 678.898438 208.792969 C 677.902344 210.652344 676.863281 212.488281 675.777344 214.300781 C 674.691406 216.109375 673.5625 217.890625 672.386719 219.648438 C 671.214844 221.402344 670 223.128906 668.742188 224.820312 C 667.484375 226.515625 666.1875 228.179688 664.847656 229.8125 C 663.507812 231.445312 662.128906 233.042969 660.710938 234.605469 C 659.292969 236.167969 657.835938 237.699219 656.34375 239.191406 C 654.851562 240.683594 653.324219 242.136719 651.757812 243.554688 C 650.195312 244.972656 648.59375 246.351562 646.964844 247.6875 C 645.332031 249.027344 643.667969 250.324219 641.972656 251.582031 C 640.277344 252.839844 638.550781 254.054688 636.792969 255.226562 C 635.039062 256.402344 633.257812 257.527344 631.445312 258.613281 C 629.632812 259.699219 627.796875 260.738281 625.933594 261.734375 C 624.074219 262.730469 622.1875 263.679688 620.28125 264.582031 C 618.371094 265.484375 616.441406 266.335938 614.492188 267.144531 C 612.539062 267.953125 610.570312 268.710938 608.582031 269.421875 C 606.59375 270.132812 604.589844 270.796875 602.570312 271.410156 C 600.550781 272.023438 598.515625 272.585938 596.46875 273.097656 C 594.417969 273.609375 592.359375 274.074219 590.289062 274.484375 C 588.21875 274.894531 586.140625 275.257812 584.050781 275.566406 C 581.960938 275.875 579.867188 276.132812 577.765625 276.339844 C 575.664062 276.546875 573.558594 276.703125 571.449219 276.808594 C 569.34375 276.910156 567.230469 276.960938 565.121094 276.960938 C 563.007812 276.960938 560.898438 276.910156 558.789062 276.808594 C 556.679688 276.703125 554.578125 276.546875 552.476562 276.339844 C 550.375 276.132812 548.28125 275.875 546.191406 275.566406 C 544.101562 275.257812 542.023438 274.894531 539.953125 274.484375 C 537.882812 274.074219 535.820312 273.609375 533.773438 273.097656 C 531.726562 272.585938 529.691406 272.023438 527.671875 271.410156 C 525.652344 270.796875 523.644531 270.132812 521.660156 269.421875 C 519.671875 268.710938 517.703125 267.953125 515.75 267.144531 C 513.800781 266.335938 511.871094 265.484375 509.960938 264.582031 C 508.054688 263.679688 506.167969 262.730469 504.304688 261.734375 C 502.445312 260.738281 500.605469 259.699219 498.796875 258.613281 C 496.984375 257.527344 495.203125 256.402344 493.445312 255.226562 C 491.691406 254.054688 489.964844 252.839844 488.269531 251.582031 C 486.574219 250.324219 484.910156 249.027344 483.277344 247.6875 C 481.644531 246.351562 480.046875 244.972656 478.484375 243.554688 C 476.917969 242.136719 475.390625 240.683594 473.898438 239.191406 C 472.402344 237.699219 470.949219 236.167969 469.53125 234.605469 C 468.113281 233.042969 466.734375 231.445312 465.394531 229.8125 C 464.054688 228.179688 462.757812 226.515625 461.5 224.820312 C 460.242188 223.128906 459.027344 221.402344 457.851562 219.648438 C 456.679688 217.890625 455.550781 216.109375 454.464844 214.300781 C 453.378906 212.488281 452.339844 210.652344 451.34375 208.792969 C 450.347656 206.929688 449.398438 205.046875 448.496094 203.136719 C 447.59375 201.230469 446.738281 199.300781 445.929688 197.351562 C 445.125 195.402344 444.363281 193.433594 443.652344 191.445312 C 442.941406 189.457031 442.277344 187.453125 441.664062 185.433594 C 441.054688 183.414062 440.488281 181.382812 439.976562 179.335938 C 439.464844 177.289062 439 175.230469 438.589844 173.160156 C 438.179688 171.089844 437.816406 169.007812 437.507812 166.921875 C 437.199219 164.835938 436.9375 162.738281 436.730469 160.640625 C 436.523438 158.539062 436.371094 156.433594 436.265625 154.328125 C 436.164062 152.21875 436.109375 150.109375 436.109375 148 C 436.109375 145.886719 436.164062 143.78125 436.265625 141.671875 C 436.371094 139.5625 436.523438 137.460938 436.730469 135.359375 C 436.9375 133.257812 437.199219 131.164062 437.507812 129.078125 C 437.816406 126.988281 438.179688 124.910156 438.589844 122.839844 C 439 120.769531 439.464844 118.710938 439.976562 116.664062 C 440.488281 114.617188 441.054688 112.582031 441.664062 110.5625 C 442.277344 108.542969 442.941406 106.539062 443.652344 104.554688 C 444.363281 102.566406 445.125 100.597656 445.929688 98.648438 C 446.738281 96.699219 447.59375 94.769531 448.496094 92.859375 C 449.398438 90.953125 450.347656 89.066406 451.34375 87.207031 C 452.339844 85.34375 453.378906 83.507812 454.464844 81.699219 C 455.550781 79.890625 456.679688 78.105469 457.851562 76.351562 C 459.027344 74.597656 460.242188 72.871094 461.5 71.175781 C 462.757812 69.480469 464.054688 67.816406 465.394531 66.1875 C 466.734375 64.554688 468.113281 62.957031 469.53125 61.394531 C 470.949219 59.828125 472.402344 58.300781 473.898438 56.808594 C 475.390625 55.316406 476.917969 53.863281 478.484375 52.445312 C 480.046875 51.027344 481.644531 49.648438 483.277344 48.308594 C 484.910156 46.972656 486.574219 45.671875 488.269531 44.414062 C 489.964844 43.15625 491.691406 41.941406 493.445312 40.769531 C 495.203125 39.597656 496.984375 38.46875 498.796875 37.382812 C 500.605469 36.300781 502.445312 35.257812 504.304688 34.265625 C 506.167969 33.269531 508.054688 32.320312 509.960938 31.417969 C 511.871094 30.515625 513.800781 29.660156 515.75 28.851562 C 517.703125 28.046875 519.671875 27.285156 521.660156 26.574219 C 523.644531 25.863281 525.652344 25.203125 527.671875 24.589844 C 529.691406 23.976562 531.726562 23.414062 533.773438 22.902344 C 535.820312 22.386719 537.882812 21.925781 539.953125 21.515625 C 542.023438 21.101562 544.101562 20.742188 546.191406 20.433594 C 548.28125 20.121094 550.375 19.863281 552.476562 19.65625 C 554.578125 19.449219 556.679688 19.296875 558.789062 19.191406 C 560.898438 19.089844 563.007812 19.035156 565.121094 19.035156 C 567.230469 19.035156 569.34375 19.089844 571.449219 19.191406 C 573.558594 19.296875 575.664062 19.449219 577.765625 19.65625 C 579.867188 19.863281 581.960938 20.121094 584.050781 20.433594 C 586.140625 20.742188 588.21875 21.101562 590.289062 21.515625 C 592.359375 21.925781 594.417969 22.386719 596.46875 22.902344 C 598.515625 23.414062 600.550781 23.976562 602.570312 24.589844 C 604.589844 25.203125 606.59375 25.863281 608.582031 26.574219 C 610.570312 27.285156 612.539062 28.046875 614.492188 28.851562 C 616.441406 29.660156 618.371094 30.515625 620.28125 31.417969 C 622.1875 32.320312 624.074219 33.269531 625.933594 34.265625 C 627.796875 35.257812 629.632812 36.300781 631.445312 37.382812 C 633.257812 38.46875 635.039062 39.597656 636.792969 40.769531 C 638.550781 41.941406 640.277344 43.15625 641.972656 44.414062 C 643.667969 45.671875 645.332031 46.96875 646.964844 48.308594 C 648.59375 49.648438 650.195312 51.027344 651.757812 52.445312 C 653.324219 53.863281 654.851562 55.316406 656.34375 56.808594 C 657.835938 58.300781 659.292969 59.828125 660.710938 61.394531 C 662.128906 62.957031 663.507812 64.554688 664.847656 66.1875 C 666.1875 67.816406 667.484375 69.480469 668.742188 71.175781 C 670 72.871094 671.214844 74.597656 672.386719 76.351562 C 673.5625 78.105469 674.691406 79.890625 675.777344 81.699219 C 676.863281 83.507812 677.902344 85.34375 678.898438 87.207031 C 679.890625 89.066406 680.839844 90.953125 681.742188 92.859375 C 682.648438 94.769531 683.503906 96.699219 684.308594 98.648438 C 685.117188 100.597656 685.878906 102.566406 686.589844 104.554688 C 687.300781 106.539062 687.960938 108.542969 688.574219 110.5625 C 689.1875 112.582031 689.75 114.617188 690.265625 116.664062 C 690.777344 118.710938 691.238281 120.769531 691.652344 122.839844 C 692.0625 124.910156 692.425781 126.988281 692.734375 129.078125 C 693.042969 131.164062 693.300781 133.257812 693.507812 135.359375 C 693.714844 137.460938 693.871094 139.5625 693.976562 141.671875 C 694.078125 143.78125 694.128906 145.886719 694.128906 148 Z M 694.128906 148 " fill-opacity="1" fill-rule="nonzero"/><path fill="#371a45" d="M 565.046875 277.605469 C 552.726562 277.605469 540.203125 275.839844 527.8125 272.109375 C 494.640625 262.148438 467.351562 239.867188 450.949219 209.390625 C 434.546875 178.917969 431 143.863281 440.964844 110.703125 C 450.929688 77.542969 473.21875 50.265625 503.703125 33.871094 C 534.191406 17.472656 569.257812 13.925781 602.429688 23.890625 C 670.886719 44.4375 709.851562 116.84375 689.292969 185.292969 C 672.433594 241.320312 620.800781 277.605469 565.046875 277.605469 Z M 564.957031 19.585938 C 544.011719 19.585938 523.269531 24.769531 504.292969 34.972656 C 474.101562 51.222656 452.035156 78.242188 442.160156 111.070312 C 432.285156 143.898438 435.816406 178.605469 452.054688 208.804688 C 468.308594 238.988281 495.339844 261.042969 528.179688 270.914062 C 540.445312 274.589844 552.855469 276.355469 565.046875 276.355469 C 620.265625 276.355469 671.382812 240.4375 688.082031 184.925781 C 708.453125 117.15625 669.859375 45.449219 602.0625 25.082031 C 589.835938 21.40625 577.347656 19.585938 564.957031 19.585938 Z M 564.957031 19.585938 " fill-opacity="1" fill-rule="nonzero"/><path fill="#371a45" d="M 447.878906 94.140625 C 445.414062 99.492188 443.300781 105.078125 441.554688 110.886719 C 421.070312 179.101562 459.757812 251.007812 527.996094 271.503906 C 596.234375 291.980469 668.167969 253.304688 688.667969 185.09375 C 689.257812 183.125 689.808594 181.160156 690.289062 179.191406 C 663.882812 236.816406 598.367188 267.605469 535.9375 248.855469 C 469.667969 228.96875 431.273438 160.570312 447.878906 94.140625 Z M 447.878906 94.140625 " fill-opacity="0.25" fill-rule="nonzero"/><path fill="#371a45" d="M 565.046875 280.453125 C 552.453125 280.453125 539.652344 278.652344 526.984375 274.847656 C 493.09375 264.664062 465.183594 241.910156 448.414062 210.753906 C 431.640625 179.597656 428.019531 143.773438 438.207031 109.894531 C 459.222656 39.953125 533.253906 0.140625 603.21875 21.148438 C 673.1875 42.160156 713.015625 116.164062 691.996094 186.105469 C 674.804688 243.378906 622.03125 280.453125 565.046875 280.453125 Z M 565.175781 22.492188 C 511.1875 22.492188 461.191406 57.617188 444.882812 111.878906 C 435.226562 143.972656 438.667969 177.925781 454.554688 207.425781 C 470.441406 236.945312 496.863281 258.507812 528.988281 268.15625 C 540.976562 271.761719 553.113281 273.46875 565.046875 273.46875 C 619.035156 273.46875 669.03125 238.34375 685.339844 184.082031 C 705.253906 117.816406 667.523438 47.710938 601.234375 27.804688 C 589.226562 24.21875 577.109375 22.492188 565.175781 22.492188 Z M 565.175781 22.492188 " fill-opacity="1" fill-rule="nonzero"/><path fill="#371a45" d="M 441.003906 114.179688 C 433.371094 138.238281 434.105469 163.054688 441.609375 185.753906 C 447.234375 202.773438 480.71875 240.070312 531.414062 256.632812 C 578.433594 272 629.292969 260.457031 643.691406 249.777344 C 662.90625 235.53125 677.800781 215.679688 685.433594 191.617188 C 705.621094 127.964844 659.265625 84.234375 591.765625 62.839844 C 524.261719 41.441406 461.191406 50.523438 441.003906 114.179688 Z M 441.003906 114.179688 " fill-opacity="1" fill-rule="nonzero"/><path fill="#371a45" d="M 580.347656 267.644531 C 564.421875 267.644531 547.210938 265.492188 530.332031 259.960938 C 476.546875 242.386719 443.851562 203.675781 438.300781 186.855469 C 430.28125 162.613281 430.078125 137.117188 437.671875 113.128906 C 447.585938 81.863281 467.773438 61.71875 497.691406 53.261719 C 523.765625 45.890625 556.664062 48.058594 592.832031 59.53125 C 629 70.980469 657.132812 88.167969 674.199219 109.195312 C 693.78125 133.3125 698.671875 161.417969 688.761719 192.683594 C 681.148438 216.671875 666.292969 237.386719 645.769531 252.589844 C 635.859375 259.941406 610.410156 267.644531 580.347656 267.644531 Z M 530.957031 55.945312 C 519.628906 55.945312 509.109375 57.289062 499.585938 59.972656 C 472.078125 67.746094 453.488281 86.332031 444.3125 115.226562 C 437.160156 137.796875 437.359375 161.820312 444.898438 184.667969 C 449.902344 199.835938 481.695312 236.742188 532.480469 253.34375 C 578.304688 268.324219 627.878906 257.164062 641.597656 247 C 660.921875 232.664062 674.933594 213.160156 682.085938 190.589844 C 706.910156 112.304688 626.445312 77.507812 590.679688 66.183594 C 569.257812 59.382812 549.085938 55.945312 530.957031 55.945312 Z M 441.003906 114.179688 Z M 441.003906 114.179688 " fill-opacity="1" fill-rule="nonzero"/><g mask="url(#62dc394252)"><g transform="matrix(1, 0, 0, 1, 463, 93)"><g clip-path="url(#bd434db488)"><path fill="#ffffff" d="M 23.371094 2.464844 C 23.910156 2.53125 24.441406 2.636719 24.96875 2.78125 C 25.492188 2.921875 26.011719 3.097656 26.519531 3.308594 C 27.027344 3.523438 27.527344 3.769531 28.011719 4.050781 C 28.5 4.332031 28.972656 4.644531 29.433594 4.992188 C 29.894531 5.339844 30.339844 5.71875 30.765625 6.128906 C 31.195312 6.539062 31.609375 6.980469 32.003906 7.449219 C 32.394531 7.917969 32.769531 8.414062 33.125 8.941406 C 33.480469 9.464844 33.816406 10.011719 34.128906 10.585938 C 34.441406 11.160156 34.730469 11.753906 35 12.371094 C 35.265625 12.988281 35.507812 13.625 35.730469 14.277344 C 35.949219 14.933594 36.144531 15.605469 36.3125 16.289062 C 36.480469 16.976562 36.625 17.675781 36.742188 18.386719 C 36.859375 19.097656 36.953125 19.820312 37.015625 20.550781 C 37.082031 21.28125 37.121094 22.015625 37.132812 22.753906 C 37.144531 23.496094 37.128906 24.238281 37.085938 24.984375 C 37.042969 25.730469 36.976562 26.472656 36.878906 27.214844 C 36.785156 27.957031 36.664062 28.691406 36.515625 29.421875 C 36.367188 30.152344 36.195312 30.875 35.996094 31.589844 C 35.800781 32.304688 35.578125 33.007812 35.328125 33.695312 C 35.082031 34.386719 34.8125 35.058594 34.519531 35.71875 C 34.222656 36.378906 33.910156 37.015625 33.570312 37.640625 C 33.234375 38.261719 32.875 38.859375 32.5 39.4375 C 32.121094 40.015625 31.726562 40.570312 31.308594 41.101562 C 30.894531 41.628906 30.464844 42.132812 30.015625 42.609375 C 29.570312 43.082031 29.109375 43.53125 28.632812 43.949219 C 28.15625 44.363281 27.667969 44.75 27.167969 45.105469 C 26.667969 45.460938 26.160156 45.78125 25.640625 46.070312 C 25.121094 46.359375 24.59375 46.613281 24.0625 46.832031 C 23.527344 47.054688 22.992188 47.238281 22.449219 47.386719 C 21.90625 47.535156 21.363281 47.648438 20.816406 47.726562 C 20.269531 47.804688 19.726562 47.84375 19.179688 47.847656 C 18.636719 47.851562 18.097656 47.820312 17.558594 47.75 C 17.019531 47.683594 16.488281 47.578125 15.964844 47.4375 C 15.4375 47.292969 14.921875 47.117188 14.414062 46.90625 C 13.902344 46.691406 13.40625 46.445312 12.917969 46.164062 C 12.433594 45.882812 11.957031 45.570312 11.5 45.222656 C 11.039062 44.875 10.59375 44.496094 10.164062 44.085938 C 9.734375 43.675781 9.324219 43.234375 8.929688 42.765625 C 8.535156 42.296875 8.160156 41.800781 7.804688 41.277344 C 7.449219 40.753906 7.117188 40.203125 6.804688 39.628906 C 6.492188 39.058594 6.199219 38.460938 5.933594 37.84375 C 5.664062 37.226562 5.421875 36.59375 5.203125 35.9375 C 4.984375 35.28125 4.789062 34.613281 4.617188 33.925781 C 4.449219 33.238281 4.304688 32.539062 4.1875 31.828125 C 4.070312 31.117188 3.980469 30.394531 3.914062 29.664062 C 3.847656 28.9375 3.8125 28.199219 3.800781 27.460938 C 3.789062 26.71875 3.804688 25.976562 3.84375 25.230469 C 3.886719 24.488281 3.957031 23.742188 4.050781 23.003906 C 4.144531 22.261719 4.269531 21.523438 4.414062 20.792969 C 4.5625 20.0625 4.734375 19.339844 4.933594 18.625 C 5.132812 17.910156 5.355469 17.210938 5.601562 16.519531 C 5.847656 15.828125 6.121094 15.15625 6.414062 14.496094 C 6.707031 13.839844 7.023438 13.199219 7.359375 12.578125 C 7.695312 11.953125 8.054688 11.355469 8.433594 10.777344 C 8.808594 10.199219 9.207031 9.644531 9.621094 9.113281 C 10.035156 8.585938 10.46875 8.082031 10.914062 7.605469 C 11.363281 7.132812 11.824219 6.683594 12.300781 6.269531 C 12.777344 5.851562 13.261719 5.464844 13.761719 5.109375 C 14.261719 4.753906 14.773438 4.433594 15.292969 4.144531 C 15.8125 3.855469 16.335938 3.601562 16.871094 3.382812 C 17.402344 3.160156 17.941406 2.976562 18.484375 2.828125 C 19.023438 2.679688 19.570312 2.566406 20.113281 2.488281 C 20.660156 2.410156 21.207031 2.371094 21.75 2.367188 C 22.292969 2.363281 22.835938 2.394531 23.371094 2.464844 Z M 23.371094 2.464844 " fill-opacity="1" fill-rule="nonzero"/></g></g></g><g mask="url(#6dbc8c7857)"><g transform="matrix(1, 0, 0, 1, 479, 156)"><g clip-path="url(#67c3a96a34)"><g clip-path="url(#4ffc346858)"><path fill="#ffffff" d="M 19.089844 11.230469 C 19.097656 11.917969 19.046875 12.601562 18.9375 13.277344 C 18.832031 13.953125 18.667969 14.609375 18.449219 15.25 C 18.230469 15.886719 17.957031 16.492188 17.636719 17.070312 C 17.316406 17.644531 16.949219 18.175781 16.535156 18.667969 C 16.125 19.160156 15.675781 19.597656 15.1875 19.984375 C 14.703125 20.375 14.1875 20.703125 13.644531 20.972656 C 13.101562 21.242188 12.542969 21.445312 11.964844 21.585938 C 11.386719 21.726562 10.800781 21.800781 10.210938 21.804688 C 9.621094 21.8125 9.035156 21.753906 8.457031 21.625 C 7.875 21.496094 7.3125 21.304688 6.761719 21.046875 C 6.214844 20.789062 5.691406 20.472656 5.199219 20.09375 C 4.703125 19.71875 4.242188 19.289062 3.820312 18.808594 C 3.398438 18.324219 3.019531 17.800781 2.6875 17.234375 C 2.351562 16.664062 2.066406 16.0625 1.835938 15.429688 C 1.601562 14.796875 1.425781 14.144531 1.300781 13.46875 C 1.179688 12.796875 1.113281 12.117188 1.105469 11.429688 C 1.097656 10.742188 1.148438 10.058594 1.257812 9.382812 C 1.363281 8.707031 1.527344 8.050781 1.746094 7.414062 C 1.964844 6.773438 2.238281 6.167969 2.558594 5.59375 C 2.878906 5.015625 3.246094 4.484375 3.660156 3.992188 C 4.070312 3.5 4.519531 3.0625 5.007812 2.675781 C 5.492188 2.285156 6.007812 1.957031 6.550781 1.6875 C 7.09375 1.417969 7.652344 1.214844 8.230469 1.074219 C 8.808594 0.933594 9.390625 0.859375 9.984375 0.855469 C 10.574219 0.847656 11.160156 0.910156 11.738281 1.035156 C 12.320312 1.164062 12.882812 1.355469 13.433594 1.613281 C 13.980469 1.871094 14.5 2.1875 14.996094 2.566406 C 15.492188 2.941406 15.949219 3.371094 16.375 3.851562 C 16.796875 4.335938 17.175781 4.859375 17.507812 5.429688 C 17.84375 5.996094 18.128906 6.597656 18.359375 7.230469 C 18.59375 7.863281 18.769531 8.515625 18.894531 9.191406 C 19.015625 9.863281 19.082031 10.542969 19.089844 11.230469 Z M 19.089844 11.230469 " fill-opacity="1" fill-rule="nonzero"/></g></g></g></g><path fill="#111a28" d="M 483.605469 62.324219 C 464.152344 71.847656 449.109375 88.609375 441.003906 114.179688 C 433.371094 138.238281 434.105469 163.054688 441.609375 185.753906 C 447.234375 202.773438 480.71875 240.070312 531.433594 256.652344 C 549.324219 262.496094 567.785156 264.445312 584.59375 264.023438 C 522.699219 242.332031 481.988281 196.671875 475.019531 175.550781 C 465.496094 146.730469 464.574219 115.226562 474.246094 84.710938 C 476.804688 76.550781 479.964844 69.105469 483.605469 62.324219 Z M 483.605469 62.324219 " fill-opacity="0.35" fill-rule="nonzero"/><path fill="#371a45" d="M 693.433594 137.90625 C 692.070312 137.90625 690.785156 137.097656 690.230469 135.777344 C 690.214844 135.757812 690.195312 135.703125 690.195312 135.683594 L 690.105469 135.40625 C 679.253906 99.03125 644.757812 69.21875 595.460938 53.613281 C 546.4375 38.078125 501.203125 42.050781 471.324219 64.476562 L 470.9375 64.769531 L 470.496094 64.933594 C 468.710938 65.632812 466.707031 64.769531 465.992188 63.003906 C 465.367188 61.441406 465.9375 59.695312 467.296875 58.796875 C 498.996094 35.082031 546.457031 30.78125 597.574219 46.976562 C 649.078125 63.296875 685.25 94.804688 696.777344 133.40625 C 697.3125 135.113281 696.449219 136.988281 694.753906 137.667969 C 694.3125 137.816406 693.875 137.90625 693.433594 137.90625 Z M 693.433594 137.90625 " fill-opacity="1" fill-rule="nonzero"/><path fill="#ffffff" d="M 645.972656 220.808594 C 645.972656 220.808594 685.617188 164.25 659.691406 128.496094 C 633.761719 92.746094 585.015625 77.414062 585.164062 80.890625 C 585.164062 80.890625 634.957031 111.035156 642.550781 160.332031 C 648.398438 198.363281 645.972656 220.808594 645.972656 220.808594 Z M 645.972656 220.808594 " fill-opacity="0.5" fill-rule="nonzero"/></svg>