<svg xmlns="http://www.w3.org/2000/svg" xmlns:xlink="http://www.w3.org/1999/xlink" width="500" zoomAndPan="magnify" viewBox="0 0 375 374.999991" height="500" preserveAspectRatio="xMidYMid meet" version="1.0"><defs><clipPath id="93b3649d02"><path d="M 0 0 L 373.5 0 L 373.5 373.5 L 0 373.5 Z M 0 0 " clip-rule="nonzero"/></clipPath></defs><g clip-path="url(#93b3649d02)"><path fill="#000000" d="M 186.75 0 C 83.757812 0 0 83.757812 0 186.75 C 0 289.742188 83.757812 373.5 186.75 373.5 C 289.742188 373.5 373.5 289.742188 373.5 186.75 C 373.5 83.757812 289.742188 0 186.75 0 Z M 186.75 360.398438 C 90.867188 360.398438 13.101562 282.632812 13.101562 186.75 C 13.101562 90.867188 90.867188 13.101562 186.75 13.101562 C 282.632812 13.101562 360.398438 90.867188 360.398438 186.75 C 360.398438 282.632812 282.632812 360.398438 186.75 360.398438 Z M 186.75 360.398438 " fill-opacity="1" fill-rule="nonzero"/></g><path fill="#000000" d="M 290.855469 187.773438 C 289.894531 187.777344 288.964844 187.617188 288.0625 187.289062 C 287.15625 186.960938 286.339844 186.488281 285.605469 185.867188 L 186.75 102.945312 L 87.894531 185.867188 C 87.480469 186.214844 87.039062 186.515625 86.570312 186.777344 C 86.097656 187.035156 85.605469 187.25 85.089844 187.410156 C 84.578125 187.574219 84.054688 187.683594 83.519531 187.746094 C 82.984375 187.804688 82.449219 187.808594 81.914062 187.765625 C 81.375 187.71875 80.847656 187.621094 80.332031 187.46875 C 79.816406 187.320312 79.316406 187.121094 78.839844 186.875 C 78.363281 186.625 77.914062 186.332031 77.492188 185.996094 C 77.074219 185.660156 76.691406 185.285156 76.34375 184.875 C 75.996094 184.460938 75.695312 184.019531 75.433594 183.546875 C 75.175781 183.078125 74.964844 182.582031 74.800781 182.070312 C 74.640625 181.558594 74.527344 181.03125 74.46875 180.496094 C 74.410156 179.960938 74.40625 179.425781 74.453125 178.890625 C 74.5 178.355469 74.597656 177.828125 74.746094 177.3125 C 74.898438 176.792969 75.097656 176.296875 75.347656 175.820312 C 75.59375 175.34375 75.886719 174.894531 76.222656 174.472656 C 76.5625 174.054688 76.9375 173.671875 77.347656 173.324219 L 181.5 85.988281 C 181.863281 85.679688 182.253906 85.40625 182.664062 85.167969 C 183.078125 84.929688 183.507812 84.726562 183.953125 84.5625 C 184.402344 84.398438 184.859375 84.273438 185.332031 84.191406 C 185.800781 84.109375 186.273438 84.066406 186.75 84.066406 C 187.226562 84.066406 187.699219 84.109375 188.167969 84.191406 C 188.640625 84.273438 189.097656 84.398438 189.546875 84.5625 C 189.992188 84.726562 190.421875 84.929688 190.835938 85.167969 C 191.246094 85.40625 191.636719 85.679688 192 85.988281 L 296.152344 173.324219 C 296.796875 173.863281 297.347656 174.488281 297.800781 175.199219 C 298.253906 175.910156 298.585938 176.667969 298.804688 177.484375 C 299.023438 178.296875 299.113281 179.121094 299.074219 179.964844 C 299.035156 180.804688 298.871094 181.621094 298.582031 182.410156 C 298.292969 183.199219 297.890625 183.929688 297.375 184.59375 C 296.863281 185.261719 296.257812 185.832031 295.566406 186.3125 C 294.875 186.792969 294.128906 187.15625 293.324219 187.40625 C 292.519531 187.65625 291.699219 187.777344 290.855469 187.773438 Z M 290.855469 187.773438 " fill-opacity="1" fill-rule="nonzero"/><path fill="#000000" d="M 267.351562 195.902344 L 190.929688 131.792969 C 190.339844 131.308594 189.6875 130.941406 188.96875 130.683594 C 188.253906 130.425781 187.511719 130.300781 186.75 130.300781 C 185.988281 130.300781 185.246094 130.425781 184.53125 130.683594 C 183.8125 130.941406 183.160156 131.308594 182.570312 131.792969 L 106.148438 195.902344 C 105.414062 196.519531 104.84375 197.261719 104.4375 198.128906 C 104.03125 199 103.828125 199.914062 103.828125 200.871094 L 103.828125 282.957031 C 103.828125 283.382812 103.867188 283.800781 103.953125 284.21875 C 104.035156 284.632812 104.15625 285.039062 104.320312 285.429688 C 104.480469 285.820312 104.679688 286.195312 104.914062 286.546875 C 105.152344 286.898438 105.417969 287.226562 105.71875 287.523438 C 106.019531 287.824219 106.34375 288.09375 106.695312 288.328125 C 107.050781 288.5625 107.421875 288.761719 107.8125 288.925781 C 108.207031 289.085938 108.609375 289.210938 109.023438 289.292969 C 109.441406 289.375 109.859375 289.417969 110.285156 289.417969 L 165.566406 289.417969 L 165.566406 241.054688 C 165.566406 240.523438 165.617188 239.992188 165.722656 239.46875 C 165.828125 238.945312 165.980469 238.4375 166.183594 237.945312 C 166.390625 237.453125 166.640625 236.984375 166.9375 236.539062 C 167.234375 236.097656 167.570312 235.683594 167.949219 235.308594 C 168.324219 234.929688 168.734375 234.59375 169.179688 234.296875 C 169.625 234 170.09375 233.75 170.585938 233.546875 C 171.078125 233.339844 171.585938 233.1875 172.109375 233.082031 C 172.632812 232.980469 173.164062 232.925781 173.695312 232.925781 L 199.804688 232.925781 C 200.335938 232.925781 200.867188 232.980469 201.390625 233.082031 C 201.914062 233.1875 202.421875 233.339844 202.914062 233.546875 C 203.40625 233.75 203.875 234 204.320312 234.296875 C 204.765625 234.59375 205.175781 234.929688 205.550781 235.308594 C 205.929688 235.683594 206.265625 236.09375 206.5625 236.539062 C 206.859375 236.984375 207.109375 237.453125 207.316406 237.945312 C 207.519531 238.4375 207.671875 238.945312 207.777344 239.46875 C 207.882812 239.992188 207.933594 240.523438 207.933594 241.054688 L 207.933594 289.417969 L 263.214844 289.417969 C 263.640625 289.417969 264.058594 289.375 264.476562 289.292969 C 264.890625 289.210938 265.292969 289.085938 265.6875 288.925781 C 266.078125 288.761719 266.449219 288.5625 266.804688 288.328125 C 267.15625 288.09375 267.480469 287.824219 267.78125 287.523438 C 268.082031 287.226562 268.347656 286.898438 268.585938 286.546875 C 268.820312 286.195312 269.019531 285.820312 269.179688 285.429688 C 269.34375 285.039062 269.464844 284.632812 269.546875 284.21875 C 269.632812 283.800781 269.671875 283.382812 269.671875 282.957031 L 269.671875 200.871094 C 269.671875 199.914062 269.46875 199 269.0625 198.128906 C 268.65625 197.261719 268.085938 196.519531 267.351562 195.902344 Z M 207.933594 217.734375 C 207.929688 218.160156 207.886719 218.582031 207.800781 218.996094 C 207.714844 219.414062 207.589844 219.820312 207.425781 220.210938 C 207.261719 220.601562 207.058594 220.972656 206.820312 221.328125 C 206.582031 221.679688 206.3125 222.003906 206.011719 222.304688 C 205.710938 222.605469 205.382812 222.871094 205.027344 223.105469 C 204.675781 223.34375 204.300781 223.539062 203.90625 223.703125 C 203.515625 223.863281 203.109375 223.988281 202.691406 224.070312 C 202.277344 224.152344 201.855469 224.191406 201.429688 224.191406 L 172.070312 224.191406 C 171.644531 224.191406 171.222656 224.152344 170.808594 224.070312 C 170.390625 223.988281 169.984375 223.863281 169.59375 223.703125 C 169.199219 223.539062 168.824219 223.339844 168.472656 223.105469 C 168.117188 222.871094 167.789062 222.605469 167.488281 222.304688 C 167.1875 222.003906 166.917969 221.679688 166.679688 221.328125 C 166.441406 220.972656 166.238281 220.601562 166.074219 220.210938 C 165.910156 219.820312 165.785156 219.414062 165.699219 218.996094 C 165.613281 218.582031 165.570312 218.160156 165.566406 217.734375 L 165.566406 188.328125 C 165.570312 187.90625 165.613281 187.484375 165.699219 187.066406 C 165.785156 186.652344 165.910156 186.246094 166.074219 185.855469 C 166.238281 185.464844 166.441406 185.089844 166.679688 184.738281 C 166.917969 184.386719 167.1875 184.058594 167.488281 183.761719 C 167.789062 183.460938 168.117188 183.195312 168.472656 182.957031 C 168.824219 182.722656 169.199219 182.523438 169.59375 182.363281 C 169.984375 182.199219 170.390625 182.078125 170.808594 181.996094 C 171.222656 181.914062 171.644531 181.871094 172.070312 181.871094 L 201.429688 181.871094 C 201.855469 181.871094 202.277344 181.914062 202.691406 181.996094 C 203.109375 182.078125 203.515625 182.199219 203.90625 182.363281 C 204.300781 182.523438 204.675781 182.722656 205.027344 182.957031 C 205.382812 183.195312 205.710938 183.460938 206.011719 183.761719 C 206.3125 184.058594 206.582031 184.386719 206.820312 184.738281 C 207.058594 185.089844 207.261719 185.464844 207.425781 185.855469 C 207.589844 186.246094 207.714844 186.652344 207.800781 187.066406 C 207.886719 187.484375 207.929688 187.90625 207.933594 188.328125 Z M 207.933594 217.734375 " fill-opacity="1" fill-rule="nonzero"/></svg>