<svg xmlns="http://www.w3.org/2000/svg" xmlns:xlink="http://www.w3.org/1999/xlink" width="500" zoomAndPan="magnify" viewBox="0 0 375 374.999991" height="500" preserveAspectRatio="xMidYMid meet" version="1.0"><defs><clipPath id="669bfb0b51"><path d="M 0 0 L 373.5 0 L 373.5 373.5 L 0 373.5 Z M 0 0 " clip-rule="nonzero"/></clipPath></defs><g clip-path="url(#669bfb0b51)"><path fill="#000000" d="M 186.75 -0.0078125 C 289.890625 -0.0078125 373.507812 83.609375 373.507812 186.75 C 373.507812 289.890625 289.890625 373.507812 186.75 373.507812 C 83.609375 373.507812 -0.0078125 289.890625 -0.0078125 186.75 C -0.0078125 83.609375 83.609375 -0.0078125 186.75 -0.0078125 Z M 109.789062 267.113281 L 136.109375 267.113281 L 136.109375 162.835938 L 109.789062 162.835938 Z M 191.976562 212.160156 C 191.976562 195.710938 199.726562 182.523438 217.574219 182.523438 C 235.199219 182.523438 240.90625 196.734375 240.90625 212.160156 L 240.90625 267.128906 L 267.070312 267.128906 L 267.070312 199.945312 C 267.070312 176.082031 255.507812 159.390625 230.304688 159.390625 C 218.859375 159.390625 205.644531 165.390625 200.054688 175.804688 L 191.976562 190.539062 L 191.976562 162.835938 L 167.066406 162.835938 L 167.066406 267.113281 L 191.976562 267.113281 Z M 200.59375 212.160156 L 200.59375 275.730469 L 158.449219 275.730469 L 158.449219 154.214844 L 200.59375 154.214844 L 200.59375 161.972656 C 208.914062 154.523438 219.128906 150.773438 230.304688 150.773438 C 260.269531 150.773438 275.6875 171.308594 275.6875 199.945312 L 275.6875 275.710938 L 232.289062 275.71875 L 232.289062 212.160156 C 232.289062 201.796875 230.003906 191.144531 217.574219 191.144531 C 204.613281 191.144531 200.59375 200.570312 200.59375 212.160156 Z M 122.785156 139.4375 C 131.90625 139.4375 139.140625 131.980469 139.140625 122.910156 C 139.140625 113.832031 131.90625 106.386719 122.785156 106.386719 C 113.664062 106.386719 106.429688 113.832031 106.429688 122.910156 C 106.429688 131.980469 113.65625 139.4375 122.785156 139.4375 Z M 122.785156 148.058594 C 108.941406 148.058594 97.8125 136.703125 97.8125 122.910156 C 97.8125 109.117188 108.941406 97.769531 122.785156 97.769531 C 136.621094 97.769531 147.757812 109.117188 147.757812 122.910156 C 147.757812 136.695312 136.621094 148.058594 122.785156 148.058594 Z M 101.167969 275.730469 L 101.167969 154.214844 L 144.730469 154.214844 L 144.730469 275.730469 Z M 186.75 8.617188 C 88.367188 8.617188 8.613281 88.367188 8.613281 186.75 C 8.613281 285.132812 88.367188 364.882812 186.75 364.882812 C 285.132812 364.882812 364.886719 285.132812 364.886719 186.75 C 364.886719 88.367188 285.132812 8.617188 186.75 8.617188 Z M 186.75 8.617188 " fill-opacity="1" fill-rule="nonzero"/></g></svg>